solid trigjig2
facet normal 0.0871557427476616 0.996194698091745 5.30071232077319e-21
outer loop
vertex 25.4 42.9357571789162 5.55625
vertex 25.5837776546975 42.9196787175207 2.3847298
vertex 25.4 42.9357571789162 2.3847298
endloop
endfacet
facet normal 0.0871557427476616 0.996194698091745 5.30071232077319e-21
outer loop
vertex 25.5837776546975 42.9196787175207 2.3847298
vertex 25.4 42.9357571789162 5.55625
vertex 25.5837776546975 42.9196787175207 5.55625
endloop
endfacet
facet normal -0.573576436351054 0.819152044288986 3.80543721405355e-17
outer loop
vertex 24.7197164464151 42.6881542145504 5.55625
vertex 24.8708333333333 42.7939673979214 2.3847298
vertex 24.7197164464151 42.6881542145504 2.3847298
endloop
endfacet
facet normal -0.573576436351054 0.819152044288986 3.80543721405355e-17
outer loop
vertex 24.8708333333333 42.7939673979214 2.3847298
vertex 24.7197164464151 42.6881542145504 5.55625
vertex 24.8708333333333 42.7939673979214 5.55625
endloop
endfacet
facet normal -0.766044443118976 0.642787609686541 5.5442135051109e-16
outer loop
vertex 24.7197164464151 42.6881542145504 5.55625
vertex 24.4834564476615 42.4065905122495 2.3847298
vertex 24.4834564476615 42.4065905122495 5.55625
endloop
endfacet
facet normal -0.766044443118976 0.642787609686541 5.5442135051109e-16
outer loop
vertex 24.4834564476615 42.4065905122495 2.3847298
vertex 24.7197164464151 42.6881542145504 5.55625
vertex 24.7197164464151 42.6881542145504 2.3847298
endloop
endfacet
facet normal -0.866025403784439 -0.5 -1.34729130489033e-15
outer loop
vertex 27.389709 43.9940905122495 5.55625
vertex 51.8731654476615 1.5875 2.3847298
vertex 51.8731654476615 1.5875 5.55625
endloop
endfacet
facet normal -0.866025403784439 -0.5 -1.34729130489033e-15
outer loop
vertex 51.8731654476615 1.5875 2.3847298
vertex 27.389709 43.9940905122495 5.55625
vertex 27.389709 43.9940905122495 2.3847298
endloop
endfacet
facet normal -0.573576436351046 -0.819152044288992 -4.50916316779821e-17
outer loop
vertex 52.2605423333333 1.20012311432813 5.55625
vertex 52.1094254464151 1.30593629769908 2.3847298
vertex 52.2605423333333 1.20012311432813 2.3847298
endloop
endfacet
facet normal -0.573576436351046 -0.819152044288992 -4.50916316779821e-17
outer loop
vertex 52.1094254464151 1.30593629769908 2.3847298
vertex 52.2605423333333 1.20012311432813 5.55625
vertex 52.1094254464151 1.30593629769908 5.55625
endloop
endfacet
facet normal 0.0871557427476642 -0.996194698091745 1.17985619942805e-17
outer loop
vertex 52.9734866546975 1.07441179472875 5.55625
vertex 52.789709 1.05833333333333 2.3847298
vertex 52.9734866546975 1.07441179472875 2.3847298
endloop
endfacet
facet normal 0.0871557427476642 -0.996194698091745 1.17985619942805e-17
outer loop
vertex 52.789709 1.05833333333333 2.3847298
vertex 52.9734866546975 1.07441179472875 5.55625
vertex 52.789709 1.05833333333333 5.55625
endloop
endfacet
facet normal 0.258819045102535 -0.965925826289065 3.31255342932536e-17
outer loop
vertex 53.151680318353 1.12215864300158 5.55625
vertex 52.9734866546975 1.07441179472875 2.3847298
vertex 53.151680318353 1.12215864300158 2.3847298
endloop
endfacet
facet normal 0.258819045102535 -0.965925826289065 3.31255342932536e-17
outer loop
vertex 52.9734866546975 1.07441179472875 2.3847298
vertex 53.151680318353 1.12215864300158 5.55625
vertex 52.9734866546975 1.07441179472875 5.55625
endloop
endfacet
facet normal 0.422618261740715 -0.906307787036642 -1.76670745000757e-17
outer loop
vertex 53.3188756666667 1.20012311432814 5.55625
vertex 53.151680318353 1.12215864300158 2.3847298
vertex 53.3188756666667 1.20012311432815 2.3847298
endloop
endfacet
facet normal 0.422618261740715 -0.906307787036642 -1.76670745000757e-17
outer loop
vertex 53.151680318353 1.12215864300158 2.3847298
vertex 53.3188756666667 1.20012311432814 5.55625
vertex 53.151680318353 1.12215864300158 5.55625
endloop
endfacet
facet normal 0.573576436351048 -0.81915204428899 8.9699646766304e-17
outer loop
vertex 53.4699925535849 1.30593629769909 2.3847298
vertex 53.3188756666667 1.20012311432814 5.55625
vertex 53.3188756666667 1.20012311432815 2.3847298
endloop
endfacet
facet normal 0.573576436351048 -0.81915204428899 8.9699646766304e-17
outer loop
vertex 53.3188756666667 1.20012311432814 5.55625
vertex 53.4699925535849 1.30593629769909 2.3847298
vertex 53.4699925535849 1.30593629769909 5.55625
endloop
endfacet
facet normal -0.422618261740705 -0.906307787036647 -2.4214369546217e-17
outer loop
vertex 52.427737681647 1.12215864300157 2.3847298
vertex 52.2605423333333 1.20012311432813 5.55625
vertex 52.2605423333333 1.20012311432813 2.3847298
endloop
endfacet
facet normal -0.422618261740705 -0.906307787036647 -2.4214369546217e-17
outer loop
vertex 52.2605423333333 1.20012311432813 5.55625
vertex 52.427737681647 1.12215864300157 2.3847298
vertex 52.427737681647 1.12215864300158 5.55625
endloop
endfacet
facet normal 0.766044443118974 -0.642787609686544 2.15102686498095e-15
outer loop
vertex 53.4699925535849 1.30593629769909 2.3847298
vertex 53.7062525523385 1.58750000000001 5.55625
vertex 53.4699925535849 1.30593629769909 5.55625
endloop
endfacet
facet normal 0.766044443118974 -0.642787609686544 2.15102686498095e-15
outer loop
vertex 53.7062525523385 1.58750000000001 5.55625
vertex 53.4699925535849 1.30593629769909 2.3847298
vertex 53.7062525523385 1.5875 2.3847298
endloop
endfacet
facet normal -0.258819045102514 -0.96592582628907 -9.4654913604796e-18
outer loop
vertex 52.6059313453025 1.07441179472874 5.55625
vertex 52.427737681647 1.12215864300157 2.3847298
vertex 52.6059313453025 1.07441179472874 2.3847298
endloop
endfacet
facet normal -0.258819045102514 -0.96592582628907 -9.4654913604796e-18
outer loop
vertex 52.427737681647 1.12215864300157 2.3847298
vertex 52.6059313453025 1.07441179472874 5.55625
vertex 52.427737681647 1.12215864300158 5.55625
endloop
endfacet
facet normal -0.087155742747645 -0.996194698091747 -2.07326194488112e-17
outer loop
vertex 52.789709 1.05833333333333 5.55625
vertex 52.6059313453025 1.07441179472874 2.3847298
vertex 52.789709 1.05833333333333 2.3847298
endloop
endfacet
facet normal -0.087155742747645 -0.996194698091747 -2.07326194488112e-17
outer loop
vertex 52.6059313453025 1.07441179472874 2.3847298
vertex 52.789709 1.05833333333333 5.55625
vertex 52.6059313453025 1.07441179472874 5.55625
endloop
endfacet
facet normal 0.0 -1.0 0.0
outer loop
vertex 105.590280488951 0.0 5.55625
vertex 54.7902804889512 0.0 2.3847298
vertex 105.590280488951 0.0 2.3847298
endloop
endfacet
facet normal 0.0 -1.0 0.0
outer loop
vertex 54.7902804889512 0.0 2.3847298
vertex 105.590280488951 0.0 5.55625
vertex 54.7902804889512 0.0 5.55625
endloop
endfacet
facet normal 0.866025403784439 0.5 -3.81447317236544e-17
outer loop
vertex 81.1068240412897 42.4065905122495 2.3847298
vertex 105.590280488951 0.0 5.55625
vertex 105.590280488951 0.0 2.3847298
endloop
endfacet
facet normal 0.866025403784439 0.5 -3.81447317236544e-17
outer loop
vertex 105.590280488951 0.0 5.55625
vertex 81.1068240412897 42.4065905122495 2.3847298
vertex 81.1068240412897 42.4065905122495 5.55625
endloop
endfacet
facet normal -0.258819045102533 0.965925826289065 3.20077752581748e-17
outer loop
vertex 25.038028681647 42.8719318692479 5.55625
vertex 25.2162223453025 42.9196787175207 2.3847298
vertex 25.038028681647 42.8719318692479 2.3847298
endloop
endfacet
facet normal -0.258819045102533 0.965925826289065 3.20077752581748e-17
outer loop
vertex 25.2162223453025 42.9196787175207 2.3847298
vertex 25.038028681647 42.8719318692479 5.55625
vertex 25.2162223453025 42.9196787175207 5.55625
endloop
endfacet
facet normal -0.42261826174069 0.906307787036654 3.50221465907264e-17
outer loop
vertex 24.8708333333333 42.7939673979214 5.55625
vertex 25.038028681647 42.8719318692479 2.3847298
vertex 24.8708333333333 42.7939673979214 2.3847298
endloop
endfacet
facet normal -0.42261826174069 0.906307787036654 3.50221465907264e-17
outer loop
vertex 25.038028681647 42.8719318692479 2.3847298
vertex 24.8708333333333 42.7939673979214 5.55625
vertex 25.038028681647 42.8719318692479 5.55625
endloop
endfacet
facet normal 0.0 0.0 1.0
outer loop
vertex 105.590280488951 0.0 5.55625
vertex 79.2737369366126 42.4065905122495 5.55625
vertex 54.7902804889512 0.0 5.55625
endloop
endfacet
facet normal 0.0 0.0 1.0
outer loop
vertex 79.2737369366126 42.4065905122495 5.55625
vertex 105.590280488951 0.0 5.55625
vertex 79.5099969353662 42.6881542145504 5.55625
endloop
endfacet
facet normal 0.0 0.0 1.0
outer loop
vertex 79.5099969353662 42.6881542145504 5.55625
vertex 105.590280488951 0.0 5.55625
vertex 79.6611138222845 42.7939673979214 5.55625
endloop
endfacet
facet normal 0.0 0.0 1.0
outer loop
vertex 79.6611138222845 42.7939673979214 5.55625
vertex 105.590280488951 0.0 5.55625
vertex 79.8283091705982 42.8719318692479 5.55625
endloop
endfacet
facet normal 0.0 0.0 1.0
outer loop
vertex 79.8283091705982 42.8719318692479 5.55625
vertex 105.590280488951 0.0 5.55625
vertex 80.0065028342537 42.9196787175208 5.55625
endloop
endfacet
facet normal 0.0 0.0 1.0
outer loop
vertex 80.0065028342537 42.9196787175208 5.55625
vertex 105.590280488951 0.0 5.55625
vertex 80.1902804889511 42.9357571789162 5.55625
endloop
endfacet
facet normal 0.0 0.0 1.0
outer loop
vertex 80.1902804889511 42.9357571789162 5.55625
vertex 105.590280488951 0.0 5.55625
vertex 80.3740581436487 42.9196787175208 5.55625
endloop
endfacet
facet normal 0.0 0.0 1.0
outer loop
vertex 80.3740581436487 42.9196787175208 5.55625
vertex 105.590280488951 0.0 5.55625
vertex 80.5522518073041 42.8719318692479 5.55625
endloop
endfacet
facet normal 0.0 0.0 1.0
outer loop
vertex 80.5522518073041 42.8719318692479 5.55625
vertex 105.590280488951 0.0 5.55625
vertex 80.7194471556178 42.7939673979214 5.55625
endloop
endfacet
facet normal 0.0 0.0 1.0
outer loop
vertex 80.7194471556178 42.7939673979214 5.55625
vertex 105.590280488951 0.0 5.55625
vertex 80.8705640425361 42.6881542145504 5.55625
endloop
endfacet
facet normal 0.0 0.0 1.0
outer loop
vertex 80.8705640425361 42.6881542145504 5.55625
vertex 105.590280488951 0.0 5.55625
vertex 81.1068240412897 42.4065905122495 5.55625
endloop
endfacet
facet normal 0.0 0.0 1.0
outer loop
vertex 50.8 0.0 5.55625
vertex 24.4834564476615 42.4065905122495 5.55625
vertex 0.0 0.0 5.55625
endloop
endfacet
facet normal 0.0 0.0 1.0
outer loop
vertex 24.4834564476615 42.4065905122495 5.55625
vertex 50.8 0.0 5.55625
vertex 24.7197164464151 42.6881542145504 5.55625
endloop
endfacet
facet normal 0.0 0.0 1.0
outer loop
vertex 24.7197164464151 42.6881542145504 5.55625
vertex 50.8 0.0 5.55625
vertex 24.8708333333333 42.7939673979214 5.55625
endloop
endfacet
facet normal 0.0 0.0 1.0
outer loop
vertex 24.8708333333333 42.7939673979214 5.55625
vertex 50.8 0.0 5.55625
vertex 25.038028681647 42.8719318692479 5.55625
endloop
endfacet
facet normal 0.0 0.0 1.0
outer loop
vertex 25.038028681647 42.8719318692479 5.55625
vertex 50.8 0.0 5.55625
vertex 25.2162223453025 42.9196787175207 5.55625
endloop
endfacet
facet normal 0.0 0.0 1.0
outer loop
vertex 25.2162223453025 42.9196787175207 5.55625
vertex 50.8 0.0 5.55625
vertex 25.4 42.9357571789162 5.55625
endloop
endfacet
facet normal 0.0 0.0 1.0
outer loop
vertex 25.4 42.9357571789162 5.55625
vertex 50.8 0.0 5.55625
vertex 25.5837776546975 42.9196787175207 5.55625
endloop
endfacet
facet normal 0.0 0.0 1.0
outer loop
vertex 25.5837776546975 42.9196787175207 5.55625
vertex 50.8 0.0 5.55625
vertex 25.761971318353 42.8719318692479 5.55625
endloop
endfacet
facet normal 0.0 0.0 1.0
outer loop
vertex 25.761971318353 42.8719318692479 5.55625
vertex 50.8 0.0 5.55625
vertex 25.9291666666667 42.7939673979214 5.55625
endloop
endfacet
facet normal 0.0 0.0 1.0
outer loop
vertex 25.9291666666667 42.7939673979214 5.55625
vertex 50.8 0.0 5.55625
vertex 26.0802835535849 42.6881542145504 5.55625
endloop
endfacet
facet normal 0.0 0.0 1.0
outer loop
vertex 26.0802835535849 42.6881542145504 5.55625
vertex 50.8 0.0 5.55625
vertex 26.3165435523385 42.4065905122495 5.55625
endloop
endfacet
facet normal -0.0871557427476638 0.996194698091745 -6.41995001921864e-18
outer loop
vertex 25.2162223453025 42.9196787175207 5.55625
vertex 25.4 42.9357571789162 2.3847298
vertex 25.2162223453025 42.9196787175207 2.3847298
endloop
endfacet
facet normal -0.0871557427476638 0.996194698091745 -6.41995001921864e-18
outer loop
vertex 25.4 42.9357571789162 2.3847298
vertex 25.2162223453025 42.9196787175207 5.55625
vertex 25.4 42.9357571789162 5.55625
endloop
endfacet
facet normal -0.866025403784439 0.5 -2.08426690220219e-16
outer loop
vertex 24.4834564476615 42.4065905122495 5.55625
vertex 0.0 0.0 2.3847298
vertex 0.0 0.0 5.55625
endloop
endfacet
facet normal -0.866025403784439 0.5 -2.08426690220219e-16
outer loop
vertex 0.0 0.0 2.3847298
vertex 24.4834564476615 42.4065905122495 5.55625
vertex 24.4834564476615 42.4065905122495 2.3847298
endloop
endfacet
facet normal 0.258819045102522 0.965925826289068 -3.23742664129804e-17
outer loop
vertex 25.5837776546975 42.9196787175207 5.55625
vertex 25.761971318353 42.8719318692479 2.3847298
vertex 25.5837776546975 42.9196787175207 2.3847298
endloop
endfacet
facet normal 0.258819045102522 0.965925826289068 -3.23742664129804e-17
outer loop
vertex 25.761971318353 42.8719318692479 2.3847298
vertex 25.5837776546975 42.9196787175207 5.55625
vertex 25.761971318353 42.8719318692479 5.55625
endloop
endfacet
facet normal 0.573576436351038 0.819152044288998 3.82905092727709e-19
outer loop
vertex 25.9291666666667 42.7939673979214 5.55625
vertex 26.0802835535849 42.6881542145504 2.3847298
vertex 25.9291666666667 42.7939673979214 2.3847298
endloop
endfacet
facet normal 0.573576436351038 0.819152044288998 3.82905092727709e-19
outer loop
vertex 26.0802835535849 42.6881542145504 2.3847298
vertex 25.9291666666667 42.7939673979214 5.55625
vertex 26.0802835535849 42.6881542145504 5.55625
endloop
endfacet
facet normal 0.766044443118976 0.642787609686542 -2.62376589315722e-16
outer loop
vertex 26.3165435523385 42.4065905122495 2.3847298
vertex 26.0802835535849 42.6881542145504 5.55625
vertex 26.3165435523385 42.4065905122495 5.55625
endloop
endfacet
facet normal 0.766044443118976 0.642787609686542 -2.62376589315722e-16
outer loop
vertex 26.0802835535849 42.6881542145504 5.55625
vertex 26.3165435523385 42.4065905122495 2.3847298
vertex 26.0802835535849 42.6881542145504 2.3847298
endloop
endfacet
facet normal 0.422618261740704 0.906307787036648 -4.56504748492308e-18
outer loop
vertex 25.761971318353 42.8719318692479 5.55625
vertex 25.9291666666667 42.7939673979214 2.3847298
vertex 25.761971318353 42.8719318692479 2.3847298
endloop
endfacet
facet normal 0.422618261740704 0.906307787036648 -4.56504748492308e-18
outer loop
vertex 25.9291666666667 42.7939673979214 2.3847298
vertex 25.761971318353 42.8719318692479 5.55625
vertex 25.9291666666667 42.7939673979214 5.55625
endloop
endfacet
facet normal 0.866025403784439 0.5 -8.33706760880874e-16
outer loop
vertex 26.3165435523385 42.4065905122495 2.3847298
vertex 50.8 0.0 5.55625
vertex 50.8 0.0 2.3847298
endloop
endfacet
facet normal 0.866025403784439 0.5 -8.33706760880874e-16
outer loop
vertex 50.8 0.0 5.55625
vertex 26.3165435523385 42.4065905122495 2.3847298
vertex 26.3165435523385 42.4065905122495 5.55625
endloop
endfacet
facet normal 1.0 -1.13959046697267e-35 1.52493857543905e-18
outer loop
vertex 108.765280488951 -8.3187799442624e-18 -0.79375
vertex 108.765280488951 47.1690905122495 2.3847298
vertex 108.765280488951 -1.94226430470375e-17 2.3847298
endloop
endfacet
facet normal 1.0 -1.13959046697267e-35 1.52493857543905e-18
outer loop
vertex 108.765280488951 47.1690905122495 2.3847298
vertex 108.765280488951 -8.3187799442624e-18 -0.79375
vertex 108.765280488951 47.1690905122495 -0.79375
endloop
endfacet
facet normal 0.028351935923916 -0.999598003063915 -3.4488115778933e-18
outer loop
vertex 108.765280488951 -1.94226430470375e-17 2.3847298
vertex -3.175 -3.175 -0.79375
vertex 108.765280488951 -8.3187799442624e-18 -0.79375
endloop
endfacet
facet normal 0.028351935923916 -0.999598003063915 -3.4488115778933e-18
outer loop
vertex -3.175 -3.175 -0.79375
vertex 108.765280488951 -1.94226430470375e-17 2.3847298
vertex -3.175 -3.175 2.3847298
endloop
endfacet
facet normal -1.0 0.0 -1.52493857543905e-18
outer loop
vertex -3.175 47.1690905122495 2.3847298
vertex -3.175 -3.175 -0.79375
vertex -3.175 -3.175 2.3847298
endloop
endfacet
facet normal -1.0 0.0 -1.52493857543905e-18
outer loop
vertex -3.175 -3.175 -0.79375
vertex -3.175 47.1690905122495 2.3847298
vertex -3.175 47.1690905122495 -0.79375
endloop
endfacet
facet normal 1.69907859359784e-19 -1.49585974088724e-18 1.0
outer loop
vertex 50.8 0.0 2.3847298
vertex 24.4834564476615 42.4065905122495 2.3847298
vertex 0.0 0.0 2.3847298
endloop
endfacet
facet normal 1.69907859359784e-19 -1.49585974088724e-18 1.0
outer loop
vertex 24.4834564476615 42.4065905122495 2.3847298
vertex 50.8 0.0 2.3847298
vertex 24.7197164464151 42.6881542145504 2.3847298
endloop
endfacet
facet normal 1.69907859359784e-19 -1.49585974088724e-18 1.0
outer loop
vertex 24.7197164464151 42.6881542145504 2.3847298
vertex 50.8 0.0 2.3847298
vertex 24.8708333333333 42.7939673979214 2.3847298
endloop
endfacet
facet normal 1.69907859359784e-19 -1.49585974088724e-18 1.0
outer loop
vertex 24.8708333333333 42.7939673979214 2.3847298
vertex 50.8 0.0 2.3847298
vertex 25.038028681647 42.8719318692479 2.3847298
endloop
endfacet
facet normal 1.69907859359784e-19 -1.49585974088724e-18 1.0
outer loop
vertex 25.038028681647 42.8719318692479 2.3847298
vertex 50.8 0.0 2.3847298
vertex 25.2162223453025 42.9196787175207 2.3847298
endloop
endfacet
facet normal 1.69907859359784e-19 -1.49585974088724e-18 1.0
outer loop
vertex 25.2162223453025 42.9196787175207 2.3847298
vertex 50.8 0.0 2.3847298
vertex 25.4 42.9357571789162 2.3847298
endloop
endfacet
facet normal 1.69907859359784e-19 -1.49585974088724e-18 1.0
outer loop
vertex 25.4 42.9357571789162 2.3847298
vertex 50.8 0.0 2.3847298
vertex 25.5837776546975 42.9196787175207 2.3847298
endloop
endfacet
facet normal 1.69907859359784e-19 -1.49585974088724e-18 1.0
outer loop
vertex 25.5837776546975 42.9196787175207 2.3847298
vertex 50.8 0.0 2.3847298
vertex 25.761971318353 42.8719318692479 2.3847298
endloop
endfacet
facet normal 1.69907859359784e-19 -1.49585974088724e-18 1.0
outer loop
vertex 25.761971318353 42.8719318692479 2.3847298
vertex 50.8 0.0 2.3847298
vertex 25.9291666666667 42.7939673979214 2.3847298
endloop
endfacet
facet normal 1.69907859359784e-19 -1.49585974088724e-18 1.0
outer loop
vertex 25.9291666666667 42.7939673979214 2.3847298
vertex 50.8 0.0 2.3847298
vertex 26.0802835535849 42.6881542145504 2.3847298
endloop
endfacet
facet normal 1.69907859359784e-19 -1.49585974088724e-18 1.0
outer loop
vertex 26.0802835535849 42.6881542145504 2.3847298
vertex 50.8 0.0 2.3847298
vertex 26.3165435523385 42.4065905122495 2.3847298
endloop
endfacet
facet normal 0.0 -1.0 0.0
outer loop
vertex 50.8 0.0 5.55625
vertex 0.0 0.0 2.3847298
vertex 50.8 0.0 2.3847298
endloop
endfacet
facet normal 0.0 -1.0 0.0
outer loop
vertex 0.0 0.0 2.3847298
vertex 50.8 0.0 5.55625
vertex 0.0 0.0 5.55625
endloop
endfacet
facet normal -0.866025403784439 0.5 2.46571421943873e-16
outer loop
vertex 79.2737369366126 42.4065905122495 5.55625
vertex 54.7902804889512 0.0 2.3847298
vertex 54.7902804889512 0.0 5.55625
endloop
endfacet
facet normal -0.866025403784439 0.5 2.46571421943873e-16
outer loop
vertex 54.7902804889512 0.0 2.3847298
vertex 79.2737369366126 42.4065905122495 5.55625
vertex 79.2737369366126 42.4065905122495 2.3847298
endloop
endfacet
facet normal -1.52493857543905e-18 -3.49345089522831e-18 1.0
outer loop
vertex 50.8 0.0 2.3847298
vertex 27.389709 43.9940905122495 2.3847298
vertex 26.3165435523385 42.4065905122495 2.3847298
endloop
endfacet
facet normal -1.52493857543905e-18 -3.49345089522831e-18 1.0
outer loop
vertex 27.389709 43.9940905122495 2.3847298
vertex 50.8 0.0 2.3847298
vertex 51.8731654476615 1.5875 2.3847298
endloop
endfacet
facet normal -1.52493857543905e-18 -3.49345089522831e-18 1.0
outer loop
vertex 54.7902804889512 0.0 2.3847298
vertex 78.189709 43.9940905122495 2.3847298
vertex 53.7062525523385 1.5875 2.3847298
endloop
endfacet
facet normal -1.52493857543905e-18 -3.49345089522831e-18 1.0
outer loop
vertex 78.189709 43.9940905122495 2.3847298
vertex 54.7902804889512 0.0 2.3847298
vertex 79.2737369366126 42.4065905122495 2.3847298
endloop
endfacet
facet normal -1.52493857543905e-18 -3.49345089522831e-18 1.0
outer loop
vertex -3.175 -3.175 2.3847298
vertex 0.0 0.0 2.3847298
vertex -3.175 47.1690905122495 2.3847298
endloop
endfacet
facet normal -1.52493857543905e-18 -3.49345089522831e-18 1.0
outer loop
vertex 0.0 0.0 2.3847298
vertex -3.175 -3.175 2.3847298
vertex 108.765280488951 -1.94226430470375e-17 2.3847298
endloop
endfacet
facet normal -1.52493857543905e-18 -3.49345089522831e-18 1.0
outer loop
vertex 0.0 0.0 2.3847298
vertex 108.765280488951 -1.94226430470375e-17 2.3847298
vertex 50.8 0.0 2.3847298
endloop
endfacet
facet normal -1.52493857543905e-18 -3.49345089522831e-18 1.0
outer loop
vertex 50.8 0.0 2.3847298
vertex 108.765280488951 -1.94226430470375e-17 2.3847298
vertex 54.7902804889512 0.0 2.3847298
endloop
endfacet
facet normal -1.52493857543905e-18 -3.49345089522831e-18 1.0
outer loop
vertex 50.8 0.0 2.3847298
vertex 54.7902804889512 0.0 2.3847298
vertex 52.2605423333333 1.20012311432813 2.3847298
endloop
endfacet
facet normal -1.52493857543905e-18 -3.49345089522831e-18 1.0
outer loop
vertex 50.8 0.0 2.3847298
vertex 52.2605423333333 1.20012311432813 2.3847298
vertex 52.1094254464151 1.30593629769908 2.3847298
endloop
endfacet
facet normal -1.52493857543905e-18 -3.49345089522831e-18 1.0
outer loop
vertex 50.8 0.0 2.3847298
vertex 52.1094254464151 1.30593629769908 2.3847298
vertex 51.8731654476615 1.5875 2.3847298
endloop
endfacet
facet normal -1.52493857543905e-18 -3.49345089522831e-18 1.0
outer loop
vertex 52.2605423333333 1.20012311432813 2.3847298
vertex 54.7902804889512 0.0 2.3847298
vertex 52.427737681647 1.12215864300157 2.3847298
endloop
endfacet
facet normal -1.52493857543905e-18 -3.49345089522831e-18 1.0
outer loop
vertex 52.427737681647 1.12215864300157 2.3847298
vertex 54.7902804889512 0.0 2.3847298
vertex 52.6059313453025 1.07441179472874 2.3847298
endloop
endfacet
facet normal -1.52493857543905e-18 -3.49345089522831e-18 1.0
outer loop
vertex 52.6059313453025 1.07441179472874 2.3847298
vertex 54.7902804889512 0.0 2.3847298
vertex 52.789709 1.05833333333333 2.3847298
endloop
endfacet
facet normal -1.52493857543905e-18 -3.49345089522831e-18 1.0
outer loop
vertex 52.789709 1.05833333333333 2.3847298
vertex 54.7902804889512 0.0 2.3847298
vertex 52.9734866546975 1.07441179472875 2.3847298
endloop
endfacet
facet normal -1.52493857543905e-18 -3.49345089522831e-18 1.0
outer loop
vertex 52.9734866546975 1.07441179472875 2.3847298
vertex 54.7902804889512 0.0 2.3847298
vertex 53.151680318353 1.12215864300158 2.3847298
endloop
endfacet
facet normal -1.52493857543905e-18 -3.49345089522831e-18 1.0
outer loop
vertex 53.151680318353 1.12215864300158 2.3847298
vertex 54.7902804889512 0.0 2.3847298
vertex 53.3188756666667 1.20012311432815 2.3847298
endloop
endfacet
facet normal -1.52493857543905e-18 -3.49345089522831e-18 1.0
outer loop
vertex 53.3188756666667 1.20012311432815 2.3847298
vertex 54.7902804889512 0.0 2.3847298
vertex 53.4699925535849 1.30593629769909 2.3847298
endloop
endfacet
facet normal -1.52493857543905e-18 -3.49345089522831e-18 1.0
outer loop
vertex 53.4699925535849 1.30593629769909 2.3847298
vertex 54.7902804889512 0.0 2.3847298
vertex 53.7062525523385 1.5875 2.3847298
endloop
endfacet
facet normal -1.52493857543905e-18 -3.49345089522831e-18 1.0
outer loop
vertex 54.7902804889512 0.0 2.3847298
vertex 108.765280488951 -1.94226430470375e-17 2.3847298
vertex 105.590280488951 0.0 2.3847298
endloop
endfacet
facet normal -1.52493857543905e-18 -3.49345089522831e-18 1.0
outer loop
vertex -3.175 47.1690905122495 2.3847298
vertex 27.389709 43.9940905122495 2.3847298
vertex 108.765280488951 47.1690905122495 2.3847298
endloop
endfacet
facet normal -1.52493857543905e-18 -3.49345089522831e-18 1.0
outer loop
vertex 27.389709 43.9940905122495 2.3847298
vertex -3.175 47.1690905122495 2.3847298
vertex 24.8708333333333 42.7939673979214 2.3847298
endloop
endfacet
facet normal -1.52493857543905e-18 -3.49345089522831e-18 1.0
outer loop
vertex 24.8708333333333 42.7939673979214 2.3847298
vertex -3.175 47.1690905122495 2.3847298
vertex 24.7197164464151 42.6881542145504 2.3847298
endloop
endfacet
facet normal -1.52493857543905e-18 -3.49345089522831e-18 1.0
outer loop
vertex 24.7197164464151 42.6881542145504 2.3847298
vertex -3.175 47.1690905122495 2.3847298
vertex 24.4834564476615 42.4065905122495 2.3847298
endloop
endfacet
facet normal -1.52493857543905e-18 -3.49345089522831e-18 1.0
outer loop
vertex 24.4834564476615 42.4065905122495 2.3847298
vertex -3.175 47.1690905122495 2.3847298
vertex 0.0 0.0 2.3847298
endloop
endfacet
facet normal -1.52493857543905e-18 -3.49345089522831e-18 1.0
outer loop
vertex 27.389709 43.9940905122495 2.3847298
vertex 24.8708333333333 42.7939673979214 2.3847298
vertex 25.038028681647 42.8719318692479 2.3847298
endloop
endfacet
facet normal -1.52493857543905e-18 -3.49345089522831e-18 1.0
outer loop
vertex 27.389709 43.9940905122495 2.3847298
vertex 25.038028681647 42.8719318692479 2.3847298
vertex 25.2162223453025 42.9196787175207 2.3847298
endloop
endfacet
facet normal -1.52493857543905e-18 -3.49345089522831e-18 1.0
outer loop
vertex 27.389709 43.9940905122495 2.3847298
vertex 25.2162223453025 42.9196787175207 2.3847298
vertex 25.4 42.9357571789162 2.3847298
endloop
endfacet
facet normal -1.52493857543905e-18 -3.49345089522831e-18 1.0
outer loop
vertex 27.389709 43.9940905122495 2.3847298
vertex 25.4 42.9357571789162 2.3847298
vertex 25.5837776546975 42.9196787175207 2.3847298
endloop
endfacet
facet normal -1.52493857543905e-18 -3.49345089522831e-18 1.0
outer loop
vertex 27.389709 43.9940905122495 2.3847298
vertex 25.5837776546975 42.9196787175207 2.3847298
vertex 25.761971318353 42.8719318692479 2.3847298
endloop
endfacet
facet normal -1.52493857543905e-18 -3.49345089522831e-18 1.0
outer loop
vertex 27.389709 43.9940905122495 2.3847298
vertex 25.761971318353 42.8719318692479 2.3847298
vertex 25.9291666666667 42.7939673979214 2.3847298
endloop
endfacet
facet normal -1.52493857543905e-18 -3.49345089522831e-18 1.0
outer loop
vertex 27.389709 43.9940905122495 2.3847298
vertex 25.9291666666667 42.7939673979214 2.3847298
vertex 26.0802835535849 42.6881542145504 2.3847298
endloop
endfacet
facet normal -1.52493857543905e-18 -3.49345089522831e-18 1.0
outer loop
vertex 27.389709 43.9940905122495 2.3847298
vertex 26.0802835535849 42.6881542145504 2.3847298
vertex 26.3165435523385 42.4065905122495 2.3847298
endloop
endfacet
facet normal -1.52493857543905e-18 -3.49345089522831e-18 1.0
outer loop
vertex 108.765280488951 47.1690905122495 2.3847298
vertex 27.389709 43.9940905122495 2.3847298
vertex 78.189709 43.9940905122495 2.3847298
endloop
endfacet
facet normal -1.52493857543905e-18 -3.49345089522831e-18 1.0
outer loop
vertex 108.765280488951 47.1690905122495 2.3847298
vertex 78.189709 43.9940905122495 2.3847298
vertex 80.0065028342537 42.9196787175208 2.3847298
endloop
endfacet
facet normal -1.52493857543905e-18 -3.49345089522831e-18 1.0
outer loop
vertex 80.0065028342537 42.9196787175208 2.3847298
vertex 78.189709 43.9940905122495 2.3847298
vertex 79.8283091705982 42.8719318692479 2.3847298
endloop
endfacet
facet normal -1.52493857543905e-18 -3.49345089522831e-18 1.0
outer loop
vertex 79.8283091705982 42.8719318692479 2.3847298
vertex 78.189709 43.9940905122495 2.3847298
vertex 79.6611138222845 42.7939673979214 2.3847298
endloop
endfacet
facet normal -1.52493857543905e-18 -3.49345089522831e-18 1.0
outer loop
vertex 79.6611138222845 42.7939673979214 2.3847298
vertex 78.189709 43.9940905122495 2.3847298
vertex 79.5099969353662 42.6881542145504 2.3847298
endloop
endfacet
facet normal -1.52493857543905e-18 -3.49345089522831e-18 1.0
outer loop
vertex 79.5099969353662 42.6881542145504 2.3847298
vertex 78.189709 43.9940905122495 2.3847298
vertex 79.2737369366126 42.4065905122495 2.3847298
endloop
endfacet
facet normal -1.52493857543905e-18 -3.49345089522831e-18 1.0
outer loop
vertex 108.765280488951 47.1690905122495 2.3847298
vertex 80.0065028342537 42.9196787175208 2.3847298
vertex 80.1902804889511 42.9357571789162 2.3847298
endloop
endfacet
facet normal -1.52493857543905e-18 -3.49345089522831e-18 1.0
outer loop
vertex 108.765280488951 47.1690905122495 2.3847298
vertex 80.1902804889511 42.9357571789162 2.3847298
vertex 80.3740581436486 42.9196787175208 2.3847298
endloop
endfacet
facet normal -1.52493857543905e-18 -3.49345089522831e-18 1.0
outer loop
vertex 108.765280488951 47.1690905122495 2.3847298
vertex 80.3740581436486 42.9196787175208 2.3847298
vertex 80.5522518073042 42.8719318692479 2.3847298
endloop
endfacet
facet normal -1.52493857543905e-18 -3.49345089522831e-18 1.0
outer loop
vertex 108.765280488951 47.1690905122495 2.3847298
vertex 80.5522518073042 42.8719318692479 2.3847298
vertex 80.7194471556179 42.7939673979213 2.3847298
endloop
endfacet
facet normal -1.52493857543905e-18 -3.49345089522831e-18 1.0
outer loop
vertex 108.765280488951 47.1690905122495 2.3847298
vertex 80.7194471556179 42.7939673979213 2.3847298
vertex 80.8705640425361 42.6881542145504 2.3847298
endloop
endfacet
facet normal -1.52493857543905e-18 -3.49345089522831e-18 1.0
outer loop
vertex 108.765280488951 47.1690905122495 2.3847298
vertex 80.8705640425361 42.6881542145504 2.3847298
vertex 81.1068240412897 42.4065905122495 2.3847298
endloop
endfacet
facet normal -1.52493857543905e-18 -3.49345089522831e-18 1.0
outer loop
vertex 108.765280488951 47.1690905122495 2.3847298
vertex 81.1068240412897 42.4065905122495 2.3847298
vertex 105.590280488951 0.0 2.3847298
endloop
endfacet
facet normal -1.52493857543905e-18 -3.49345089522831e-18 1.0
outer loop
vertex 108.765280488951 47.1690905122495 2.3847298
vertex 105.590280488951 0.0 2.3847298
vertex 108.765280488951 -1.94226430470375e-17 2.3847298
endloop
endfacet
facet normal 1.8534106181638e-19 -6.67894583181034e-18 1.0
outer loop
vertex 105.590280488951 0.0 2.3847298
vertex 79.2737369366126 42.4065905122495 2.3847298
vertex 54.7902804889512 0.0 2.3847298
endloop
endfacet
facet normal 1.8534106181638e-19 -6.67894583181034e-18 1.0
outer loop
vertex 79.2737369366126 42.4065905122495 2.3847298
vertex 105.590280488951 0.0 2.3847298
vertex 79.5099969353662 42.6881542145504 2.3847298
endloop
endfacet
facet normal 1.8534106181638e-19 -6.67894583181034e-18 1.0
outer loop
vertex 79.5099969353662 42.6881542145504 2.3847298
vertex 105.590280488951 0.0 2.3847298
vertex 79.6611138222845 42.7939673979214 2.3847298
endloop
endfacet
facet normal 1.8534106181638e-19 -6.67894583181034e-18 1.0
outer loop
vertex 79.6611138222845 42.7939673979214 2.3847298
vertex 105.590280488951 0.0 2.3847298
vertex 79.8283091705982 42.8719318692479 2.3847298
endloop
endfacet
facet normal 1.8534106181638e-19 -6.67894583181034e-18 1.0
outer loop
vertex 79.8283091705982 42.8719318692479 2.3847298
vertex 105.590280488951 0.0 2.3847298
vertex 80.0065028342537 42.9196787175208 2.3847298
endloop
endfacet
facet normal 1.8534106181638e-19 -6.67894583181034e-18 1.0
outer loop
vertex 80.0065028342537 42.9196787175208 2.3847298
vertex 105.590280488951 0.0 2.3847298
vertex 80.1902804889511 42.9357571789162 2.3847298
endloop
endfacet
facet normal 1.8534106181638e-19 -6.67894583181034e-18 1.0
outer loop
vertex 80.1902804889511 42.9357571789162 2.3847298
vertex 105.590280488951 0.0 2.3847298
vertex 80.3740581436486 42.9196787175208 2.3847298
endloop
endfacet
facet normal 1.8534106181638e-19 -6.67894583181034e-18 1.0
outer loop
vertex 80.3740581436486 42.9196787175208 2.3847298
vertex 105.590280488951 0.0 2.3847298
vertex 80.5522518073042 42.8719318692479 2.3847298
endloop
endfacet
facet normal 1.8534106181638e-19 -6.67894583181034e-18 1.0
outer loop
vertex 80.5522518073042 42.8719318692479 2.3847298
vertex 105.590280488951 0.0 2.3847298
vertex 80.7194471556179 42.7939673979213 2.3847298
endloop
endfacet
facet normal 1.8534106181638e-19 -6.67894583181034e-18 1.0
outer loop
vertex 80.7194471556179 42.7939673979213 2.3847298
vertex 105.590280488951 0.0 2.3847298
vertex 80.8705640425361 42.6881542145504 2.3847298
endloop
endfacet
facet normal 1.8534106181638e-19 -6.67894583181034e-18 1.0
outer loop
vertex 80.8705640425361 42.6881542145504 2.3847298
vertex 105.590280488951 0.0 2.3847298
vertex 81.1068240412897 42.4065905122495 2.3847298
endloop
endfacet
facet normal 0.573576436351076 0.819152044288971 5.91889342688064e-17
outer loop
vertex 80.7194471556178 42.7939673979214 5.55625
vertex 80.8705640425361 42.6881542145504 2.3847298
vertex 80.7194471556179 42.7939673979213 2.3847298
endloop
endfacet
facet normal 0.573576436351076 0.819152044288971 5.91889342688064e-17
outer loop
vertex 80.8705640425361 42.6881542145504 2.3847298
vertex 80.7194471556178 42.7939673979214 5.55625
vertex 80.8705640425361 42.6881542145504 5.55625
endloop
endfacet
facet normal 0.766044443118958 0.642787609686563 8.081879892038e-16
outer loop
vertex 80.8705640425361 42.6881542145504 2.3847298
vertex 81.1068240412897 42.4065905122495 5.55625
vertex 81.1068240412897 42.4065905122495 2.3847298
endloop
endfacet
facet normal 0.766044443118958 0.642787609686563 8.081879892038e-16
outer loop
vertex 81.1068240412897 42.4065905122495 5.55625
vertex 80.8705640425361 42.6881542145504 2.3847298
vertex 80.8705640425361 42.6881542145504 5.55625
endloop
endfacet
facet normal -0.0871557427476397 0.996194698091747 -1.26891056572022e-17
outer loop
vertex 80.0065028342537 42.9196787175208 5.55625
vertex 80.1902804889511 42.9357571789162 2.3847298
vertex 80.0065028342537 42.9196787175208 2.3847298
endloop
endfacet
facet normal -0.0871557427476397 0.996194698091747 -1.26891056572022e-17
outer loop
vertex 80.1902804889511 42.9357571789162 2.3847298
vertex 80.0065028342537 42.9196787175208 5.55625
vertex 80.1902804889511 42.9357571789162 5.55625
endloop
endfacet
facet normal 0.087155742747619 0.996194698091749 5.93864595249109e-17
outer loop
vertex 80.1902804889511 42.9357571789162 5.55625
vertex 80.3740581436486 42.9196787175208 2.3847298
vertex 80.1902804889511 42.9357571789162 2.3847298
endloop
endfacet
facet normal 0.087155742747619 0.996194698091749 5.93864595249109e-17
outer loop
vertex 80.3740581436486 42.9196787175208 2.3847298
vertex 80.1902804889511 42.9357571789162 5.55625
vertex 80.3740581436487 42.9196787175208 5.55625
endloop
endfacet
facet normal -0.258819045102542 0.965925826289063 -4.22540018877563e-17
outer loop
vertex 79.8283091705982 42.8719318692479 2.3847298
vertex 80.0065028342537 42.9196787175208 5.55625
vertex 80.0065028342537 42.9196787175208 2.3847298
endloop
endfacet
facet normal -0.258819045102542 0.965925826289063 -4.22540018877563e-17
outer loop
vertex 80.0065028342537 42.9196787175208 5.55625
vertex 79.8283091705982 42.8719318692479 2.3847298
vertex 79.8283091705982 42.8719318692479 5.55625
endloop
endfacet
facet normal -0.422618261740692 0.906307787036653 -1.08695848969451e-16
outer loop
vertex 79.6611138222845 42.7939673979214 5.55625
vertex 79.8283091705982 42.8719318692479 2.3847298
vertex 79.6611138222845 42.7939673979214 2.3847298
endloop
endfacet
facet normal -0.422618261740692 0.906307787036653 -1.08695848969451e-16
outer loop
vertex 79.8283091705982 42.8719318692479 2.3847298
vertex 79.6611138222845 42.7939673979214 5.55625
vertex 79.8283091705982 42.8719318692479 5.55625
endloop
endfacet
facet normal -0.573576436351025 0.819152044289006 -1.53506878239368e-16
outer loop
vertex 79.5099969353662 42.6881542145504 2.3847298
vertex 79.6611138222845 42.7939673979214 5.55625
vertex 79.6611138222845 42.7939673979214 2.3847298
endloop
endfacet
facet normal -0.573576436351025 0.819152044289006 -1.53506878239368e-16
outer loop
vertex 79.6611138222845 42.7939673979214 5.55625
vertex 79.5099969353662 42.6881542145504 2.3847298
vertex 79.5099969353662 42.6881542145504 5.55625
endloop
endfacet
facet normal -0.766044443118973 0.642787609686546 -1.73213779121541e-16
outer loop
vertex 79.5099969353662 42.6881542145504 5.55625
vertex 79.2737369366126 42.4065905122495 2.3847298
vertex 79.2737369366126 42.4065905122495 5.55625
endloop
endfacet
facet normal -0.766044443118973 0.642787609686546 -1.73213779121541e-16
outer loop
vertex 79.2737369366126 42.4065905122495 2.3847298
vertex 79.5099969353662 42.6881542145504 5.55625
vertex 79.5099969353662 42.6881542145504 2.3847298
endloop
endfacet
facet normal 0.422618261740685 0.906307787036657 -8.733733024432e-17
outer loop
vertex 80.5522518073041 42.8719318692479 5.55625
vertex 80.7194471556179 42.7939673979213 2.3847298
vertex 80.5522518073042 42.8719318692479 2.3847298
endloop
endfacet
facet normal 0.422618261740685 0.906307787036657 -8.733733024432e-17
outer loop
vertex 80.7194471556179 42.7939673979213 2.3847298
vertex 80.5522518073041 42.8719318692479 5.55625
vertex 80.7194471556178 42.7939673979214 5.55625
endloop
endfacet
facet normal 0.258819045102569 0.965925826289055 -1.02007812309158e-16
outer loop
vertex 80.3740581436487 42.9196787175208 5.55625
vertex 80.5522518073042 42.8719318692479 2.3847298
vertex 80.3740581436486 42.9196787175208 2.3847298
endloop
endfacet
facet normal 0.258819045102569 0.965925826289055 -1.02007812309158e-16
outer loop
vertex 80.5522518073042 42.8719318692479 2.3847298
vertex 80.3740581436487 42.9196787175208 5.55625
vertex 80.5522518073041 42.8719318692479 5.55625
endloop
endfacet
facet normal -0.766044443118974 -0.642787609686544 -5.16425241681391e-16
outer loop
vertex 51.8731654476615 1.5875 5.55625
vertex 52.1094254464151 1.30593629769908 2.3847298
vertex 52.1094254464151 1.30593629769908 5.55625
endloop
endfacet
facet normal -0.766044443118974 -0.642787609686544 -5.16425241681391e-16
outer loop
vertex 52.1094254464151 1.30593629769908 2.3847298
vertex 51.8731654476615 1.5875 5.55625
vertex 51.8731654476615 1.5875 2.3847298
endloop
endfacet
facet normal 0.866025403784439 -0.5 1.51757326338689e-15
outer loop
vertex 78.189709 43.9940905122495 2.3847298
vertex 53.7062525523385 1.58750000000001 5.55625
vertex 53.7062525523385 1.5875 2.3847298
endloop
endfacet
facet normal 0.866025403784439 -0.5 1.51757326338689e-15
outer loop
vertex 53.7062525523385 1.58750000000001 5.55625
vertex 78.189709 43.9940905122495 2.3847298
vertex 78.189709 43.9940905122495 5.55625
endloop
endfacet
facet normal 0.0 0.0 1.0
outer loop
vertex 51.8731654476615 1.5875 5.55625
vertex 78.189709 43.9940905122495 5.55625
vertex 27.389709 43.9940905122495 5.55625
endloop
endfacet
facet normal 0.0 0.0 1.0
outer loop
vertex 78.189709 43.9940905122495 5.55625
vertex 51.8731654476615 1.5875 5.55625
vertex 52.1094254464151 1.30593629769908 5.55625
endloop
endfacet
facet normal 0.0 0.0 1.0
outer loop
vertex 78.189709 43.9940905122495 5.55625
vertex 52.1094254464151 1.30593629769908 5.55625
vertex 52.2605423333333 1.20012311432813 5.55625
endloop
endfacet
facet normal 0.0 0.0 1.0
outer loop
vertex 78.189709 43.9940905122495 5.55625
vertex 52.2605423333333 1.20012311432813 5.55625
vertex 52.427737681647 1.12215864300158 5.55625
endloop
endfacet
facet normal 0.0 0.0 1.0
outer loop
vertex 78.189709 43.9940905122495 5.55625
vertex 52.427737681647 1.12215864300158 5.55625
vertex 52.6059313453025 1.07441179472874 5.55625
endloop
endfacet
facet normal 0.0 0.0 1.0
outer loop
vertex 78.189709 43.9940905122495 5.55625
vertex 52.6059313453025 1.07441179472874 5.55625
vertex 52.789709 1.05833333333333 5.55625
endloop
endfacet
facet normal 0.0 0.0 1.0
outer loop
vertex 78.189709 43.9940905122495 5.55625
vertex 52.789709 1.05833333333333 5.55625
vertex 52.9734866546975 1.07441179472875 5.55625
endloop
endfacet
facet normal 0.0 0.0 1.0
outer loop
vertex 78.189709 43.9940905122495 5.55625
vertex 52.9734866546975 1.07441179472875 5.55625
vertex 53.151680318353 1.12215864300158 5.55625
endloop
endfacet
facet normal 0.0 0.0 1.0
outer loop
vertex 78.189709 43.9940905122495 5.55625
vertex 53.151680318353 1.12215864300158 5.55625
vertex 53.3188756666667 1.20012311432814 5.55625
endloop
endfacet
facet normal 0.0 0.0 1.0
outer loop
vertex 78.189709 43.9940905122495 5.55625
vertex 53.3188756666667 1.20012311432814 5.55625
vertex 53.4699925535849 1.30593629769909 5.55625
endloop
endfacet
facet normal 0.0 0.0 1.0
outer loop
vertex 78.189709 43.9940905122495 5.55625
vertex 53.4699925535849 1.30593629769909 5.55625
vertex 53.7062525523385 1.58750000000001 5.55625
endloop
endfacet
facet normal -3.29510814798077e-19 -1.20560395912869e-20 1.0
outer loop
vertex 51.8731654476615 1.5875 2.3847298
vertex 78.189709 43.9940905122495 2.3847298
vertex 27.389709 43.9940905122495 2.3847298
endloop
endfacet
facet normal -3.29510814798077e-19 -1.20560395912869e-20 1.0
outer loop
vertex 78.189709 43.9940905122495 2.3847298
vertex 51.8731654476615 1.5875 2.3847298
vertex 52.1094254464151 1.30593629769908 2.3847298
endloop
endfacet
facet normal -3.29510814798077e-19 -1.20560395912869e-20 1.0
outer loop
vertex 78.189709 43.9940905122495 2.3847298
vertex 52.1094254464151 1.30593629769908 2.3847298
vertex 52.2605423333333 1.20012311432813 2.3847298
endloop
endfacet
facet normal -3.29510814798077e-19 -1.20560395912869e-20 1.0
outer loop
vertex 78.189709 43.9940905122495 2.3847298
vertex 52.2605423333333 1.20012311432813 2.3847298
vertex 52.427737681647 1.12215864300157 2.3847298
endloop
endfacet
facet normal -3.29510814798077e-19 -1.20560395912869e-20 1.0
outer loop
vertex 78.189709 43.9940905122495 2.3847298
vertex 52.427737681647 1.12215864300157 2.3847298
vertex 52.6059313453025 1.07441179472874 2.3847298
endloop
endfacet
facet normal -3.29510814798077e-19 -1.20560395912869e-20 1.0
outer loop
vertex 78.189709 43.9940905122495 2.3847298
vertex 52.6059313453025 1.07441179472874 2.3847298
vertex 52.789709 1.05833333333333 2.3847298
endloop
endfacet
facet normal -3.29510814798077e-19 -1.20560395912869e-20 1.0
outer loop
vertex 78.189709 43.9940905122495 2.3847298
vertex 52.789709 1.05833333333333 2.3847298
vertex 52.9734866546975 1.07441179472875 2.3847298
endloop
endfacet
facet normal -3.29510814798077e-19 -1.20560395912869e-20 1.0
outer loop
vertex 78.189709 43.9940905122495 2.3847298
vertex 52.9734866546975 1.07441179472875 2.3847298
vertex 53.151680318353 1.12215864300158 2.3847298
endloop
endfacet
facet normal -3.29510814798077e-19 -1.20560395912869e-20 1.0
outer loop
vertex 78.189709 43.9940905122495 2.3847298
vertex 53.151680318353 1.12215864300158 2.3847298
vertex 53.3188756666667 1.20012311432815 2.3847298
endloop
endfacet
facet normal -3.29510814798077e-19 -1.20560395912869e-20 1.0
outer loop
vertex 78.189709 43.9940905122495 2.3847298
vertex 53.3188756666667 1.20012311432815 2.3847298
vertex 53.4699925535849 1.30593629769909 2.3847298
endloop
endfacet
facet normal -3.29510814798077e-19 -1.20560395912869e-20 1.0
outer loop
vertex 78.189709 43.9940905122495 2.3847298
vertex 53.4699925535849 1.30593629769909 2.3847298
vertex 53.7062525523385 1.5875 2.3847298
endloop
endfacet
facet normal 1.11022302462516e-16 1.0 1.42233257271996e-15
outer loop
vertex 27.389709 43.9940905122495 5.55625
vertex 78.189709 43.9940905122495 2.3847298
vertex 27.389709 43.9940905122495 2.3847298
endloop
endfacet
facet normal 1.11022302462516e-16 1.0 1.42233257271996e-15
outer loop
vertex 78.189709 43.9940905122495 2.3847298
vertex 27.389709 43.9940905122495 5.55625
vertex 78.189709 43.9940905122495 5.55625
endloop
endfacet
facet normal -1.10007478875568e-35 1.0 3.49345089522831e-18
outer loop
vertex -3.175 47.1690905122495 2.3847298
vertex 108.765280488951 47.1690905122495 -0.79375
vertex -3.175 47.1690905122495 -0.79375
endloop
endfacet
facet normal -1.10007478875568e-35 1.0 3.49345089522831e-18
outer loop
vertex 108.765280488951 47.1690905122495 -0.79375
vertex -3.175 47.1690905122495 2.3847298
vertex 108.765280488951 47.1690905122495 2.3847298
endloop
endfacet
facet normal 1.52493857543905e-18 3.49345089522831e-18 -1.0
outer loop
vertex 108.765280488951 47.1690905122495 -0.79375
vertex -3.175 -3.175 -0.79375
vertex -3.175 47.1690905122495 -0.79375
endloop
endfacet
facet normal 1.52493857543905e-18 3.49345089522831e-18 -1.0
outer loop
vertex -3.175 -3.175 -0.79375
vertex 108.765280488951 47.1690905122495 -0.79375
vertex 108.765280488951 -8.3187799442624e-18 -0.79375
endloop
endfacet
endsolid trigjig2
