solid trigjig
facet normal 0.0 0.0 -1.0
outer loop
vertex 26.7748153285078 0.79375 0.0
vertex 25.4 0.0 0.0
vertex 1.3748153285078 44.7878405122495 0.0
endloop
endfacet
facet normal 0.0 0.0 -1.0
outer loop
vertex -1.3748153285078 44.7878405122495 0.0
vertex -25.4 0.0 0.0
vertex -26.7748153285078 0.79375 0.0
endloop
endfacet
facet normal 0.0 0.0 -1.0
outer loop
vertex -25.4 0.0 0.0
vertex -1.3748153285078 44.7878405122495 0.0
vertex -25.4 -1.5875 0.0
endloop
endfacet
facet normal 0.0 0.0 -1.0
outer loop
vertex -25.4 -1.5875 0.0
vertex -1.3748153285078 44.7878405122495 0.0
vertex 25.4 -1.5875 0.0
endloop
endfacet
facet normal 0.0 0.0 -1.0
outer loop
vertex 25.4 -1.5875 0.0
vertex -1.3748153285078 44.7878405122495 0.0
vertex 0.0 43.9940905122495 0.0
endloop
endfacet
facet normal 0.0 0.0 -1.0
outer loop
vertex 25.4 -1.5875 0.0
vertex 0.0 43.9940905122495 0.0
vertex 1.3748153285078 44.7878405122495 0.0
endloop
endfacet
facet normal 0.0 0.0 -1.0
outer loop
vertex 25.4 -1.5875 0.0
vertex 1.3748153285078 44.7878405122495 0.0
vertex 25.4 0.0 0.0
endloop
endfacet
facet normal -0.0 -0.0 1.0
outer loop
vertex 25.4 -1.5875 3.175
vertex -25.4 0.0 3.175
vertex -25.4 -1.5875 3.175
endloop
endfacet
facet normal -0.0 -0.0 1.0
outer loop
vertex -25.4 0.0 3.175
vertex 25.4 -1.5875 3.175
vertex -1.3748153285078 44.7878405122495 3.175
endloop
endfacet
facet normal -0.0 -0.0 1.0
outer loop
vertex -1.3748153285078 44.7878405122495 3.175
vertex 25.4 -1.5875 3.175
vertex 0.0 43.9940905122495 3.175
endloop
endfacet
facet normal -0.0 -0.0 1.0
outer loop
vertex 0.0 43.9940905122495 3.175
vertex 25.4 -1.5875 3.175
vertex 1.3748153285078 44.7878405122495 3.175
endloop
endfacet
facet normal -0.0 -0.0 1.0
outer loop
vertex 1.3748153285078 44.7878405122495 3.175
vertex 25.4 -1.5875 3.175
vertex 25.4 0.0 3.175
endloop
endfacet
facet normal -0.0 -0.0 1.0
outer loop
vertex 1.3748153285078 44.7878405122495 3.175
vertex 25.4 0.0 3.175
vertex 26.7748153285078 0.79375 3.175
endloop
endfacet
facet normal -0.0 -0.0 1.0
outer loop
vertex -1.3748153285078 44.7878405122495 3.175
vertex -26.7748153285078 0.79375 3.175
vertex -25.4 0.0 3.175
endloop
endfacet
facet normal -0.500000000000001 -0.866025403784438 -1.12354936663119e-16
outer loop
vertex -25.4 0.0 0.0
vertex -26.4189869379911 0.588312382949874 0.0540927507661041
vertex -26.7748153285078 0.79375 0.0
endloop
endfacet
facet normal -0.500000000000001 -0.866025403784438 -1.12354936663119e-16
outer loop
vertex -26.4189869379911 0.588312382949874 0.0540927507661041
vertex -25.4 0.0 0.0
vertex -26.0874076642539 0.396875 0.212684671492204
endloop
endfacet
facet normal -0.500000000000001 -0.866025403784438 -1.12354936663119e-16
outer loop
vertex -26.0874076642539 0.396875 0.212684671492204
vertex -25.4 0.0 0.0
vertex -25.8026740868407 0.232483992433177 0.464967984866356
endloop
endfacet
facet normal -0.500000000000001 -0.866025403784438 -1.12354936663119e-16
outer loop
vertex -25.8026740868407 0.232483992433177 0.464967984866356
vertex -25.4 0.0 0.0
vertex -25.5841903285078 0.106342335746101 0.79375
endloop
endfacet
facet normal -0.500000000000001 -0.866025403784438 -1.12354936663119e-16
outer loop
vertex -25.5841903285078 0.106342335746101 0.79375
vertex -25.4 0.0 0.0
vertex -25.446845696324 0.0270463753830511 1.17662476589975
endloop
endfacet
facet normal -0.500000000000001 -0.866025403784438 -1.12354936663119e-16
outer loop
vertex -25.446845696324 0.0270463753830511 1.17662476589975
vertex -25.4 0.0 0.0
vertex -25.4 -8.81239525796218e-16 1.5875
endloop
endfacet
facet normal -0.500000000000001 -0.866025403784438 0.0
outer loop
vertex -25.4 0.0 3.175
vertex -25.446845696324 0.0270463753830512 1.99837523410025
vertex -25.4 -8.81239525796218e-16 1.5875
endloop
endfacet
facet normal -0.500000000000001 -0.866025403784438 0.0
outer loop
vertex -25.446845696324 0.0270463753830512 1.99837523410025
vertex -25.4 0.0 3.175
vertex -25.5841903285078 0.106342335746101 2.38125
endloop
endfacet
facet normal -0.500000000000001 -0.866025403784438 0.0
outer loop
vertex -25.5841903285078 0.106342335746101 2.38125
vertex -25.4 0.0 3.175
vertex -25.8026740868407 0.232483992433177 2.71003201513364
endloop
endfacet
facet normal -0.500000000000001 -0.866025403784438 0.0
outer loop
vertex -25.8026740868407 0.232483992433177 2.71003201513364
vertex -25.4 0.0 3.175
vertex -26.0874076642539 0.396875 2.9623153285078
endloop
endfacet
facet normal -0.500000000000001 -0.866025403784438 0.0
outer loop
vertex -26.0874076642539 0.396875 2.9623153285078
vertex -25.4 0.0 3.175
vertex -26.4189869379911 0.588312382949874 3.1209072492339
endloop
endfacet
facet normal -0.500000000000001 -0.866025403784438 0.0
outer loop
vertex -26.4189869379911 0.588312382949874 3.1209072492339
vertex -25.4 0.0 3.175
vertex -26.7748153285078 0.79375 3.175
endloop
endfacet
facet normal -1.0 2.88572044133831e-16 1.56728961575407e-15
outer loop
vertex -25.4 -1.17662476589975 0.0540927507661041
vertex -25.4 0.0 0.0
vertex -25.4 -1.5875 0.0
endloop
endfacet
facet normal -1.0 2.88572044133831e-16 1.56728961575407e-15
outer loop
vertex -25.4 0.0 0.0
vertex -25.4 -1.17662476589975 0.0540927507661041
vertex -25.4 -0.79375 0.212684671492204
endloop
endfacet
facet normal -1.0 2.88572044133831e-16 1.56728961575407e-15
outer loop
vertex -25.4 0.0 0.0
vertex -25.4 -0.79375 0.212684671492204
vertex -25.4 -0.464967984866356 0.464967984866356
endloop
endfacet
facet normal -1.0 2.88572044133831e-16 1.56728961575407e-15
outer loop
vertex -25.4 0.0 0.0
vertex -25.4 -0.464967984866356 0.464967984866356
vertex -25.4 -0.212684671492203 0.79375
endloop
endfacet
facet normal -1.0 2.88572044133831e-16 1.56728961575407e-15
outer loop
vertex -25.4 0.0 0.0
vertex -25.4 -0.212684671492203 0.79375
vertex -25.4 -0.0540927507661039 1.17662476589975
endloop
endfacet
facet normal -1.0 2.88572044133831e-16 1.56728961575407e-15
outer loop
vertex -25.4 0.0 0.0
vertex -25.4 -0.0540927507661039 1.17662476589975
vertex -25.4 -8.81239525796218e-16 1.5875
endloop
endfacet
facet normal -1.0 2.88572044133832e-16 -1.56728961575407e-15
outer loop
vertex -25.4 0.0 3.175
vertex -25.4 -1.17662476589975 3.1209072492339
vertex -25.4 -1.5875 3.175
endloop
endfacet
facet normal -1.0 2.88572044133832e-16 -1.56728961575407e-15
outer loop
vertex -25.4 -1.17662476589975 3.1209072492339
vertex -25.4 0.0 3.175
vertex -25.4 -0.79375 2.9623153285078
endloop
endfacet
facet normal -1.0 2.88572044133832e-16 -1.56728961575407e-15
outer loop
vertex -25.4 -0.79375 2.9623153285078
vertex -25.4 0.0 3.175
vertex -25.4 -0.464967984866356 2.71003201513364
endloop
endfacet
facet normal -1.0 2.88572044133832e-16 -1.56728961575407e-15
outer loop
vertex -25.4 -0.464967984866356 2.71003201513364
vertex -25.4 0.0 3.175
vertex -25.4 -0.212684671492204 2.38125
endloop
endfacet
facet normal -1.0 2.88572044133832e-16 -1.56728961575407e-15
outer loop
vertex -25.4 -0.212684671492204 2.38125
vertex -25.4 0.0 3.175
vertex -25.4 -0.0540927507661042 1.99837523410025
endloop
endfacet
facet normal -1.0 2.88572044133832e-16 -1.56728961575407e-15
outer loop
vertex -25.4 -0.0540927507661042 1.99837523410025
vertex -25.4 0.0 3.175
vertex -25.4 -8.81239525796218e-16 1.5875
endloop
endfacet
facet normal -3.80397107788309e-17 -0.130526192220057 -0.99144486137381
outer loop
vertex 25.4 -1.17662476589978 3.1209072492339
vertex -25.4 -1.5875 3.175
vertex -25.4 -1.17662476589975 3.1209072492339
endloop
endfacet
facet normal -3.80397107788309e-17 -0.130526192220057 -0.99144486137381
outer loop
vertex -25.4 -1.5875 3.175
vertex 25.4 -1.17662476589978 3.1209072492339
vertex 25.4 -1.5875 3.175
endloop
endfacet
facet normal -2.26594110802296e-16 -0.382683432365089 -0.923879532511287
outer loop
vertex -25.4 -0.79375 2.9623153285078
vertex 25.4 -1.17662476589978 3.1209072492339
vertex -25.4 -1.17662476589975 3.1209072492339
endloop
endfacet
facet normal -2.26594110802296e-16 -0.382683432365089 -0.923879532511287
outer loop
vertex 25.4 -1.17662476589978 3.1209072492339
vertex -25.4 -0.79375 2.9623153285078
vertex 25.4 -0.79375000000003 2.9623153285078
endloop
endfacet
facet normal -3.60459175994237e-16 -0.608761429008721 -0.793353340291235
outer loop
vertex 25.4 -0.464967984866386 2.71003201513364
vertex -25.4 -0.79375 2.9623153285078
vertex -25.4 -0.464967984866356 2.71003201513364
endloop
endfacet
facet normal -3.60459175994237e-16 -0.608761429008721 -0.793353340291235
outer loop
vertex -25.4 -0.79375 2.9623153285078
vertex 25.4 -0.464967984866386 2.71003201513364
vertex 25.4 -0.79375000000003 2.9623153285078
endloop
endfacet
facet normal -4.69759544029123e-16 -0.793353340291235 -0.608761429008721
outer loop
vertex 25.4 -0.464967984866386 2.71003201513364
vertex -25.4 -0.212684671492204 2.38125
vertex 25.4 -0.212684671492234 2.38125
endloop
endfacet
facet normal -4.69759544029123e-16 -0.793353340291235 -0.608761429008721
outer loop
vertex -25.4 -0.212684671492204 2.38125
vertex 25.4 -0.464967984866386 2.71003201513364
vertex -25.4 -0.464967984866356 2.71003201513364
endloop
endfacet
facet normal -5.47046575452776e-16 -0.923879532511287 -0.38268343236509
outer loop
vertex 25.4 -0.212684671492234 2.38125
vertex -25.4 -0.0540927507661042 1.99837523410025
vertex 25.4 -0.0540927507661343 1.99837523410025
endloop
endfacet
facet normal -5.47046575452776e-16 -0.923879532511287 -0.38268343236509
outer loop
vertex -25.4 -0.0540927507661042 1.99837523410025
vertex 25.4 -0.212684671492234 2.38125
vertex -25.4 -0.212684671492204 2.38125
endloop
endfacet
facet normal -5.87071202241077e-16 -0.991444861373811 -0.13052619222005
outer loop
vertex 25.4 -0.0540927507661343 1.99837523410025
vertex -25.4 -8.81239525796218e-16 1.5875
vertex 25.4 -3.09608820063071e-14 1.5875
endloop
endfacet
facet normal -5.87071202241077e-16 -0.991444861373811 -0.13052619222005
outer loop
vertex -25.4 -8.81239525796218e-16 1.5875
vertex 25.4 -0.0540927507661343 1.99837523410025
vertex -25.4 -0.0540927507661042 1.99837523410025
endloop
endfacet
facet normal -5.87071202241077e-16 -0.991444861373811 0.130526192220049
outer loop
vertex 25.4 -3.09608820063071e-14 1.5875
vertex -25.4 -0.0540927507661039 1.17662476589975
vertex 25.4 -0.054092750766134 1.17662476589975
endloop
endfacet
facet normal -5.87071202241077e-16 -0.991444861373811 0.130526192220049
outer loop
vertex -25.4 -0.0540927507661039 1.17662476589975
vertex 25.4 -3.09608820063071e-14 1.5875
vertex -25.4 -8.81239525796218e-16 1.5875
endloop
endfacet
facet normal -5.47046575452776e-16 -0.923879532511287 0.382683432365089
outer loop
vertex 25.4 -0.054092750766134 1.17662476589975
vertex -25.4 -0.212684671492203 0.79375
vertex 25.4 -0.212684671492233 0.79375
endloop
endfacet
facet normal -5.47046575452776e-16 -0.923879532511287 0.382683432365089
outer loop
vertex -25.4 -0.212684671492203 0.79375
vertex 25.4 -0.054092750766134 1.17662476589975
vertex -25.4 -0.0540927507661039 1.17662476589975
endloop
endfacet
facet normal -4.69759544029123e-16 -0.793353340291235 0.608761429008721
outer loop
vertex 25.4 -0.212684671492233 0.79375
vertex -25.4 -0.464967984866356 0.464967984866356
vertex 25.4 -0.464967984866386 0.464967984866356
endloop
endfacet
facet normal -4.69759544029123e-16 -0.793353340291235 0.608761429008721
outer loop
vertex -25.4 -0.464967984866356 0.464967984866356
vertex 25.4 -0.212684671492233 0.79375
vertex -25.4 -0.212684671492203 0.79375
endloop
endfacet
facet normal -3.60459175994237e-16 -0.608761429008721 0.793353340291235
outer loop
vertex 25.4 -0.79375000000003 0.212684671492204
vertex -25.4 -0.464967984866356 0.464967984866356
vertex -25.4 -0.79375 0.212684671492204
endloop
endfacet
facet normal -3.60459175994237e-16 -0.608761429008721 0.793353340291235
outer loop
vertex -25.4 -0.464967984866356 0.464967984866356
vertex 25.4 -0.79375000000003 0.212684671492204
vertex 25.4 -0.464967984866386 0.464967984866356
endloop
endfacet
facet normal -2.26594110802296e-16 -0.382683432365089 0.923879532511287
outer loop
vertex 25.4 -1.17662476589978 0.0540927507661041
vertex -25.4 -0.79375 0.212684671492204
vertex -25.4 -1.17662476589975 0.0540927507661041
endloop
endfacet
facet normal -2.26594110802296e-16 -0.382683432365089 0.923879532511287
outer loop
vertex -25.4 -0.79375 0.212684671492204
vertex 25.4 -1.17662476589978 0.0540927507661041
vertex 25.4 -0.79375000000003 0.212684671492204
endloop
endfacet
facet normal -3.80397107788308e-17 -0.130526192220056 0.99144486137381
outer loop
vertex 25.4 -1.5875 0.0
vertex -25.4 -1.17662476589975 0.0540927507661041
vertex -25.4 -1.5875 0.0
endloop
endfacet
facet normal -3.80397107788308e-17 -0.130526192220056 0.99144486137381
outer loop
vertex -25.4 -1.17662476589975 0.0540927507661041
vertex 25.4 -1.5875 0.0
vertex 25.4 -1.17662476589978 0.0540927507661041
endloop
endfacet
facet normal -0.800103145191267 0.461939766255645 -0.382683432365085
outer loop
vertex -25.5841903285078 0.106342335746101 2.38125
vertex -0.0468456963239843 44.0211368876325 1.99837523410025
vertex -25.446845696324 0.0270463753830512 1.99837523410025
endloop
endfacet
facet normal -0.800103145191267 0.461939766255645 -0.382683432365085
outer loop
vertex -0.0468456963239843 44.0211368876325 1.99837523410025
vertex -25.5841903285078 0.106342335746101 2.38125
vertex -0.184190328507752 44.1004328479956 2.38125
endloop
endfacet
facet normal -0.687064146869447 0.396676670145617 -0.608761429008724
outer loop
vertex -25.8026740868407 0.232483992433177 2.71003201513364
vertex -0.184190328507752 44.1004328479956 2.38125
vertex -25.5841903285078 0.106342335746101 2.38125
endloop
endfacet
facet normal -0.687064146869447 0.396676670145617 -0.608761429008724
outer loop
vertex -0.184190328507752 44.1004328479956 2.38125
vertex -25.8026740868407 0.232483992433177 2.71003201513364
vertex -0.40267408684068 44.2265745046827 2.71003201513364
endloop
endfacet
facet normal -0.527202862365673 0.304380714504363 -0.793353340291231
outer loop
vertex -0.687407664253849 44.3909655122495 2.9623153285078
vertex -25.8026740868407 0.232483992433177 2.71003201513364
vertex -26.0874076642539 0.396875 2.9623153285078
endloop
endfacet
facet normal -0.527202862365673 0.304380714504363 -0.793353340291231
outer loop
vertex -25.8026740868407 0.232483992433177 2.71003201513364
vertex -0.687407664253849 44.3909655122495 2.9623153285078
vertex -0.40267408684068 44.2265745046827 2.71003201513364
endloop
endfacet
facet normal -0.331413574035589 0.191341716182544 -0.923879532511288
outer loop
vertex -1.01898693799105 44.5824028951993 3.1209072492339
vertex -26.0874076642539 0.396875 2.9623153285078
vertex -26.4189869379911 0.588312382949874 3.1209072492339
endloop
endfacet
facet normal -0.331413574035589 0.191341716182544 -0.923879532511288
outer loop
vertex -26.0874076642539 0.396875 2.9623153285078
vertex -1.01898693799105 44.5824028951993 3.1209072492339
vertex -0.687407664253849 44.3909655122495 2.9623153285078
endloop
endfacet
facet normal -0.113038998321807 0.0652630961100209 -0.991444861373812
outer loop
vertex -1.3748153285078 44.7878405122495 3.175
vertex -26.4189869379911 0.588312382949874 3.1209072492339
vertex -26.7748153285078 0.79375 3.175
endloop
endfacet
facet normal -0.113038998321807 0.0652630961100209 -0.991444861373812
outer loop
vertex -26.4189869379911 0.588312382949874 3.1209072492339
vertex -1.3748153285078 44.7878405122495 3.175
vertex -1.01898693799105 44.5824028951993 3.1209072492339
endloop
endfacet
facet normal -0.113038998321712 0.0652630961099663 0.991444861373826
outer loop
vertex -26.4189869379911 0.588312382949874 0.0540927507661041
vertex -1.3748153285078 44.7878405122495 0.0
vertex -26.7748153285078 0.79375 0.0
endloop
endfacet
facet normal -0.113038998321712 0.0652630961099663 0.991444861373826
outer loop
vertex -1.3748153285078 44.7878405122495 0.0
vertex -26.4189869379911 0.588312382949874 0.0540927507661041
vertex -1.01898693799105 44.5824028951993 0.054092750766104
endloop
endfacet
facet normal -0.33141357403559 0.191341716182544 0.923879532511288
outer loop
vertex -26.0874076642539 0.396875 0.212684671492204
vertex -1.01898693799105 44.5824028951993 0.054092750766104
vertex -26.4189869379911 0.588312382949874 0.0540927507661041
endloop
endfacet
facet normal -0.33141357403559 0.191341716182544 0.923879532511288
outer loop
vertex -1.01898693799105 44.5824028951993 0.054092750766104
vertex -26.0874076642539 0.396875 0.212684671492204
vertex -0.687407664253849 44.3909655122495 0.212684671492204
endloop
endfacet
facet normal -0.527202862365673 0.304380714504363 0.793353340291232
outer loop
vertex -25.8026740868407 0.232483992433177 0.464967984866356
vertex -0.687407664253849 44.3909655122495 0.212684671492204
vertex -26.0874076642539 0.396875 0.212684671492204
endloop
endfacet
facet normal -0.527202862365673 0.304380714504363 0.793353340291232
outer loop
vertex -0.687407664253849 44.3909655122495 0.212684671492204
vertex -25.8026740868407 0.232483992433177 0.464967984866356
vertex -0.40267408684068 44.2265745046827 0.464967984866356
endloop
endfacet
facet normal -0.687064146869448 0.396676670145617 0.608761429008724
outer loop
vertex -0.184190328507752 44.1004328479956 0.79375
vertex -25.8026740868407 0.232483992433177 0.464967984866356
vertex -25.5841903285078 0.106342335746101 0.79375
endloop
endfacet
facet normal -0.687064146869448 0.396676670145617 0.608761429008724
outer loop
vertex -25.8026740868407 0.232483992433177 0.464967984866356
vertex -0.184190328507752 44.1004328479956 0.79375
vertex -0.40267408684068 44.2265745046827 0.464967984866356
endloop
endfacet
facet normal -0.800103145191267 0.461939766255645 0.382683432365084
outer loop
vertex -0.0468456963239843 44.0211368876325 1.17662476589975
vertex -25.5841903285078 0.106342335746101 0.79375
vertex -25.446845696324 0.0270463753830511 1.17662476589975
endloop
endfacet
facet normal -0.800103145191267 0.461939766255645 0.382683432365084
outer loop
vertex -25.5841903285078 0.106342335746101 0.79375
vertex -0.0468456963239843 44.0211368876325 1.17662476589975
vertex -0.184190328507752 44.1004328479956 0.79375
endloop
endfacet
facet normal -0.85861643640126 0.495722430686906 0.130526192220053
outer loop
vertex 4.57363313888237e-14 43.9940905122495 1.5875
vertex -25.446845696324 0.0270463753830511 1.17662476589975
vertex -25.4 -8.81239525796218e-16 1.5875
endloop
endfacet
facet normal -0.85861643640126 0.495722430686906 0.130526192220053
outer loop
vertex -25.446845696324 0.0270463753830511 1.17662476589975
vertex 4.57363313888237e-14 43.9940905122495 1.5875
vertex -0.0468456963239843 44.0211368876325 1.17662476589975
endloop
endfacet
facet normal -0.85861643640126 0.495722430686906 -0.130526192220053
outer loop
vertex -25.446845696324 0.0270463753830512 1.99837523410025
vertex 4.57363313888237e-14 43.9940905122495 1.5875
vertex -25.4 -8.81239525796218e-16 1.5875
endloop
endfacet
facet normal -0.85861643640126 0.495722430686906 -0.130526192220053
outer loop
vertex 4.57363313888237e-14 43.9940905122495 1.5875
vertex -25.446845696324 0.0270463753830512 1.99837523410025
vertex -0.0468456963239843 44.0211368876325 1.99837523410025
endloop
endfacet
facet normal -0.5 0.866025403784438 2.61787002425064e-14
outer loop
vertex 0.0 43.9940905122495 0.0
vertex 1.01898693799111 44.5824028951994 0.0540927507661041
vertex 1.3748153285078 44.7878405122495 0.0
endloop
endfacet
facet normal -0.5 0.866025403784438 2.61787002425064e-14
outer loop
vertex 1.01898693799111 44.5824028951994 0.0540927507661041
vertex 0.0 43.9940905122495 0.0
vertex 0.687407664253909 44.3909655122495 0.212684671492204
endloop
endfacet
facet normal -0.5 0.866025403784438 2.61787002425064e-14
outer loop
vertex 0.687407664253909 44.3909655122495 0.212684671492204
vertex 0.0 43.9940905122495 0.0
vertex 0.402674086840738 44.2265745046826 0.464967984866356
endloop
endfacet
facet normal -0.5 0.866025403784438 2.61787002425064e-14
outer loop
vertex 0.402674086840738 44.2265745046826 0.464967984866356
vertex 0.0 43.9940905122495 0.0
vertex 0.184190328507814 44.1004328479956 0.79375
endloop
endfacet
facet normal -0.5 0.866025403784438 2.61787002425064e-14
outer loop
vertex 0.184190328507814 44.1004328479956 0.79375
vertex 0.0 43.9940905122495 0.0
vertex 0.0468456963240466 44.0211368876325 1.17662476589975
endloop
endfacet
facet normal -0.5 0.866025403784438 2.61787002425064e-14
outer loop
vertex 0.0468456963240466 44.0211368876325 1.17662476589975
vertex 0.0 43.9940905122495 0.0
vertex 4.57363313888237e-14 43.9940905122495 1.5875
endloop
endfacet
facet normal -0.500000000000001 0.866025403784438 -2.61225227741749e-14
outer loop
vertex 0.0 43.9940905122495 3.175
vertex 0.0468456963240468 44.0211368876325 1.99837523410025
vertex 4.57363313888237e-14 43.9940905122495 1.5875
endloop
endfacet
facet normal -0.500000000000001 0.866025403784438 -2.61225227741749e-14
outer loop
vertex 0.0468456963240468 44.0211368876325 1.99837523410025
vertex 0.0 43.9940905122495 3.175
vertex 0.184190328507815 44.1004328479956 2.38125
endloop
endfacet
facet normal -0.500000000000001 0.866025403784438 -2.61225227741749e-14
outer loop
vertex 0.184190328507815 44.1004328479956 2.38125
vertex 0.0 43.9940905122495 3.175
vertex 0.402674086840738 44.2265745046826 2.71003201513364
endloop
endfacet
facet normal -0.500000000000001 0.866025403784438 -2.61225227741749e-14
outer loop
vertex 0.402674086840738 44.2265745046826 2.71003201513364
vertex 0.0 43.9940905122495 3.175
vertex 0.687407664253909 44.3909655122495 2.9623153285078
endloop
endfacet
facet normal -0.500000000000001 0.866025403784438 -2.61225227741749e-14
outer loop
vertex 0.687407664253909 44.3909655122495 2.9623153285078
vertex 0.0 43.9940905122495 3.175
vertex 1.01898693799111 44.5824028951994 3.1209072492339
endloop
endfacet
facet normal -0.500000000000001 0.866025403784438 -2.61225227741749e-14
outer loop
vertex 1.01898693799111 44.5824028951994 3.1209072492339
vertex 0.0 43.9940905122495 3.175
vertex 1.3748153285078 44.7878405122495 3.175
endloop
endfacet
facet normal 0.113038998321805 0.0652630961100205 0.991444861373812
outer loop
vertex 26.4099318379915 0.603996276217718 0.0540927507661034
vertex 1.3748153285078 44.7878405122495 0.0
vertex 1.01898693799111 44.5824028951994 0.0540927507661041
endloop
endfacet
facet normal 0.113038998321805 0.0652630961100205 0.991444861373812
outer loop
vertex 1.3748153285078 44.7878405122495 0.0
vertex 26.4099318379915 0.603996276217718 0.0540927507661034
vertex 26.7748153285078 0.79375 0.0
endloop
endfacet
facet normal 0.331413574035591 0.191341716182548 0.923879532511287
outer loop
vertex 26.0783525642543 0.412558893267831 0.212684671492203
vertex 1.01898693799111 44.5824028951994 0.0540927507661041
vertex 0.687407664253909 44.3909655122495 0.212684671492204
endloop
endfacet
facet normal 0.331413574035591 0.191341716182548 0.923879532511287
outer loop
vertex 1.01898693799111 44.5824028951994 0.0540927507661041
vertex 26.0783525642543 0.412558893267831 0.212684671492203
vertex 26.4099318379915 0.603996276217718 0.0540927507661034
endloop
endfacet
facet normal 0.527202862365665 0.304380714504364 0.793353340291236
outer loop
vertex 25.7936189868411 0.248167885701005 0.464967984866355
vertex 0.687407664253909 44.3909655122495 0.212684671492204
vertex 0.402674086840738 44.2265745046826 0.464967984866356
endloop
endfacet
facet normal 0.527202862365665 0.304380714504364 0.793353340291236
outer loop
vertex 0.687407664253909 44.3909655122495 0.212684671492204
vertex 25.7936189868411 0.248167885701005 0.464967984866355
vertex 26.0783525642543 0.412558893267831 0.212684671492203
endloop
endfacet
facet normal 0.687064146869448 0.396676670145624 0.608761429008718
outer loop
vertex 25.7936189868411 0.248167885701005 0.464967984866355
vertex 0.184190328507814 44.1004328479956 0.79375
vertex 25.5751352285082 0.122026229013925 0.79375
endloop
endfacet
facet normal 0.687064146869448 0.396676670145624 0.608761429008718
outer loop
vertex 0.184190328507814 44.1004328479956 0.79375
vertex 25.7936189868411 0.248167885701005 0.464967984866355
vertex 0.402674086840738 44.2265745046826 0.464967984866356
endloop
endfacet
facet normal 0.80010314519126 0.46193976625565 0.382683432365093
outer loop
vertex 25.5751352285082 0.122026229013925 0.79375
vertex 0.0468456963240466 44.0211368876325 1.17662476589975
vertex 25.4377905963244 0.0427302686508625 1.17662476589975
endloop
endfacet
facet normal 0.80010314519126 0.46193976625565 0.382683432365093
outer loop
vertex 0.0468456963240466 44.0211368876325 1.17662476589975
vertex 25.5751352285082 0.122026229013925 0.79375
vertex 0.184190328507814 44.1004328479956 0.79375
endloop
endfacet
facet normal 0.8586164364012 0.495722430686875 0.130526192220567
outer loop
vertex 25.4377905963244 0.0427302686508625 1.17662476589975
vertex 4.57363313888237e-14 43.9940905122495 1.5875
vertex 25.4 -3.09608820063071e-14 1.5875
endloop
endfacet
facet normal 0.8586164364012 0.495722430686875 0.130526192220567
outer loop
vertex 4.57363313888237e-14 43.9940905122495 1.5875
vertex 25.4377905963244 0.0427302686508625 1.17662476589975
vertex 0.0468456963240466 44.0211368876325 1.17662476589975
endloop
endfacet
facet normal 0.8586164364012 0.495722430686875 -0.130526192220567
outer loop
vertex 4.57363313888237e-14 43.9940905122495 1.5875
vertex 25.4377905963244 0.0427302686508625 1.99837523410025
vertex 25.4 -3.09608820063071e-14 1.5875
endloop
endfacet
facet normal 0.8586164364012 0.495722430686875 -0.130526192220567
outer loop
vertex 25.4377905963244 0.0427302686508625 1.99837523410025
vertex 4.57363313888237e-14 43.9940905122495 1.5875
vertex 0.0468456963240468 44.0211368876325 1.99837523410025
endloop
endfacet
facet normal 0.80010314519126 0.46193976625565 -0.382683432365094
outer loop
vertex 0.0468456963240468 44.0211368876325 1.99837523410025
vertex 25.5751352285082 0.122026229013925 2.38125
vertex 25.4377905963244 0.0427302686508625 1.99837523410025
endloop
endfacet
facet normal 0.80010314519126 0.46193976625565 -0.382683432365094
outer loop
vertex 25.5751352285082 0.122026229013925 2.38125
vertex 0.0468456963240468 44.0211368876325 1.99837523410025
vertex 0.184190328507815 44.1004328479956 2.38125
endloop
endfacet
facet normal 0.687064146869448 0.396676670145625 -0.608761429008719
outer loop
vertex 0.184190328507815 44.1004328479956 2.38125
vertex 25.7936189868411 0.248167885701005 2.71003201513364
vertex 25.5751352285082 0.122026229013925 2.38125
endloop
endfacet
facet normal 0.687064146869448 0.396676670145625 -0.608761429008719
outer loop
vertex 25.7936189868411 0.248167885701005 2.71003201513364
vertex 0.184190328507815 44.1004328479956 2.38125
vertex 0.402674086840738 44.2265745046826 2.71003201513364
endloop
endfacet
facet normal 0.527202862365666 0.304380714504364 -0.793353340291236
outer loop
vertex 0.687407664253909 44.3909655122495 2.9623153285078
vertex 25.7936189868411 0.248167885701005 2.71003201513364
vertex 0.402674086840738 44.2265745046826 2.71003201513364
endloop
endfacet
facet normal 0.527202862365666 0.304380714504364 -0.793353340291236
outer loop
vertex 25.7936189868411 0.248167885701005 2.71003201513364
vertex 0.687407664253909 44.3909655122495 2.9623153285078
vertex 26.0783525642543 0.412558893267831 2.9623153285078
endloop
endfacet
facet normal 0.33141357403559 0.191341716182548 -0.923879532511287
outer loop
vertex 1.01898693799111 44.5824028951994 3.1209072492339
vertex 26.0783525642543 0.412558893267831 2.9623153285078
vertex 0.687407664253909 44.3909655122495 2.9623153285078
endloop
endfacet
facet normal 0.33141357403559 0.191341716182548 -0.923879532511287
outer loop
vertex 26.0783525642543 0.412558893267831 2.9623153285078
vertex 1.01898693799111 44.5824028951994 3.1209072492339
vertex 26.4099318379915 0.603996276217718 3.12090724923389
endloop
endfacet
facet normal 0.113038998321855 0.065263096110049 -0.991444861373804
outer loop
vertex 1.3748153285078 44.7878405122495 3.175
vertex 26.4099318379915 0.603996276217718 3.12090724923389
vertex 1.01898693799111 44.5824028951994 3.1209072492339
endloop
endfacet
facet normal 0.113038998321855 0.065263096110049 -0.991444861373804
outer loop
vertex 26.4099318379915 0.603996276217718 3.12090724923389
vertex 1.3748153285078 44.7878405122495 3.175
vertex 26.7748153285078 0.79375 3.175
endloop
endfacet
endsolid trigjig
