solid bracket
facet normal 1.0 0.0 0.0
  outer loop
    vertex 22.224999999999998 -1.4099832412739487e-15 -12.7
    vertex 22.224999999999998 -6.349999999999997 0.0
    vertex 22.224999999999998 -6.349999999999997 -12.7
  endloop
endfacet
facet normal 1.0 0.0 0.0
  outer loop
    vertex 22.224999999999998 -6.349999999999997 0.0
    vertex 22.224999999999998 -1.4099832412739487e-15 -12.7
    vertex 22.224999999999998 -1.4099832412739487e-15 0.0
  endloop
endfacet
facet normal 0.25881904510252085 -0.9659258262890684 0.0
  outer loop
    vertex 7.059748595398487 9.200443495403373 0.0
    vertex 4.762499999999999 8.248891971046778 -12.7
    vertex 7.059748595398487 9.200443495403373 -12.7
  endloop
endfacet
facet normal 0.5000000000000001 -0.8660254037844388 0.0
  outer loop
    vertex 4.762499999999999 8.248891971046778 -12.7
    vertex 7.059748595398487 9.200443495403373 0.0
    vertex 4.762499999999999 8.248891971046778 0.0
  endloop
endfacet
facet normal -0.2588190451025208 0.9659258262890684 0.0
  outer loop
    vertex 6.23799812719798 12.267257993871167 0.0
    vertex 9.524999999999993 12.7 -12.7
    vertex 6.23799812719798 12.267257993871167 -12.7
  endloop
endfacet
facet normal -3.920888354084638e-16 1.0 0.0
  outer loop
    vertex 9.524999999999993 12.7 -12.7
    vertex 6.23799812719798 12.267257993871167 0.0
    vertex 9.524999999999993 12.7 0.0
  endloop
endfacet
facet normal 0.7071067811865474 0.7071067811865477 0.0
  outer loop
    vertex 18.505256121069152 8.980256121069155 -12.7
    vertex 20.523522628062373 6.350000000000002 0.0
    vertex 20.523522628062373 6.350000000000002 -12.7
  endloop
endfacet
facet normal 0.8660254037844389 0.4999999999999997 0.0
  outer loop
    vertex 20.523522628062373 6.350000000000002 0.0
    vertex 18.505256121069152 8.980256121069155 -12.7
    vertex 18.505256121069152 8.980256121069155 0.0
  endloop
endfacet
facet normal -0.7071067811865475 -0.7071067811865476 0.0
  outer loop
    vertex 16.260192090801862 6.735192090801865 0.0
    vertex 14.2875 8.248891971046781 -12.7
    vertex 16.260192090801862 6.735192090801865 -12.7
  endloop
endfacet
facet normal -0.49999999999999983 -0.8660254037844388 0.0
  outer loop
    vertex 14.2875 8.248891971046781 -12.7
    vertex 16.260192090801862 6.735192090801865 0.0
    vertex 14.2875 8.248891971046781 0.0
  endloop
endfacet
facet normal -0.9659258262890684 -0.25881904510252063 0.0
  outer loop
    vertex 18.725443495403375 2.4652514046015086 0.0
    vertex 19.049999999999997 -2.8199664825478975e-15 -12.7
    vertex 19.049999999999997 -2.8199664825478975e-15 0.0
  endloop
endfacet
facet normal -0.9914448613738105 -0.13052619222005127 -0.0
  outer loop
    vertex 19.049999999999997 -2.8199664825478975e-15 -12.7
    vertex 18.725443495403375 2.4652514046015086 0.0
    vertex 18.725443495403375 2.4652514046015086 -12.7
  endloop
endfacet
facet normal -1.0 0.0 0.0
  outer loop
    vertex -3.175 0.0 0.0
    vertex -3.175 -6.349999999999997 -12.7
    vertex -3.175 -6.349999999999997 0.0
  endloop
endfacet
facet normal -1.0 0.0 0.0
  outer loop
    vertex -3.175 -6.349999999999997 -12.7
    vertex -3.175 0.0 0.0
    vertex -3.175 0.0 -12.7
  endloop
endfacet
facet normal -1.0 0.0 0.0
  outer loop
    vertex 19.049999999999997 -2.8199664825478975e-15 0.0
    vertex 19.049999999999997 -9.524999999999997 -12.7
    vertex 19.049999999999997 -9.524999999999997 0.0
  endloop
endfacet
facet normal -1.0 0.0 0.0
  outer loop
    vertex 19.049999999999997 -9.524999999999997 -12.7
    vertex 19.049999999999997 -2.8199664825478975e-15 0.0
    vertex 19.049999999999997 -2.8199664825478975e-15 -12.7
  endloop
endfacet
facet normal 0.5000000000000001 -0.8660254037844388 0.0
  outer loop
    vertex 4.762499999999999 8.248891971046778 0.0
    vertex 2.789807909198134 6.735192090801865 -12.7
    vertex 4.762499999999999 8.248891971046778 -12.7
  endloop
endfacet
facet normal 0.7071067811865477 -0.7071067811865475 0.0
  outer loop
    vertex 2.789807909198134 6.735192090801865 -12.7
    vertex 4.762499999999999 8.248891971046778 0.0
    vertex 2.789807909198134 6.735192090801865 0.0
  endloop
endfacet
facet normal -0.0 -1.0 -0.0
  outer loop
    vertex 34.925 -9.524999999999997 0.0
    vertex 19.049999999999997 -9.524999999999997 -12.7
    vertex 34.925 -9.524999999999997 -12.7
  endloop
endfacet
facet normal -0.0 -1.0 -0.0
  outer loop
    vertex 19.049999999999997 -9.524999999999997 -12.7
    vertex 34.925 -9.524999999999997 0.0
    vertex 19.049999999999997 -9.524999999999997 0.0
  endloop
endfacet
facet normal 0.2588190451025201 0.9659258262890684 0.0
  outer loop
    vertex 12.812001872802007 12.267257993871167 0.0
    vertex 15.875 10.998522628062375 -12.7
    vertex 12.812001872802007 12.267257993871167 -12.7
  endloop
endfacet
facet normal 0.4999999999999997 0.8660254037844389 0.0
  outer loop
    vertex 15.875 10.998522628062375 -12.7
    vertex 12.812001872802007 12.267257993871167 0.0
    vertex 15.875 10.998522628062375 0.0
  endloop
endfacet
facet normal 0.0 1.0 0.0
  outer loop
    vertex -15.875 -6.349999999999997 0.0
    vertex -3.175 -6.349999999999997 -12.7
    vertex -15.875 -6.349999999999997 -12.7
  endloop
endfacet
facet normal 0.0 1.0 0.0
  outer loop
    vertex -3.175 -6.349999999999997 -12.7
    vertex -15.875 -6.349999999999997 0.0
    vertex -3.175 -6.349999999999997 0.0
  endloop
endfacet
facet normal -0.7071067811865477 0.7071067811865474 0.0
  outer loop
    vertex 0.5447438789308444 8.980256121069152 0.0
    vertex 3.174999999999997 10.99852262806237 -12.7
    vertex 0.5447438789308444 8.980256121069152 -12.7
  endloop
endfacet
facet normal -0.5000000000000003 0.8660254037844387 0.0
  outer loop
    vertex 3.174999999999997 10.99852262806237 -12.7
    vertex 0.5447438789308444 8.980256121069152 0.0
    vertex 3.174999999999997 10.99852262806237 0.0
  endloop
endfacet
facet normal -0.5000000000000003 0.8660254037844387 0.0
  outer loop
    vertex 3.174999999999997 10.99852262806237 0.0
    vertex 6.23799812719798 12.267257993871167 -12.7
    vertex 3.174999999999997 10.99852262806237 -12.7
  endloop
endfacet
facet normal -0.2588190451025208 0.9659258262890684 0.0
  outer loop
    vertex 6.23799812719798 12.267257993871167 -12.7
    vertex 3.174999999999997 10.99852262806237 0.0
    vertex 6.23799812719798 12.267257993871167 0.0
  endloop
endfacet
facet normal 0.4999999999999997 0.8660254037844389 0.0
  outer loop
    vertex 15.875 10.998522628062375 0.0
    vertex 18.505256121069152 8.980256121069155 -12.7
    vertex 15.875 10.998522628062375 -12.7
  endloop
endfacet
facet normal 0.7071067811865474 0.7071067811865477 0.0
  outer loop
    vertex 18.505256121069152 8.980256121069155 -12.7
    vertex 15.875 10.998522628062375 0.0
    vertex 18.505256121069152 8.980256121069155 0.0
  endloop
endfacet
facet normal 0.9659258262890684 -0.2588190451025208 0.0
  outer loop
    vertex 0.32455650459662394 2.46525140460151 -12.7
    vertex 0.0 0.0 0.0
    vertex 0.0 0.0 -12.7
  endloop
endfacet
facet normal 0.9914448613738105 -0.13052619222005138 0.0
  outer loop
    vertex 0.0 0.0 0.0
    vertex 0.32455650459662394 2.46525140460151 -12.7
    vertex 0.32455650459662394 2.46525140460151 0.0
  endloop
endfacet
facet normal -0.0 -1.0 -0.0
  outer loop
    vertex 0.0 -9.524999999999997 0.0
    vertex -15.875 -9.524999999999997 -12.7
    vertex 0.0 -9.524999999999997 -12.7
  endloop
endfacet
facet normal -0.0 -1.0 -0.0
  outer loop
    vertex -15.875 -9.524999999999997 -12.7
    vertex 0.0 -9.524999999999997 0.0
    vertex -15.875 -9.524999999999997 0.0
  endloop
endfacet
facet normal -0.9659258262890683 0.25881904510252063 0.0
  outer loop
    vertex -2.742257993871166 3.2870018728020134 0.0
    vertex -3.175 0.0 -12.7
    vertex -3.175 0.0 0.0
  endloop
endfacet
facet normal -0.9914448613738105 0.13052619222005152 0.0
  outer loop
    vertex -3.175 0.0 -12.7
    vertex -2.742257993871166 3.2870018728020134 0.0
    vertex -2.742257993871166 3.2870018728020134 -12.7
  endloop
endfacet
facet normal -1.0 0.0 0.0
  outer loop
    vertex -15.875 -6.349999999999997 0.0
    vertex -15.875 -9.524999999999997 -12.7
    vertex -15.875 -9.524999999999997 0.0
  endloop
endfacet
facet normal -1.0 0.0 0.0
  outer loop
    vertex -15.875 -9.524999999999997 -12.7
    vertex -15.875 -6.349999999999997 0.0
    vertex -15.875 -6.349999999999997 -12.7
  endloop
endfacet
facet normal 0.8660254037844389 0.4999999999999997 0.0
  outer loop
    vertex 20.523522628062373 6.350000000000002 -12.7
    vertex 21.792257993871164 3.2870018728020134 0.0
    vertex 21.792257993871164 3.2870018728020134 -12.7
  endloop
endfacet
facet normal 0.9659258262890684 0.25881904510252035 0.0
  outer loop
    vertex 21.792257993871164 3.2870018728020134 0.0
    vertex 20.523522628062373 6.350000000000002 -12.7
    vertex 20.523522628062373 6.350000000000002 0.0
  endloop
endfacet
facet normal 0.9659258262890684 0.25881904510252035 0.0
  outer loop
    vertex 21.792257993871164 3.2870018728020134 -12.7
    vertex 22.224999999999998 -1.4099832412739487e-15 0.0
    vertex 22.224999999999998 -1.4099832412739487e-15 -12.7
  endloop
endfacet
facet normal 0.9914448613738105 0.13052619222005185 0.0
  outer loop
    vertex 22.224999999999998 -1.4099832412739487e-15 0.0
    vertex 21.792257993871164 3.2870018728020134 -12.7
    vertex 21.792257993871164 3.2870018728020134 0.0
  endloop
endfacet
facet normal -0.25881904510252046 -0.9659258262890685 0.0
  outer loop
    vertex 11.990251404601507 9.200443495403375 0.0
    vertex 9.524999999999997 9.524999999999999 -12.7
    vertex 11.990251404601507 9.200443495403375 -12.7
  endloop
endfacet
facet normal 2.7624440676505406e-16 -1.0 0.0
  outer loop
    vertex 9.524999999999997 9.524999999999999 -12.7
    vertex 11.990251404601507 9.200443495403375 0.0
    vertex 9.524999999999997 9.524999999999999 0.0
  endloop
endfacet
facet normal -3.920888354084638e-16 1.0 0.0
  outer loop
    vertex 9.524999999999993 12.7 0.0
    vertex 12.812001872802007 12.267257993871167 -12.7
    vertex 9.524999999999993 12.7 -12.7
  endloop
endfacet
facet normal 0.2588190451025201 0.9659258262890684 0.0
  outer loop
    vertex 12.812001872802007 12.267257993871167 -12.7
    vertex 9.524999999999993 12.7 0.0
    vertex 12.812001872802007 12.267257993871167 0.0
  endloop
endfacet
facet normal -0.8660254037844388 0.4999999999999999 0.0
  outer loop
    vertex -1.473522628062373 6.35 0.0
    vertex -2.742257993871166 3.2870018728020134 -12.7
    vertex -2.742257993871166 3.2870018728020134 0.0
  endloop
endfacet
facet normal -0.9659258262890683 0.25881904510252063 0.0
  outer loop
    vertex -2.742257993871166 3.2870018728020134 -12.7
    vertex -1.473522628062373 6.35 0.0
    vertex -1.473522628062373 6.35 -12.7
  endloop
endfacet
facet normal -0.7071067811865477 0.7071067811865474 0.0
  outer loop
    vertex 0.5447438789308444 8.980256121069152 0.0
    vertex -1.473522628062373 6.35 -12.7
    vertex -1.473522628062373 6.35 0.0
  endloop
endfacet
facet normal -0.8660254037844388 0.4999999999999999 0.0
  outer loop
    vertex -1.473522628062373 6.35 -12.7
    vertex 0.5447438789308444 8.980256121069152 0.0
    vertex 0.5447438789308444 8.980256121069152 -12.7
  endloop
endfacet
facet normal 0.0 0.0 -1.0
  outer loop
    vertex -2.742257993871166 3.2870018728020134 -12.7
    vertex -3.175 -6.349999999999997 -12.7
    vertex -3.175 0.0 -12.7
  endloop
endfacet
facet normal 0.0 0.0 -1.0
  outer loop
    vertex 0.5447438789308444 8.980256121069152 -12.7
    vertex 0.0 0.0 -12.7
    vertex -1.473522628062373 6.35 -12.7
  endloop
endfacet
facet normal 0.0 0.0 -1.0
  outer loop
    vertex 0.0 0.0 -12.7
    vertex 0.5447438789308444 8.980256121069152 -12.7
    vertex 0.32455650459662394 2.46525140460151 -12.7
  endloop
endfacet
facet normal 0.0 0.0 -1.0
  outer loop
    vertex 0.32455650459662394 2.46525140460151 -12.7
    vertex 0.5447438789308444 8.980256121069152 -12.7
    vertex 1.2761080289532216 4.762499999999999 -12.7
  endloop
endfacet
facet normal 0.0 0.0 -1.0
  outer loop
    vertex 1.2761080289532216 4.762499999999999 -12.7
    vertex 0.5447438789308444 8.980256121069152 -12.7
    vertex 3.174999999999997 10.99852262806237 -12.7
  endloop
endfacet
facet normal 0.0 0.0 -1.0
  outer loop
    vertex 1.2761080289532216 4.762499999999999 -12.7
    vertex 3.174999999999997 10.99852262806237 -12.7
    vertex 2.789807909198134 6.735192090801865 -12.7
  endloop
endfacet
facet normal 0.0 0.0 -1.0
  outer loop
    vertex 2.789807909198134 6.735192090801865 -12.7
    vertex 3.174999999999997 10.99852262806237 -12.7
    vertex 4.762499999999999 8.248891971046778 -12.7
  endloop
endfacet
facet normal 0.0 0.0 -1.0
  outer loop
    vertex 4.762499999999999 8.248891971046778 -12.7
    vertex 3.174999999999997 10.99852262806237 -12.7
    vertex 6.23799812719798 12.267257993871167 -12.7
  endloop
endfacet
facet normal 0.0 0.0 -1.0
  outer loop
    vertex 4.762499999999999 8.248891971046778 -12.7
    vertex 6.23799812719798 12.267257993871167 -12.7
    vertex 7.059748595398487 9.200443495403373 -12.7
  endloop
endfacet
facet normal 0.0 0.0 -1.0
  outer loop
    vertex 7.059748595398487 9.200443495403373 -12.7
    vertex 6.23799812719798 12.267257993871167 -12.7
    vertex 9.524999999999993 12.7 -12.7
  endloop
endfacet
facet normal 0.0 0.0 -1.0
  outer loop
    vertex 7.059748595398487 9.200443495403373 -12.7
    vertex 9.524999999999993 12.7 -12.7
    vertex 9.524999999999997 9.524999999999999 -12.7
  endloop
endfacet
facet normal 0.0 0.0 -1.0
  outer loop
    vertex 9.524999999999997 9.524999999999999 -12.7
    vertex 9.524999999999993 12.7 -12.7
    vertex 12.812001872802007 12.267257993871167 -12.7
  endloop
endfacet
facet normal 0.0 0.0 -1.0
  outer loop
    vertex 9.524999999999997 9.524999999999999 -12.7
    vertex 12.812001872802007 12.267257993871167 -12.7
    vertex 11.990251404601507 9.200443495403375 -12.7
  endloop
endfacet
facet normal 0.0 0.0 -1.0
  outer loop
    vertex 11.990251404601507 9.200443495403375 -12.7
    vertex 12.812001872802007 12.267257993871167 -12.7
    vertex 14.2875 8.248891971046781 -12.7
  endloop
endfacet
facet normal 0.0 0.0 -1.0
  outer loop
    vertex 14.2875 8.248891971046781 -12.7
    vertex 12.812001872802007 12.267257993871167 -12.7
    vertex 15.875 10.998522628062375 -12.7
  endloop
endfacet
facet normal 0.0 0.0 -1.0
  outer loop
    vertex 14.2875 8.248891971046781 -12.7
    vertex 15.875 10.998522628062375 -12.7
    vertex 16.260192090801862 6.735192090801865 -12.7
  endloop
endfacet
facet normal 0.0 0.0 -1.0
  outer loop
    vertex 16.260192090801862 6.735192090801865 -12.7
    vertex 15.875 10.998522628062375 -12.7
    vertex 18.505256121069152 8.980256121069155 -12.7
  endloop
endfacet
facet normal 0.0 0.0 -1.0
  outer loop
    vertex 16.260192090801862 6.735192090801865 -12.7
    vertex 18.505256121069152 8.980256121069155 -12.7
    vertex 17.773891971046776 4.762499999999999 -12.7
  endloop
endfacet
facet normal 0.0 0.0 -1.0
  outer loop
    vertex 17.773891971046776 4.762499999999999 -12.7
    vertex 18.505256121069152 8.980256121069155 -12.7
    vertex 18.725443495403375 2.4652514046015086 -12.7
  endloop
endfacet
facet normal 0.0 0.0 -1.0
  outer loop
    vertex 18.725443495403375 2.4652514046015086 -12.7
    vertex 18.505256121069152 8.980256121069155 -12.7
    vertex 20.523522628062373 6.350000000000002 -12.7
  endloop
endfacet
facet normal 0.0 0.0 -1.0
  outer loop
    vertex 18.725443495403375 2.4652514046015086 -12.7
    vertex 20.523522628062373 6.350000000000002 -12.7
    vertex 19.049999999999997 -2.8199664825478975e-15 -12.7
  endloop
endfacet
facet normal 0.0 0.0 -1.0
  outer loop
    vertex 19.049999999999997 -2.8199664825478975e-15 -12.7
    vertex 20.523522628062373 6.350000000000002 -12.7
    vertex 19.049999999999997 -9.524999999999997 -12.7
  endloop
endfacet
facet normal 0.0 0.0 -1.0
  outer loop
    vertex 19.049999999999997 -9.524999999999997 -12.7
    vertex 20.523522628062373 6.350000000000002 -12.7
    vertex 22.224999999999998 -6.349999999999997 -12.7
  endloop
endfacet
facet normal 0.0 0.0 -1.0
  outer loop
    vertex 19.049999999999997 -9.524999999999997 -12.7
    vertex 22.224999999999998 -6.349999999999997 -12.7
    vertex 34.925 -9.524999999999997 -12.7
  endloop
endfacet
facet normal 0.0 0.0 -1.0
  outer loop
    vertex 22.224999999999998 -6.349999999999997 -12.7
    vertex 20.523522628062373 6.350000000000002 -12.7
    vertex 21.792257993871164 3.2870018728020134 -12.7
  endloop
endfacet
facet normal 0.0 0.0 -1.0
  outer loop
    vertex 22.224999999999998 -6.349999999999997 -12.7
    vertex 21.792257993871164 3.2870018728020134 -12.7
    vertex 22.224999999999998 -1.4099832412739487e-15 -12.7
  endloop
endfacet
facet normal 0.0 0.0 -1.0
  outer loop
    vertex 34.925 -9.524999999999997 -12.7
    vertex 22.224999999999998 -6.349999999999997 -12.7
    vertex 34.925 -6.349999999999997 -12.7
  endloop
endfacet
facet normal 0.0 0.0 -1.0
  outer loop
    vertex -3.175 -6.349999999999997 -12.7
    vertex -15.875 -9.524999999999997 -12.7
    vertex -15.875 -6.349999999999997 -12.7
  endloop
endfacet
facet normal 0.0 0.0 -1.0
  outer loop
    vertex -15.875 -9.524999999999997 -12.7
    vertex -3.175 -6.349999999999997 -12.7
    vertex 0.0 -9.524999999999997 -12.7
  endloop
endfacet
facet normal 0.0 0.0 -1.0
  outer loop
    vertex 0.0 -9.524999999999997 -12.7
    vertex -3.175 -6.349999999999997 -12.7
    vertex -2.742257993871166 3.2870018728020134 -12.7
  endloop
endfacet
facet normal 0.0 0.0 -1.0
  outer loop
    vertex 0.0 -9.524999999999997 -12.7
    vertex -2.742257993871166 3.2870018728020134 -12.7
    vertex -1.473522628062373 6.35 -12.7
  endloop
endfacet
facet normal 0.0 0.0 -1.0
  outer loop
    vertex 0.0 -9.524999999999997 -12.7
    vertex -1.473522628062373 6.35 -12.7
    vertex 0.0 0.0 -12.7
  endloop
endfacet
facet normal 0.0 0.0 1.0
  outer loop
    vertex 0.0 -9.524999999999997 0.0
    vertex -15.875 -6.349999999999997 0.0
    vertex -15.875 -9.524999999999997 0.0
  endloop
endfacet
facet normal 0.0 0.0 1.0
  outer loop
    vertex -15.875 -6.349999999999997 0.0
    vertex 0.0 -9.524999999999997 0.0
    vertex -3.175 -6.349999999999997 0.0
  endloop
endfacet
facet normal 0.0 0.0 1.0
  outer loop
    vertex -3.175 -6.349999999999997 0.0
    vertex 0.0 -9.524999999999997 0.0
    vertex -3.175 0.0 0.0
  endloop
endfacet
facet normal 0.0 0.0 1.0
  outer loop
    vertex -3.175 0.0 0.0
    vertex 0.0 -9.524999999999997 0.0
    vertex -2.742257993871166 3.2870018728020134 0.0
  endloop
endfacet
facet normal 0.0 0.0 1.0
  outer loop
    vertex -2.742257993871166 3.2870018728020134 0.0
    vertex 0.0 -9.524999999999997 0.0
    vertex -1.473522628062373 6.35 0.0
  endloop
endfacet
facet normal 0.0 0.0 1.0
  outer loop
    vertex -1.473522628062373 6.35 0.0
    vertex 0.0 -9.524999999999997 0.0
    vertex 0.0 0.0 0.0
  endloop
endfacet
facet normal 0.0 0.0 1.0
  outer loop
    vertex -1.473522628062373 6.35 0.0
    vertex 0.0 0.0 0.0
    vertex 0.5447438789308444 8.980256121069152 0.0
  endloop
endfacet
facet normal 0.0 0.0 1.0
  outer loop
    vertex 0.5447438789308444 8.980256121069152 0.0
    vertex 0.0 0.0 0.0
    vertex 0.32455650459662394 2.46525140460151 0.0
  endloop
endfacet
facet normal 0.0 0.0 1.0
  outer loop
    vertex 0.5447438789308444 8.980256121069152 0.0
    vertex 0.32455650459662394 2.46525140460151 0.0
    vertex 1.2761080289532216 4.762499999999999 0.0
  endloop
endfacet
facet normal 0.0 0.0 1.0
  outer loop
    vertex 0.5447438789308444 8.980256121069152 0.0
    vertex 1.2761080289532216 4.762499999999999 0.0
    vertex 3.174999999999997 10.99852262806237 0.0
  endloop
endfacet
facet normal 0.0 0.0 1.0
  outer loop
    vertex 3.174999999999997 10.99852262806237 0.0
    vertex 1.2761080289532216 4.762499999999999 0.0
    vertex 2.789807909198134 6.735192090801865 0.0
  endloop
endfacet
facet normal 0.0 0.0 1.0
  outer loop
    vertex 3.174999999999997 10.99852262806237 0.0
    vertex 2.789807909198134 6.735192090801865 0.0
    vertex 4.762499999999999 8.248891971046778 0.0
  endloop
endfacet
facet normal 0.0 0.0 1.0
  outer loop
    vertex 3.174999999999997 10.99852262806237 0.0
    vertex 4.762499999999999 8.248891971046778 0.0
    vertex 6.23799812719798 12.267257993871167 0.0
  endloop
endfacet
facet normal 0.0 0.0 1.0
  outer loop
    vertex 6.23799812719798 12.267257993871167 0.0
    vertex 4.762499999999999 8.248891971046778 0.0
    vertex 7.059748595398487 9.200443495403373 0.0
  endloop
endfacet
facet normal 0.0 0.0 1.0
  outer loop
    vertex 6.23799812719798 12.267257993871167 0.0
    vertex 7.059748595398487 9.200443495403373 0.0
    vertex 9.524999999999993 12.7 0.0
  endloop
endfacet
facet normal 0.0 0.0 1.0
  outer loop
    vertex 9.524999999999993 12.7 0.0
    vertex 7.059748595398487 9.200443495403373 0.0
    vertex 9.524999999999997 9.524999999999999 0.0
  endloop
endfacet
facet normal 0.0 0.0 1.0
  outer loop
    vertex 9.524999999999993 12.7 0.0
    vertex 9.524999999999997 9.524999999999999 0.0
    vertex 12.812001872802007 12.267257993871167 0.0
  endloop
endfacet
facet normal 0.0 0.0 1.0
  outer loop
    vertex 12.812001872802007 12.267257993871167 0.0
    vertex 9.524999999999997 9.524999999999999 0.0
    vertex 11.990251404601507 9.200443495403375 0.0
  endloop
endfacet
facet normal 0.0 0.0 1.0
  outer loop
    vertex 12.812001872802007 12.267257993871167 0.0
    vertex 11.990251404601507 9.200443495403375 0.0
    vertex 14.2875 8.248891971046781 0.0
  endloop
endfacet
facet normal 0.0 0.0 1.0
  outer loop
    vertex 12.812001872802007 12.267257993871167 0.0
    vertex 14.2875 8.248891971046781 0.0
    vertex 15.875 10.998522628062375 0.0
  endloop
endfacet
facet normal 0.0 0.0 1.0
  outer loop
    vertex 15.875 10.998522628062375 0.0
    vertex 14.2875 8.248891971046781 0.0
    vertex 16.260192090801862 6.735192090801865 0.0
  endloop
endfacet
facet normal 0.0 0.0 1.0
  outer loop
    vertex 15.875 10.998522628062375 0.0
    vertex 16.260192090801862 6.735192090801865 0.0
    vertex 18.505256121069152 8.980256121069155 0.0
  endloop
endfacet
facet normal 0.0 0.0 1.0
  outer loop
    vertex 18.505256121069152 8.980256121069155 0.0
    vertex 16.260192090801862 6.735192090801865 0.0
    vertex 17.773891971046776 4.762499999999999 0.0
  endloop
endfacet
facet normal 0.0 0.0 1.0
  outer loop
    vertex 18.505256121069152 8.980256121069155 0.0
    vertex 17.773891971046776 4.762499999999999 0.0
    vertex 18.725443495403375 2.4652514046015086 0.0
  endloop
endfacet
facet normal 0.0 0.0 1.0
  outer loop
    vertex 18.505256121069152 8.980256121069155 0.0
    vertex 18.725443495403375 2.4652514046015086 0.0
    vertex 20.523522628062373 6.350000000000002 0.0
  endloop
endfacet
facet normal 0.0 0.0 1.0
  outer loop
    vertex 20.523522628062373 6.350000000000002 0.0
    vertex 18.725443495403375 2.4652514046015086 0.0
    vertex 19.049999999999997 -2.8199664825478975e-15 0.0
  endloop
endfacet
facet normal 0.0 0.0 1.0
  outer loop
    vertex 19.049999999999997 -9.524999999999997 0.0
    vertex 22.224999999999998 -6.349999999999997 0.0
    vertex 19.049999999999997 -2.8199664825478975e-15 0.0
  endloop
endfacet
facet normal 0.0 0.0 1.0
  outer loop
    vertex 22.224999999999998 -6.349999999999997 0.0
    vertex 19.049999999999997 -9.524999999999997 0.0
    vertex 34.925 -9.524999999999997 0.0
  endloop
endfacet
facet normal 0.0 0.0 1.0
  outer loop
    vertex 19.049999999999997 -2.8199664825478975e-15 0.0
    vertex 22.224999999999998 -6.349999999999997 0.0
    vertex 20.523522628062373 6.350000000000002 0.0
  endloop
endfacet
facet normal 0.0 0.0 1.0
  outer loop
    vertex 20.523522628062373 6.350000000000002 0.0
    vertex 22.224999999999998 -6.349999999999997 0.0
    vertex 21.792257993871164 3.2870018728020134 0.0
  endloop
endfacet
facet normal 0.0 0.0 1.0
  outer loop
    vertex 22.224999999999998 -6.349999999999997 0.0
    vertex 34.925 -9.524999999999997 0.0
    vertex 34.925 -6.349999999999997 0.0
  endloop
endfacet
facet normal 0.0 0.0 1.0
  outer loop
    vertex 22.224999999999998 -1.4099832412739487e-15 0.0
    vertex 21.792257993871164 3.2870018728020134 0.0
    vertex 22.224999999999998 -6.349999999999997 0.0
  endloop
endfacet
facet normal 0.8660254037844388 -0.5000000000000001 0.0
  outer loop
    vertex 1.2761080289532216 4.762499999999999 -12.7
    vertex 0.32455650459662394 2.46525140460151 0.0
    vertex 0.32455650459662394 2.46525140460151 -12.7
  endloop
endfacet
facet normal 0.9659258262890684 -0.2588190451025208 0.0
  outer loop
    vertex 0.32455650459662394 2.46525140460151 0.0
    vertex 1.2761080289532216 4.762499999999999 -12.7
    vertex 1.2761080289532216 4.762499999999999 0.0
  endloop
endfacet
facet normal 1.0 0.0 0.0
  outer loop
    vertex 34.925 -6.349999999999997 -12.7
    vertex 34.925 -9.524999999999997 0.0
    vertex 34.925 -9.524999999999997 -12.7
  endloop
endfacet
facet normal 1.0 0.0 0.0
  outer loop
    vertex 34.925 -9.524999999999997 0.0
    vertex 34.925 -6.349999999999997 -12.7
    vertex 34.925 -6.349999999999997 0.0
  endloop
endfacet
facet normal 0.7071067811865477 -0.7071067811865475 0.0
  outer loop
    vertex 2.789807909198134 6.735192090801865 -12.7
    vertex 1.2761080289532216 4.762499999999999 0.0
    vertex 1.2761080289532216 4.762499999999999 -12.7
  endloop
endfacet
facet normal 0.8660254037844388 -0.5000000000000001 0.0
  outer loop
    vertex 1.2761080289532216 4.762499999999999 0.0
    vertex 2.789807909198134 6.735192090801865 -12.7
    vertex 2.789807909198134 6.735192090801865 0.0
  endloop
endfacet
facet normal -0.49999999999999983 -0.8660254037844388 0.0
  outer loop
    vertex 14.2875 8.248891971046781 0.0
    vertex 11.990251404601507 9.200443495403375 -12.7
    vertex 14.2875 8.248891971046781 -12.7
  endloop
endfacet
facet normal -0.25881904510252046 -0.9659258262890685 0.0
  outer loop
    vertex 11.990251404601507 9.200443495403375 -12.7
    vertex 14.2875 8.248891971046781 0.0
    vertex 11.990251404601507 9.200443495403375 0.0
  endloop
endfacet
facet normal 2.7624440676505406e-16 -1.0 0.0
  outer loop
    vertex 9.524999999999997 9.524999999999999 0.0
    vertex 7.059748595398487 9.200443495403373 -12.7
    vertex 9.524999999999997 9.524999999999999 -12.7
  endloop
endfacet
facet normal 0.25881904510252085 -0.9659258262890684 0.0
  outer loop
    vertex 7.059748595398487 9.200443495403373 -12.7
    vertex 9.524999999999997 9.524999999999999 0.0
    vertex 7.059748595398487 9.200443495403373 0.0
  endloop
endfacet
facet normal 1.0 0.0 0.0
  outer loop
    vertex 0.0 0.0 -12.7
    vertex 0.0 -9.524999999999997 0.0
    vertex 0.0 -9.524999999999997 -12.7
  endloop
endfacet
facet normal 1.0 0.0 0.0
  outer loop
    vertex 0.0 -9.524999999999997 0.0
    vertex 0.0 0.0 -12.7
    vertex 0.0 0.0 0.0
  endloop
endfacet
facet normal -0.7071067811865475 -0.7071067811865476 0.0
  outer loop
    vertex 16.260192090801862 6.735192090801865 0.0
    vertex 17.773891971046776 4.762499999999999 -12.7
    vertex 17.773891971046776 4.762499999999999 0.0
  endloop
endfacet
facet normal -0.8660254037844386 -0.5000000000000001 0.0
  outer loop
    vertex 17.773891971046776 4.762499999999999 -12.7
    vertex 16.260192090801862 6.735192090801865 0.0
    vertex 16.260192090801862 6.735192090801865 -12.7
  endloop
endfacet
facet normal -0.8660254037844386 -0.5000000000000001 0.0
  outer loop
    vertex 17.773891971046776 4.762499999999999 0.0
    vertex 18.725443495403375 2.4652514046015086 -12.7
    vertex 18.725443495403375 2.4652514046015086 0.0
  endloop
endfacet
facet normal -0.9659258262890684 -0.25881904510252063 0.0
  outer loop
    vertex 18.725443495403375 2.4652514046015086 -12.7
    vertex 17.773891971046776 4.762499999999999 0.0
    vertex 17.773891971046776 4.762499999999999 -12.7
  endloop
endfacet
facet normal 0.0 1.0 0.0
  outer loop
    vertex 22.224999999999998 -6.349999999999997 0.0
    vertex 34.925 -6.349999999999997 -12.7
    vertex 22.224999999999998 -6.349999999999997 -12.7
  endloop
endfacet
facet normal 0.0 1.0 0.0
  outer loop
    vertex 34.925 -6.349999999999997 -12.7
    vertex 22.224999999999998 -6.349999999999997 0.0
    vertex 34.925 -6.349999999999997 0.0
  endloop
endfacet
endsolid bracket
