solid wiresnap3
facet normal -0.0 1.0 -0.0
outer loop
vertex -6.35 0.0 -2.38125
vertex 6.35 0.0 -3.96875
vertex -6.35 0.0 -3.96875
endloop
endfacet
facet normal -0.0 1.0 -0.0
outer loop
vertex 6.35 0.0 -3.96875
vertex -6.35 0.0 -2.38125
vertex 6.35 0.0 -2.38125
endloop
endfacet
facet normal -0.0 1.0 -0.0
outer loop
vertex 6.35 0.0 -2.38125
vertex -6.35 0.0 -2.38125
vertex -2.06758301908663 0.0 -2.38125
endloop
endfacet
facet normal -0.0 1.0 -0.0
outer loop
vertex 6.35 0.0 -2.38125
vertex -2.06758301908663 0.0 -2.38125
vertex 2.06758301908663 0.0 -2.38125
endloop
endfacet
facet normal -0.0 1.0 -0.0
outer loop
vertex -2.24506403026729 0.0 -2.24506403026729
vertex 2.06758301908663 0.0 -2.38125
vertex -2.06758301908663 0.0 -2.38125
endloop
endfacet
facet normal -0.0 1.0 -0.0
outer loop
vertex 2.06758301908663 0.0 -2.38125
vertex -2.24506403026729 0.0 -2.24506403026729
vertex 2.24506403026729 0.0 -2.24506403026729
endloop
endfacet
facet normal -0.0 1.0 -0.0
outer loop
vertex 2.24506403026729 0.0 -2.24506403026729
vertex -2.24506403026729 0.0 -2.24506403026729
vertex -2.74963065701559 0.0 -1.5875
endloop
endfacet
facet normal -0.0 1.0 -0.0
outer loop
vertex 2.24506403026729 0.0 -2.24506403026729
vertex -2.74963065701559 0.0 -1.5875
vertex 2.74963065701559 0.0 -1.5875
endloop
endfacet
facet normal -0.0 1.0 -0.0
outer loop
vertex 2.74963065701559 0.0 -1.5875
vertex -2.74963065701559 0.0 -1.5875
vertex -3.06681449846779 0.0 -0.821750468200504
endloop
endfacet
facet normal -0.0 1.0 -0.0
outer loop
vertex 2.74963065701559 0.0 -1.5875
vertex -3.06681449846779 0.0 -0.821750468200504
vertex -1.83697019872103e-16 0.0 -1.0
endloop
endfacet
facet normal -0.0 1.0 -0.0
outer loop
vertex -1.83697019872103e-16 0.0 -1.0
vertex -3.06681449846779 0.0 -0.821750468200504
vertex -0.258819045102521 0.0 -0.965925826289068
endloop
endfacet
facet normal -0.0 1.0 -0.0
outer loop
vertex -0.258819045102521 0.0 -0.965925826289068
vertex -3.06681449846779 0.0 -0.821750468200504
vertex -0.5 0.0 -0.866025403784438
endloop
endfacet
facet normal -0.0 1.0 -0.0
outer loop
vertex -0.5 0.0 -0.866025403784438
vertex -3.06681449846779 0.0 -0.821750468200504
vertex -0.707106781186548 0.0 -0.707106781186547
endloop
endfacet
facet normal -0.0 1.0 -0.0
outer loop
vertex -0.707106781186548 0.0 -0.707106781186547
vertex -3.06681449846779 0.0 -0.821750468200504
vertex -3.175 0.0 -3.88825358729285e-16
endloop
endfacet
facet normal -0.0 1.0 -0.0
outer loop
vertex -0.707106781186548 0.0 -0.707106781186547
vertex -3.175 0.0 -3.88825358729285e-16
vertex -0.866025403784439 0.0 -0.5
endloop
endfacet
facet normal -0.0 1.0 -0.0
outer loop
vertex -0.866025403784439 0.0 -0.5
vertex -3.175 0.0 -3.88825358729285e-16
vertex -0.965925826289068 0.0 -0.25881904510252
endloop
endfacet
facet normal -0.0 1.0 -0.0
outer loop
vertex -0.965925826289068 0.0 -0.25881904510252
vertex -3.175 0.0 -3.88825358729285e-16
vertex -1.0 0.0 1.22464679914735e-16
endloop
endfacet
facet normal -0.0 1.0 -0.0
outer loop
vertex -1.0 0.0 1.22464679914735e-16
vertex -3.175 0.0 -3.88825358729285e-16
vertex -3.06681449846779 0.0 0.821750468200502
endloop
endfacet
facet normal -0.0 1.0 -0.0
outer loop
vertex -1.0 0.0 1.22464679914735e-16
vertex -3.06681449846779 0.0 0.821750468200502
vertex -0.965925826289068 0.0 0.258819045102521
endloop
endfacet
facet normal -0.0 1.0 -0.0
outer loop
vertex -0.965925826289068 0.0 0.258819045102521
vertex -3.06681449846779 0.0 0.821750468200502
vertex -0.866025403784438 0.0 0.5
endloop
endfacet
facet normal -0.0 1.0 -0.0
outer loop
vertex -0.866025403784438 0.0 0.5
vertex -3.06681449846779 0.0 0.821750468200502
vertex -0.707106781186547 0.0 0.707106781186548
endloop
endfacet
facet normal -0.0 1.0 -0.0
outer loop
vertex -0.707106781186547 0.0 0.707106781186548
vertex -3.06681449846779 0.0 0.821750468200502
vertex -2.24506403026729 0.0 2.24506403026729
endloop
endfacet
facet normal -0.0 1.0 -0.0
outer loop
vertex -2.24506403026729 0.0 2.24506403026729
vertex -3.06681449846779 0.0 0.821750468200502
vertex -2.74963065701559 0.0 1.5875
endloop
endfacet
facet normal -0.0 1.0 -0.0
outer loop
vertex -1.83697019872103e-16 0.0 -1.0
vertex 3.06681449846779 0.0 -0.821750468200503
vertex 2.74963065701559 0.0 -1.5875
endloop
endfacet
facet normal -0.0 1.0 -0.0
outer loop
vertex 3.06681449846779 0.0 -0.821750468200503
vertex -1.83697019872103e-16 0.0 -1.0
vertex 0.25881904510252 0.0 -0.965925826289068
endloop
endfacet
facet normal -0.0 1.0 -0.0
outer loop
vertex 3.06681449846779 0.0 -0.821750468200503
vertex 0.25881904510252 0.0 -0.965925826289068
vertex 0.499999999999999 0.0 -0.866025403784439
endloop
endfacet
facet normal -0.0 1.0 -0.0
outer loop
vertex 3.06681449846779 0.0 -0.821750468200503
vertex 0.499999999999999 0.0 -0.866025403784439
vertex 0.707106781186547 0.0 -0.707106781186548
endloop
endfacet
facet normal -0.0 1.0 -0.0
outer loop
vertex 3.06681449846779 0.0 -0.821750468200503
vertex 0.707106781186547 0.0 -0.707106781186548
vertex 3.175 0.0 0.0
endloop
endfacet
facet normal -0.0 1.0 -0.0
outer loop
vertex 3.175 0.0 0.0
vertex 0.707106781186547 0.0 -0.707106781186548
vertex 0.866025403784438 0.0 -0.5
endloop
endfacet
facet normal -0.0 1.0 -0.0
outer loop
vertex 3.175 0.0 0.0
vertex 0.866025403784438 0.0 -0.5
vertex 0.965925826289068 0.0 -0.258819045102522
endloop
endfacet
facet normal -0.0 1.0 -0.0
outer loop
vertex 3.175 0.0 0.0
vertex 0.965925826289068 0.0 -0.258819045102522
vertex 1.0 0.0 0.0
endloop
endfacet
facet normal -0.0 1.0 -0.0
outer loop
vertex 3.175 0.0 0.0
vertex 1.0 0.0 0.0
vertex 0.965925826289068 0.0 0.258819045102521
endloop
endfacet
facet normal -0.0 1.0 -0.0
outer loop
vertex 3.175 0.0 0.0
vertex 0.965925826289068 0.0 0.258819045102521
vertex 3.06681449846779 0.0 0.821750468200506
endloop
endfacet
facet normal -0.0 1.0 -0.0
outer loop
vertex 3.06681449846779 0.0 0.821750468200506
vertex 0.965925826289068 0.0 0.258819045102521
vertex 0.866025403784438 0.0 0.5
endloop
endfacet
facet normal -0.0 1.0 -0.0
outer loop
vertex 3.06681449846779 0.0 0.821750468200506
vertex 0.866025403784438 0.0 0.5
vertex 0.707106781186547 0.0 0.707106781186547
endloop
endfacet
facet normal -0.0 1.0 -0.0
outer loop
vertex 3.06681449846779 0.0 0.821750468200506
vertex 0.707106781186547 0.0 0.707106781186547
vertex 2.24506403026729 0.0 2.24506403026729
endloop
endfacet
facet normal -0.0 1.0 -0.0
outer loop
vertex 3.06681449846779 0.0 0.821750468200506
vertex 2.24506403026729 0.0 2.24506403026729
vertex 2.74963065701559 0.0 1.5875
endloop
endfacet
facet normal -0.0 0.0 1.0
outer loop
vertex -2.06758301908663 -12.7 -2.38125
vertex -6.35 0.0 -2.38125
vertex -6.35 -12.7 -2.38125
endloop
endfacet
facet normal -0.0 0.0 1.0
outer loop
vertex -6.35 0.0 -2.38125
vertex -2.06758301908663 -12.7 -2.38125
vertex -2.06758301908663 0.0 -2.38125
endloop
endfacet
facet normal -0.60876142900872 -0.0 -0.793353340291235
outer loop
vertex -2.06758301908663 0.0 -2.38125
vertex -2.24506403026729 -12.7 -2.24506403026729
vertex -2.24506403026729 0.0 -2.24506403026729
endloop
endfacet
facet normal -0.707106781186547 0.0 -0.707106781186548
outer loop
vertex -2.24506403026729 -12.7 -2.24506403026729
vertex -2.06758301908663 0.0 -2.38125
vertex -2.06758301908663 -12.7 -2.38125
endloop
endfacet
facet normal -0.866025403784438 0.0 -0.5
outer loop
vertex -2.74963065701559 0.0 -1.5875
vertex -2.24506403026729 -12.7 -2.24506403026729
vertex -2.74963065701559 -12.7 -1.5875
endloop
endfacet
facet normal -0.707106781186547 0.0 -0.707106781186548
outer loop
vertex -2.24506403026729 -12.7 -2.24506403026729
vertex -2.74963065701559 0.0 -1.5875
vertex -2.24506403026729 0.0 -2.24506403026729
endloop
endfacet
facet normal -0.965925826289068 0.0 -0.258819045102521
outer loop
vertex -3.06681449846779 0.0 -0.821750468200504
vertex -2.74963065701559 -12.7 -1.5875
vertex -3.06681449846779 -12.7 -0.821750468200504
endloop
endfacet
facet normal -0.866025403784438 0.0 -0.5
outer loop
vertex -2.74963065701559 -12.7 -1.5875
vertex -3.06681449846779 0.0 -0.821750468200504
vertex -2.74963065701559 0.0 -1.5875
endloop
endfacet
facet normal -1.0 0.0 -3.11888846347642e-16
outer loop
vertex -3.175 0.0 -3.88825358729285e-16
vertex -3.06681449846779 -12.7 -0.821750468200504
vertex -3.175 -12.7 -3.88825358729285e-16
endloop
endfacet
facet normal -0.965925826289068 0.0 -0.258819045102521
outer loop
vertex -3.06681449846779 -12.7 -0.821750468200504
vertex -3.175 0.0 -3.88825358729285e-16
vertex -3.06681449846779 0.0 -0.821750468200504
endloop
endfacet
facet normal -0.965925826289068 0.0 0.25881904510252
outer loop
vertex -3.06681449846779 0.0 0.821750468200502
vertex -3.175 -12.7 -3.88825358729285e-16
vertex -3.06681449846779 -12.7 0.821750468200502
endloop
endfacet
facet normal -1.0 0.0 -3.11888846347642e-16
outer loop
vertex -3.175 -12.7 -3.88825358729285e-16
vertex -3.06681449846779 0.0 0.821750468200502
vertex -3.175 0.0 -3.88825358729285e-16
endloop
endfacet
facet normal -0.866025403784439 0.0 0.5
outer loop
vertex -2.74963065701559 0.0 1.5875
vertex -3.06681449846779 -12.7 0.821750468200502
vertex -2.74963065701559 -12.7 1.5875
endloop
endfacet
facet normal -0.965925826289068 0.0 0.25881904510252
outer loop
vertex -3.06681449846779 -12.7 0.821750468200502
vertex -2.74963065701559 0.0 1.5875
vertex -3.06681449846779 0.0 0.821750468200502
endloop
endfacet
facet normal -0.0654031292301435 0.0 0.997858923238604
outer loop
vertex -2.24506403026729 0.0 2.24506403026729
vertex -2.74963065701559 -12.7 1.5875
vertex -2.24506403026729 -12.7 2.24506403026729
endloop
endfacet
facet normal -0.866025403784439 0.0 0.5
outer loop
vertex -2.74963065701559 -12.7 1.5875
vertex -2.24506403026729 0.0 2.24506403026729
vertex -2.74963065701559 0.0 1.5875
endloop
endfacet
facet normal 0.866025403784439 0.0 -0.5
outer loop
vertex -0.866025403784438 0.0 0.5
vertex -0.707106781186547 -12.7 0.707106781186548
vertex -0.866025403784438 -12.7 0.5
endloop
endfacet
facet normal 0.793353340291235 -0.0 -0.608761429008721
outer loop
vertex -0.707106781186547 -12.7 0.707106781186548
vertex -0.866025403784438 0.0 0.5
vertex -0.707106781186547 0.0 0.707106781186548
endloop
endfacet
facet normal 0.965925826289068 0.0 -0.258819045102521
outer loop
vertex -0.965925826289068 0.0 0.258819045102521
vertex -0.866025403784438 -12.7 0.5
vertex -0.965925826289068 -12.7 0.258819045102521
endloop
endfacet
facet normal 0.866025403784439 0.0 -0.5
outer loop
vertex -0.866025403784438 -12.7 0.5
vertex -0.965925826289068 0.0 0.258819045102521
vertex -0.866025403784438 0.0 0.5
endloop
endfacet
facet normal 1.0 0.0 -2.40599967182466e-16
outer loop
vertex -1.0 0.0 1.22464679914735e-16
vertex -0.965925826289068 -12.7 0.258819045102521
vertex -1.0 -12.7 1.22464679914735e-16
endloop
endfacet
facet normal 0.965925826289068 0.0 -0.258819045102521
outer loop
vertex -0.965925826289068 -12.7 0.258819045102521
vertex -1.0 0.0 1.22464679914735e-16
vertex -0.965925826289068 0.0 0.258819045102521
endloop
endfacet
facet normal 0.965925826289068 0.0 0.25881904510252
outer loop
vertex -0.965925826289068 0.0 -0.25881904510252
vertex -1.0 -12.7 1.22464679914735e-16
vertex -0.965925826289068 -12.7 -0.25881904510252
endloop
endfacet
facet normal 1.0 0.0 -2.40599967182466e-16
outer loop
vertex -1.0 -12.7 1.22464679914735e-16
vertex -0.965925826289068 0.0 -0.25881904510252
vertex -1.0 0.0 1.22464679914735e-16
endloop
endfacet
facet normal 0.866025403784439 0.0 0.5
outer loop
vertex -0.866025403784439 0.0 -0.5
vertex -0.965925826289068 -12.7 -0.25881904510252
vertex -0.866025403784439 -12.7 -0.5
endloop
endfacet
facet normal 0.965925826289068 0.0 0.25881904510252
outer loop
vertex -0.965925826289068 -12.7 -0.25881904510252
vertex -0.866025403784439 0.0 -0.5
vertex -0.965925826289068 0.0 -0.25881904510252
endloop
endfacet
facet normal 0.707106781186548 0.0 0.707106781186547
outer loop
vertex -0.707106781186548 0.0 -0.707106781186547
vertex -0.866025403784439 -12.7 -0.5
vertex -0.707106781186548 -12.7 -0.707106781186547
endloop
endfacet
facet normal 0.866025403784439 0.0 0.5
outer loop
vertex -0.866025403784439 -12.7 -0.5
vertex -0.707106781186548 0.0 -0.707106781186547
vertex -0.866025403784439 0.0 -0.5
endloop
endfacet
facet normal 0.5 0.0 0.866025403784438
outer loop
vertex -0.5 -12.7 -0.866025403784438
vertex -0.707106781186548 0.0 -0.707106781186547
vertex -0.707106781186548 -12.7 -0.707106781186547
endloop
endfacet
facet normal 0.707106781186548 0.0 0.707106781186547
outer loop
vertex -0.707106781186548 0.0 -0.707106781186547
vertex -0.5 -12.7 -0.866025403784438
vertex -0.5 0.0 -0.866025403784438
endloop
endfacet
facet normal 0.258819045102521 0.0 0.965925826289068
outer loop
vertex -0.258819045102521 -12.7 -0.965925826289068
vertex -0.5 0.0 -0.866025403784438
vertex -0.5 -12.7 -0.866025403784438
endloop
endfacet
facet normal 0.5 0.0 0.866025403784438
outer loop
vertex -0.5 0.0 -0.866025403784438
vertex -0.258819045102521 -12.7 -0.965925826289068
vertex -0.258819045102521 0.0 -0.965925826289068
endloop
endfacet
facet normal 4.72288824469286e-16 0.0 1.0
outer loop
vertex -1.83697019872103e-16 -12.7 -1.0
vertex -0.258819045102521 0.0 -0.965925826289068
vertex -0.258819045102521 -12.7 -0.965925826289068
endloop
endfacet
facet normal 0.258819045102521 0.0 0.965925826289068
outer loop
vertex -0.258819045102521 0.0 -0.965925826289068
vertex -1.83697019872103e-16 -12.7 -1.0
vertex -1.83697019872103e-16 0.0 -1.0
endloop
endfacet
facet normal -0.25881904510252 0.0 0.965925826289069
outer loop
vertex 0.25881904510252 -12.7 -0.965925826289068
vertex -1.83697019872103e-16 0.0 -1.0
vertex -1.83697019872103e-16 -12.7 -1.0
endloop
endfacet
facet normal 4.72288824469286e-16 0.0 1.0
outer loop
vertex -1.83697019872103e-16 0.0 -1.0
vertex 0.25881904510252 -12.7 -0.965925826289068
vertex 0.25881904510252 0.0 -0.965925826289068
endloop
endfacet
facet normal -0.499999999999999 0.0 0.866025403784439
outer loop
vertex 0.499999999999999 -12.7 -0.866025403784439
vertex 0.25881904510252 0.0 -0.965925826289068
vertex 0.25881904510252 -12.7 -0.965925826289068
endloop
endfacet
facet normal -0.25881904510252 0.0 0.965925826289069
outer loop
vertex 0.25881904510252 0.0 -0.965925826289068
vertex 0.499999999999999 -12.7 -0.866025403784439
vertex 0.499999999999999 0.0 -0.866025403784439
endloop
endfacet
facet normal -0.707106781186547 0.0 0.707106781186548
outer loop
vertex 0.707106781186547 -12.7 -0.707106781186548
vertex 0.499999999999999 0.0 -0.866025403784439
vertex 0.499999999999999 -12.7 -0.866025403784439
endloop
endfacet
facet normal -0.499999999999999 0.0 0.866025403784439
outer loop
vertex 0.499999999999999 0.0 -0.866025403784439
vertex 0.707106781186547 -12.7 -0.707106781186548
vertex 0.707106781186547 0.0 -0.707106781186548
endloop
endfacet
facet normal -0.866025403784439 0.0 0.5
outer loop
vertex 0.866025403784438 0.0 -0.5
vertex 0.707106781186547 -12.7 -0.707106781186548
vertex 0.866025403784438 -12.7 -0.5
endloop
endfacet
facet normal -0.707106781186547 0.0 0.707106781186548
outer loop
vertex 0.707106781186547 -12.7 -0.707106781186548
vertex 0.866025403784438 0.0 -0.5
vertex 0.707106781186547 0.0 -0.707106781186548
endloop
endfacet
facet normal -0.965925826289068 0.0 0.258819045102521
outer loop
vertex 0.965925826289068 0.0 -0.258819045102522
vertex 0.866025403784438 -12.7 -0.5
vertex 0.965925826289068 -12.7 -0.258819045102522
endloop
endfacet
facet normal -0.866025403784439 0.0 0.5
outer loop
vertex 0.866025403784438 -12.7 -0.5
vertex 0.965925826289068 0.0 -0.258819045102522
vertex 0.866025403784438 0.0 -0.5
endloop
endfacet
facet normal -1.0 0.0 1.51488868225997e-16
outer loop
vertex 1.0 0.0 0.0
vertex 0.965925826289068 -12.7 -0.258819045102522
vertex 1.0 -12.7 0.0
endloop
endfacet
facet normal -0.965925826289068 0.0 0.258819045102521
outer loop
vertex 0.965925826289068 -12.7 -0.258819045102522
vertex 1.0 0.0 0.0
vertex 0.965925826289068 0.0 -0.258819045102522
endloop
endfacet
facet normal -0.965925826289068 0.0 -0.258819045102521
outer loop
vertex 0.965925826289068 0.0 0.258819045102521
vertex 1.0 -12.7 0.0
vertex 0.965925826289068 -12.7 0.258819045102521
endloop
endfacet
facet normal -1.0 0.0 1.51488868225997e-16
outer loop
vertex 1.0 -12.7 0.0
vertex 0.965925826289068 0.0 0.258819045102521
vertex 1.0 0.0 0.0
endloop
endfacet
facet normal -0.866025403784439 0.0 -0.5
outer loop
vertex 0.866025403784438 0.0 0.5
vertex 0.965925826289068 -12.7 0.258819045102521
vertex 0.866025403784438 -12.7 0.5
endloop
endfacet
facet normal -0.965925826289068 0.0 -0.258819045102521
outer loop
vertex 0.965925826289068 -12.7 0.258819045102521
vertex 0.866025403784438 0.0 0.5
vertex 0.965925826289068 0.0 0.258819045102521
endloop
endfacet
facet normal -0.793353340291235 0.0 -0.60876142900872
outer loop
vertex 0.707106781186547 0.0 0.707106781186547
vertex 0.866025403784438 -12.7 0.5
vertex 0.707106781186547 -12.7 0.707106781186547
endloop
endfacet
facet normal -0.866025403784439 0.0 -0.5
outer loop
vertex 0.866025403784438 -12.7 0.5
vertex 0.707106781186547 0.0 0.707106781186547
vertex 0.866025403784438 0.0 0.5
endloop
endfacet
facet normal 0.866025403784438 0.0 0.5
outer loop
vertex 2.74963065701559 0.0 1.5875
vertex 2.24506403026729 -12.7 2.24506403026729
vertex 2.74963065701559 -12.7 1.5875
endloop
endfacet
facet normal 0.793353340291235 -0.0 0.608761429008721
outer loop
vertex 2.24506403026729 -12.7 2.24506403026729
vertex 2.74963065701559 0.0 1.5875
vertex 2.24506403026729 0.0 2.24506403026729
endloop
endfacet
facet normal 0.965925826289068 0.0 0.258819045102521
outer loop
vertex 3.06681449846779 0.0 0.821750468200506
vertex 2.74963065701559 -12.7 1.5875
vertex 3.06681449846779 -12.7 0.821750468200506
endloop
endfacet
facet normal 0.866025403784438 0.0 0.5
outer loop
vertex 2.74963065701559 -12.7 1.5875
vertex 3.06681449846779 0.0 0.821750468200506
vertex 2.74963065701559 0.0 1.5875
endloop
endfacet
facet normal 1.0 0.0 2.3168885728682e-16
outer loop
vertex 3.175 0.0 0.0
vertex 3.06681449846779 -12.7 0.821750468200506
vertex 3.175 -12.7 0.0
endloop
endfacet
facet normal 0.965925826289068 0.0 0.258819045102521
outer loop
vertex 3.06681449846779 -12.7 0.821750468200506
vertex 3.175 0.0 0.0
vertex 3.06681449846779 0.0 0.821750468200506
endloop
endfacet
facet normal 0.965925826289068 0.0 -0.258819045102521
outer loop
vertex 3.06681449846779 0.0 -0.821750468200503
vertex 3.175 -12.7 0.0
vertex 3.06681449846779 -12.7 -0.821750468200503
endloop
endfacet
facet normal 1.0 0.0 2.3168885728682e-16
outer loop
vertex 3.175 -12.7 0.0
vertex 3.06681449846779 0.0 -0.821750468200503
vertex 3.175 0.0 0.0
endloop
endfacet
facet normal 0.866025403784439 0.0 -0.5
outer loop
vertex 2.74963065701559 0.0 -1.5875
vertex 3.06681449846779 -12.7 -0.821750468200503
vertex 2.74963065701559 -12.7 -1.5875
endloop
endfacet
facet normal 0.965925826289068 0.0 -0.258819045102521
outer loop
vertex 3.06681449846779 -12.7 -0.821750468200503
vertex 2.74963065701559 0.0 -1.5875
vertex 3.06681449846779 0.0 -0.821750468200503
endloop
endfacet
facet normal 0.707106781186547 0.0 -0.707106781186548
outer loop
vertex 2.24506403026729 0.0 -2.24506403026729
vertex 2.74963065701559 -12.7 -1.5875
vertex 2.24506403026729 -12.7 -2.24506403026729
endloop
endfacet
facet normal 0.866025403784439 0.0 -0.5
outer loop
vertex 2.74963065701559 -12.7 -1.5875
vertex 2.24506403026729 0.0 -2.24506403026729
vertex 2.74963065701559 0.0 -1.5875
endloop
endfacet
facet normal 0.707106781186547 0.0 -0.707106781186548
outer loop
vertex 2.24506403026729 0.0 -2.24506403026729
vertex 2.06758301908663 -12.7 -2.38125
vertex 2.06758301908663 0.0 -2.38125
endloop
endfacet
facet normal 0.60876142900872 0.0 -0.793353340291235
outer loop
vertex 2.06758301908663 -12.7 -2.38125
vertex 2.24506403026729 0.0 -2.24506403026729
vertex 2.24506403026729 -12.7 -2.24506403026729
endloop
endfacet
facet normal -0.0 0.0 1.0
outer loop
vertex 6.35 -12.7 -2.38125
vertex 2.06758301908663 0.0 -2.38125
vertex 2.06758301908663 -12.7 -2.38125
endloop
endfacet
facet normal -0.0 0.0 1.0
outer loop
vertex 2.06758301908663 0.0 -2.38125
vertex 6.35 -12.7 -2.38125
vertex 6.35 0.0 -2.38125
endloop
endfacet
facet normal 1.0 0.0 0.0
outer loop
vertex 6.35 0.0 -3.96875
vertex 6.35 -12.7 -2.38125
vertex 6.35 -12.7 -3.96875
endloop
endfacet
facet normal 1.0 0.0 0.0
outer loop
vertex 6.35 -12.7 -2.38125
vertex 6.35 0.0 -3.96875
vertex 6.35 0.0 -2.38125
endloop
endfacet
facet normal -0.0 -0.0 -1.0
outer loop
vertex 6.35 0.0 -3.96875
vertex -6.35 -12.7 -3.96875
vertex -6.35 0.0 -3.96875
endloop
endfacet
facet normal -0.0 -0.0 -1.0
outer loop
vertex -6.35 -12.7 -3.96875
vertex 6.35 0.0 -3.96875
vertex 6.35 -12.7 -3.96875
endloop
endfacet
facet normal -1.0 0.0 0.0
outer loop
vertex -6.35 0.0 -2.38125
vertex -6.35 -12.7 -3.96875
vertex -6.35 -12.7 -2.38125
endloop
endfacet
facet normal -1.0 0.0 0.0
outer loop
vertex -6.35 -12.7 -3.96875
vertex -6.35 0.0 -2.38125
vertex -6.35 0.0 -3.96875
endloop
endfacet
facet normal 0.0 -1.0 0.0
outer loop
vertex 3.06681449846779 -12.7 -0.821750468200503
vertex -1.83697019872103e-16 -12.7 -1.0
vertex 2.74963065701559 -12.7 -1.5875
endloop
endfacet
facet normal 0.0 -1.0 0.0
outer loop
vertex -1.83697019872103e-16 -12.7 -1.0
vertex 3.06681449846779 -12.7 -0.821750468200503
vertex 0.25881904510252 -12.7 -0.965925826289068
endloop
endfacet
facet normal 0.0 -1.0 0.0
outer loop
vertex 0.25881904510252 -12.7 -0.965925826289068
vertex 3.06681449846779 -12.7 -0.821750468200503
vertex 0.499999999999999 -12.7 -0.866025403784439
endloop
endfacet
facet normal 0.0 -1.0 0.0
outer loop
vertex 0.499999999999999 -12.7 -0.866025403784439
vertex 3.06681449846779 -12.7 -0.821750468200503
vertex 0.707106781186547 -12.7 -0.707106781186548
endloop
endfacet
facet normal 0.0 -1.0 0.0
outer loop
vertex 0.707106781186547 -12.7 -0.707106781186548
vertex 3.06681449846779 -12.7 -0.821750468200503
vertex 3.175 -12.7 0.0
endloop
endfacet
facet normal 0.0 -1.0 0.0
outer loop
vertex 0.707106781186547 -12.7 -0.707106781186548
vertex 3.175 -12.7 0.0
vertex 0.866025403784438 -12.7 -0.5
endloop
endfacet
facet normal 0.0 -1.0 0.0
outer loop
vertex 0.866025403784438 -12.7 -0.5
vertex 3.175 -12.7 0.0
vertex 0.965925826289068 -12.7 -0.258819045102522
endloop
endfacet
facet normal 0.0 -1.0 0.0
outer loop
vertex 0.965925826289068 -12.7 -0.258819045102522
vertex 3.175 -12.7 0.0
vertex 1.0 -12.7 0.0
endloop
endfacet
facet normal 0.0 -1.0 0.0
outer loop
vertex 1.0 -12.7 0.0
vertex 3.175 -12.7 0.0
vertex 3.06681449846779 -12.7 0.821750468200506
endloop
endfacet
facet normal 0.0 -1.0 0.0
outer loop
vertex 1.0 -12.7 0.0
vertex 3.06681449846779 -12.7 0.821750468200506
vertex 0.965925826289068 -12.7 0.258819045102521
endloop
endfacet
facet normal 0.0 -1.0 0.0
outer loop
vertex 0.965925826289068 -12.7 0.258819045102521
vertex 3.06681449846779 -12.7 0.821750468200506
vertex 0.866025403784438 -12.7 0.5
endloop
endfacet
facet normal 0.0 -1.0 0.0
outer loop
vertex 0.866025403784438 -12.7 0.5
vertex 3.06681449846779 -12.7 0.821750468200506
vertex 0.707106781186547 -12.7 0.707106781186547
endloop
endfacet
facet normal 0.0 -1.0 0.0
outer loop
vertex 0.707106781186547 -12.7 0.707106781186547
vertex 3.06681449846779 -12.7 0.821750468200506
vertex 2.24506403026729 -12.7 2.24506403026729
endloop
endfacet
facet normal 0.0 -1.0 0.0
outer loop
vertex 2.24506403026729 -12.7 2.24506403026729
vertex 3.06681449846779 -12.7 0.821750468200506
vertex 2.74963065701559 -12.7 1.5875
endloop
endfacet
facet normal 0.0 -1.0 0.0
outer loop
vertex 2.24506403026729 -12.7 -2.24506403026729
vertex -2.06758301908663 -12.7 -2.38125
vertex 2.06758301908663 -12.7 -2.38125
endloop
endfacet
facet normal 0.0 -1.0 0.0
outer loop
vertex -2.06758301908663 -12.7 -2.38125
vertex 2.24506403026729 -12.7 -2.24506403026729
vertex -2.24506403026729 -12.7 -2.24506403026729
endloop
endfacet
facet normal 0.0 -1.0 0.0
outer loop
vertex -2.24506403026729 -12.7 -2.24506403026729
vertex 2.24506403026729 -12.7 -2.24506403026729
vertex -2.74963065701559 -12.7 -1.5875
endloop
endfacet
facet normal 0.0 -1.0 0.0
outer loop
vertex -2.74963065701559 -12.7 -1.5875
vertex 2.24506403026729 -12.7 -2.24506403026729
vertex 2.74963065701559 -12.7 -1.5875
endloop
endfacet
facet normal 0.0 -1.0 0.0
outer loop
vertex -2.74963065701559 -12.7 -1.5875
vertex 2.74963065701559 -12.7 -1.5875
vertex -3.06681449846779 -12.7 -0.821750468200504
endloop
endfacet
facet normal 0.0 -1.0 0.0
outer loop
vertex -3.06681449846779 -12.7 -0.821750468200504
vertex 2.74963065701559 -12.7 -1.5875
vertex -1.83697019872103e-16 -12.7 -1.0
endloop
endfacet
facet normal 0.0 -1.0 0.0
outer loop
vertex -3.06681449846779 -12.7 -0.821750468200504
vertex -1.83697019872103e-16 -12.7 -1.0
vertex -0.258819045102521 -12.7 -0.965925826289068
endloop
endfacet
facet normal 0.0 -1.0 0.0
outer loop
vertex -3.06681449846779 -12.7 -0.821750468200504
vertex -0.258819045102521 -12.7 -0.965925826289068
vertex -0.5 -12.7 -0.866025403784438
endloop
endfacet
facet normal 0.0 -1.0 0.0
outer loop
vertex -3.06681449846779 -12.7 -0.821750468200504
vertex -0.5 -12.7 -0.866025403784438
vertex -0.707106781186548 -12.7 -0.707106781186547
endloop
endfacet
facet normal 0.0 -1.0 0.0
outer loop
vertex -3.06681449846779 -12.7 -0.821750468200504
vertex -0.707106781186548 -12.7 -0.707106781186547
vertex -3.175 -12.7 -3.88825358729285e-16
endloop
endfacet
facet normal 0.0 -1.0 0.0
outer loop
vertex -3.175 -12.7 -3.88825358729285e-16
vertex -0.707106781186548 -12.7 -0.707106781186547
vertex -0.866025403784439 -12.7 -0.5
endloop
endfacet
facet normal 0.0 -1.0 0.0
outer loop
vertex -3.175 -12.7 -3.88825358729285e-16
vertex -0.866025403784439 -12.7 -0.5
vertex -0.965925826289068 -12.7 -0.25881904510252
endloop
endfacet
facet normal 0.0 -1.0 0.0
outer loop
vertex -3.175 -12.7 -3.88825358729285e-16
vertex -0.965925826289068 -12.7 -0.25881904510252
vertex -1.0 -12.7 1.22464679914735e-16
endloop
endfacet
facet normal 0.0 -1.0 0.0
outer loop
vertex -3.175 -12.7 -3.88825358729285e-16
vertex -1.0 -12.7 1.22464679914735e-16
vertex -3.06681449846779 -12.7 0.821750468200502
endloop
endfacet
facet normal 0.0 -1.0 0.0
outer loop
vertex -3.06681449846779 -12.7 0.821750468200502
vertex -1.0 -12.7 1.22464679914735e-16
vertex -0.965925826289068 -12.7 0.258819045102521
endloop
endfacet
facet normal 0.0 -1.0 0.0
outer loop
vertex -3.06681449846779 -12.7 0.821750468200502
vertex -0.965925826289068 -12.7 0.258819045102521
vertex -0.866025403784438 -12.7 0.5
endloop
endfacet
facet normal 0.0 -1.0 0.0
outer loop
vertex -3.06681449846779 -12.7 0.821750468200502
vertex -0.866025403784438 -12.7 0.5
vertex -0.707106781186547 -12.7 0.707106781186548
endloop
endfacet
facet normal 0.0 -1.0 0.0
outer loop
vertex -3.06681449846779 -12.7 0.821750468200502
vertex -0.707106781186547 -12.7 0.707106781186548
vertex -2.24506403026729 -12.7 2.24506403026729
endloop
endfacet
facet normal 0.0 -1.0 0.0
outer loop
vertex -3.06681449846779 -12.7 0.821750468200502
vertex -2.24506403026729 -12.7 2.24506403026729
vertex -2.74963065701559 -12.7 1.5875
endloop
endfacet
facet normal 0.0 -1.0 0.0
outer loop
vertex 6.35 -12.7 -2.38125
vertex -6.35 -12.7 -3.96875
vertex 6.35 -12.7 -3.96875
endloop
endfacet
facet normal 0.0 -1.0 0.0
outer loop
vertex -6.35 -12.7 -3.96875
vertex 6.35 -12.7 -2.38125
vertex -6.35 -12.7 -2.38125
endloop
endfacet
facet normal 0.0 -1.0 0.0
outer loop
vertex -6.35 -12.7 -2.38125
vertex 6.35 -12.7 -2.38125
vertex 2.06758301908663 -12.7 -2.38125
endloop
endfacet
facet normal 0.0 -1.0 0.0
outer loop
vertex -6.35 -12.7 -2.38125
vertex 2.06758301908663 -12.7 -2.38125
vertex -2.06758301908663 -12.7 -2.38125
endloop
endfacet
facet normal 0.707106781186547 -0.0 0.707106781186548
outer loop
vertex -0.707106781186547 -12.7 0.707106781186548
vertex -2.24506403026729 0.0 2.24506403026729
vertex -2.24506403026729 -12.7 2.24506403026729
endloop
endfacet
facet normal -0.0654031292301435 0.0 0.997858923238604
outer loop
vertex -2.24506403026729 0.0 2.24506403026729
vertex -0.707106781186547 -12.7 0.707106781186548
vertex -0.707106781186547 0.0 0.707106781186548
endloop
endfacet
facet normal -0.707106781186548 0.0 0.707106781186547
outer loop
vertex 2.24506403026729 0.0 2.24506403026729
vertex 0.707106781186547 -12.7 0.707106781186547
vertex 2.24506403026729 -12.7 2.24506403026729
endloop
endfacet
facet normal -0.707106781186548 0.0 0.707106781186547
outer loop
vertex 0.707106781186547 -12.7 0.707106781186547
vertex 2.24506403026729 0.0 2.24506403026729
vertex 0.707106781186547 0.0 0.707106781186547
endloop
endfacet
endsolid wiresnap3
