solid wiresnap2
facet normal 0.0 -1.0 0.0
outer loop
vertex 1.3748153285078 0.0 -0.79375
vertex -5.20474889637625e-17 0.0 -0.85
vertex 1.12253201513364 0.0 -1.12253201513364
endloop
endfacet
facet normal 0.0 -1.0 0.0
outer loop
vertex -5.20474889637625e-17 0.0 -0.85
vertex 1.3748153285078 0.0 -0.79375
vertex 0.219996188337143 0.0 -0.821036952345708
endloop
endfacet
facet normal 0.0 -1.0 0.0
outer loop
vertex 0.219996188337143 0.0 -0.821036952345708
vertex 1.3748153285078 0.0 -0.79375
vertex 0.425 0.0 -0.736121593216773
endloop
endfacet
facet normal 0.0 -1.0 0.0
outer loop
vertex 0.425 0.0 -0.736121593216773
vertex 1.3748153285078 0.0 -0.79375
vertex 1.5334072492339 0.0 -0.410875234100251
endloop
endfacet
facet normal 0.0 -1.0 0.0
outer loop
vertex 0.425 0.0 -0.736121593216773
vertex 1.5334072492339 0.0 -0.410875234100251
vertex 0.601040764008565 0.0 -0.601040764008565
endloop
endfacet
facet normal 0.0 -1.0 0.0
outer loop
vertex 0.601040764008565 0.0 -0.601040764008565
vertex 1.5334072492339 0.0 -0.410875234100251
vertex 0.736121593216773 0.0 -0.425
endloop
endfacet
facet normal 0.0 -1.0 0.0
outer loop
vertex 0.736121593216773 0.0 -0.425
vertex 1.5334072492339 0.0 -0.410875234100251
vertex 0.821036952345708 0.0 -0.219996188337143
endloop
endfacet
facet normal 0.0 -1.0 0.0
outer loop
vertex 0.821036952345708 0.0 -0.219996188337143
vertex 1.5334072492339 0.0 -0.410875234100251
vertex 1.5875 0.0 1.94412679364642e-16
endloop
endfacet
facet normal 0.0 -1.0 0.0
outer loop
vertex 0.821036952345708 0.0 -0.219996188337143
vertex 1.5875 0.0 1.94412679364642e-16
vertex 0.85 0.0 -1.04094977927525e-16
endloop
endfacet
facet normal 0.0 -1.0 0.0
outer loop
vertex 0.85 0.0 -1.04094977927525e-16
vertex 1.5875 0.0 1.94412679364642e-16
vertex 0.821036952345708 0.0 0.219996188337142
endloop
endfacet
facet normal 0.0 -1.0 0.0
outer loop
vertex 0.821036952345708 0.0 0.219996188337142
vertex 1.5875 0.0 1.94412679364642e-16
vertex 1.5334072492339 0.0 0.410875234100252
endloop
endfacet
facet normal 0.0 -1.0 0.0
outer loop
vertex 0.821036952345708 0.0 0.219996188337142
vertex 1.5334072492339 0.0 0.410875234100252
vertex 0.736121593216773 0.0 0.425
endloop
endfacet
facet normal 0.0 -1.0 0.0
outer loop
vertex 0.736121593216773 0.0 0.425
vertex 1.5334072492339 0.0 0.410875234100252
vertex 1.3748153285078 0.0 0.793750000000001
endloop
endfacet
facet normal 0.0 -1.0 0.0
outer loop
vertex 0.736121593216773 0.0 0.425
vertex 1.3748153285078 0.0 0.793750000000001
vertex 0.601040764008566 0.0 0.601040764008565
endloop
endfacet
facet normal 0.0 -1.0 0.0
outer loop
vertex 0.601040764008566 0.0 0.601040764008565
vertex 1.3748153285078 0.0 0.793750000000001
vertex 1.12253201513364 0.0 1.12253201513364
endloop
endfacet
facet normal 0.0 -1.0 0.0
outer loop
vertex 1.12253201513364 0.0 -1.12253201513364
vertex -1.03379150954332 0.0 -1.190625
vertex 1.03379150954332 0.0 -1.190625
endloop
endfacet
facet normal 0.0 -1.0 0.0
outer loop
vertex -1.03379150954332 0.0 -1.190625
vertex 1.12253201513364 0.0 -1.12253201513364
vertex -1.12253201513364 0.0 -1.12253201513364
endloop
endfacet
facet normal 0.0 -1.0 0.0
outer loop
vertex -1.12253201513364 0.0 -1.12253201513364
vertex 1.12253201513364 0.0 -1.12253201513364
vertex -1.3748153285078 0.0 -0.793750000000001
endloop
endfacet
facet normal 0.0 -1.0 0.0
outer loop
vertex -1.3748153285078 0.0 -0.793750000000001
vertex 1.12253201513364 0.0 -1.12253201513364
vertex -5.20474889637625e-17 0.0 -0.85
endloop
endfacet
facet normal 0.0 -1.0 0.0
outer loop
vertex -1.3748153285078 0.0 -0.793750000000001
vertex -5.20474889637625e-17 0.0 -0.85
vertex -0.219996188337143 0.0 -0.821036952345708
endloop
endfacet
facet normal 0.0 -1.0 0.0
outer loop
vertex -1.3748153285078 0.0 -0.793750000000001
vertex -0.219996188337143 0.0 -0.821036952345708
vertex -0.425 0.0 -0.736121593216773
endloop
endfacet
facet normal 0.0 -1.0 0.0
outer loop
vertex -1.3748153285078 0.0 -0.793750000000001
vertex -0.425 0.0 -0.736121593216773
vertex -1.5334072492339 0.0 -0.410875234100253
endloop
endfacet
facet normal 0.0 -1.0 0.0
outer loop
vertex -1.5334072492339 0.0 -0.410875234100253
vertex -0.425 0.0 -0.736121593216773
vertex -0.601040764008565 0.0 -0.601040764008565
endloop
endfacet
facet normal 0.0 -1.0 0.0
outer loop
vertex -1.5334072492339 0.0 -0.410875234100253
vertex -0.601040764008565 0.0 -0.601040764008565
vertex -0.736121593216773 0.0 -0.425
endloop
endfacet
facet normal 0.0 -1.0 0.0
outer loop
vertex -1.5334072492339 0.0 -0.410875234100253
vertex -0.736121593216773 0.0 -0.425
vertex -0.821036952345708 0.0 -0.219996188337143
endloop
endfacet
facet normal 0.0 -1.0 0.0
outer loop
vertex -1.5334072492339 0.0 -0.410875234100253
vertex -0.821036952345708 0.0 -0.219996188337143
vertex -1.5875 0.0 0.0
endloop
endfacet
facet normal 0.0 -1.0 0.0
outer loop
vertex -1.5875 0.0 0.0
vertex -0.821036952345708 0.0 -0.219996188337143
vertex -0.85 0.0 0.0
endloop
endfacet
facet normal 0.0 -1.0 0.0
outer loop
vertex -1.5875 0.0 0.0
vertex -0.85 0.0 0.0
vertex -0.821036952345708 0.0 0.219996188337143
endloop
endfacet
facet normal 0.0 -1.0 0.0
outer loop
vertex -1.5875 0.0 0.0
vertex -0.821036952345708 0.0 0.219996188337143
vertex -1.5334072492339 0.0 0.410875234100252
endloop
endfacet
facet normal 0.0 -1.0 0.0
outer loop
vertex -1.5334072492339 0.0 0.410875234100252
vertex -0.821036952345708 0.0 0.219996188337143
vertex -0.736121593216773 0.0 0.425
endloop
endfacet
facet normal 0.0 -1.0 0.0
outer loop
vertex -1.5334072492339 0.0 0.410875234100252
vertex -0.736121593216773 0.0 0.425
vertex -1.3748153285078 0.0 0.79375
endloop
endfacet
facet normal 0.0 -1.0 0.0
outer loop
vertex -1.3748153285078 0.0 0.79375
vertex -0.736121593216773 0.0 0.425
vertex -0.601040764008565 0.0 0.601040764008566
endloop
endfacet
facet normal 0.0 -1.0 0.0
outer loop
vertex -1.3748153285078 0.0 0.79375
vertex -0.601040764008565 0.0 0.601040764008566
vertex -1.12253201513364 0.0 1.12253201513364
endloop
endfacet
facet normal -0.0 1.0 -0.0
outer loop
vertex -1.12253201513364 6.35 -1.12253201513364
vertex 1.03379150954332 6.35 -1.190625
vertex -1.03379150954332 6.35 -1.190625
endloop
endfacet
facet normal -0.0 1.0 -0.0
outer loop
vertex 1.03379150954332 6.35 -1.190625
vertex -1.12253201513364 6.35 -1.12253201513364
vertex 1.12253201513364 6.35 -1.12253201513364
endloop
endfacet
facet normal -0.0 1.0 -0.0
outer loop
vertex 1.12253201513364 6.35 -1.12253201513364
vertex -1.12253201513364 6.35 -1.12253201513364
vertex -1.3748153285078 6.35 -0.793750000000001
endloop
endfacet
facet normal -0.0 1.0 -0.0
outer loop
vertex 1.12253201513364 6.35 -1.12253201513364
vertex -1.3748153285078 6.35 -0.793750000000001
vertex -5.20474889637625e-17 6.35 -0.85
endloop
endfacet
facet normal -0.0 1.0 -0.0
outer loop
vertex -5.20474889637625e-17 6.35 -0.85
vertex -1.3748153285078 6.35 -0.793750000000001
vertex -0.219996188337143 6.35 -0.821036952345708
endloop
endfacet
facet normal -0.0 1.0 -0.0
outer loop
vertex -0.219996188337143 6.35 -0.821036952345708
vertex -1.3748153285078 6.35 -0.793750000000001
vertex -0.425 6.35 -0.736121593216773
endloop
endfacet
facet normal -0.0 1.0 -0.0
outer loop
vertex -0.425 6.35 -0.736121593216773
vertex -1.3748153285078 6.35 -0.793750000000001
vertex -1.5334072492339 6.35 -0.410875234100253
endloop
endfacet
facet normal -0.0 1.0 -0.0
outer loop
vertex -0.425 6.35 -0.736121593216773
vertex -1.5334072492339 6.35 -0.410875234100253
vertex -0.601040764008565 6.35 -0.601040764008565
endloop
endfacet
facet normal -0.0 1.0 -0.0
outer loop
vertex -0.601040764008565 6.35 -0.601040764008565
vertex -1.5334072492339 6.35 -0.410875234100253
vertex -0.736121593216773 6.35 -0.425
endloop
endfacet
facet normal -0.0 1.0 -0.0
outer loop
vertex -0.736121593216773 6.35 -0.425
vertex -1.5334072492339 6.35 -0.410875234100253
vertex -0.821036952345708 6.35 -0.219996188337143
endloop
endfacet
facet normal -0.0 1.0 -0.0
outer loop
vertex -0.821036952345708 6.35 -0.219996188337143
vertex -1.5334072492339 6.35 -0.410875234100253
vertex -1.5875 6.35 0.0
endloop
endfacet
facet normal -0.0 1.0 -0.0
outer loop
vertex -0.821036952345708 6.35 -0.219996188337143
vertex -1.5875 6.35 0.0
vertex -0.85 6.35 0.0
endloop
endfacet
facet normal -0.0 1.0 -0.0
outer loop
vertex -0.85 6.35 0.0
vertex -1.5875 6.35 0.0
vertex -1.5334072492339 6.35 0.410875234100252
endloop
endfacet
facet normal -0.0 1.0 -0.0
outer loop
vertex -0.85 6.35 0.0
vertex -1.5334072492339 6.35 0.410875234100252
vertex -0.821036952345708 6.35 0.219996188337143
endloop
endfacet
facet normal -0.0 1.0 -0.0
outer loop
vertex -0.821036952345708 6.35 0.219996188337143
vertex -1.5334072492339 6.35 0.410875234100252
vertex -0.736121593216773 6.35 0.425
endloop
endfacet
facet normal -0.0 1.0 -0.0
outer loop
vertex -0.736121593216773 6.35 0.425
vertex -1.5334072492339 6.35 0.410875234100252
vertex -1.3748153285078 6.35 0.79375
endloop
endfacet
facet normal -0.0 1.0 -0.0
outer loop
vertex -0.736121593216773 6.35 0.425
vertex -1.3748153285078 6.35 0.79375
vertex -0.601040764008565 6.35 0.601040764008566
endloop
endfacet
facet normal -0.0 1.0 -0.0
outer loop
vertex -0.601040764008565 6.35 0.601040764008566
vertex -1.3748153285078 6.35 0.79375
vertex -1.12253201513364 6.35 1.12253201513364
endloop
endfacet
facet normal -0.0 1.0 -0.0
outer loop
vertex -5.20474889637625e-17 6.35 -0.85
vertex 1.3748153285078 6.35 -0.79375
vertex 1.12253201513364 6.35 -1.12253201513364
endloop
endfacet
facet normal -0.0 1.0 -0.0
outer loop
vertex 1.3748153285078 6.35 -0.79375
vertex -5.20474889637625e-17 6.35 -0.85
vertex 0.219996188337143 6.35 -0.821036952345708
endloop
endfacet
facet normal -0.0 1.0 -0.0
outer loop
vertex 1.3748153285078 6.35 -0.79375
vertex 0.219996188337143 6.35 -0.821036952345708
vertex 0.425 6.35 -0.736121593216773
endloop
endfacet
facet normal -0.0 1.0 -0.0
outer loop
vertex 1.3748153285078 6.35 -0.79375
vertex 0.425 6.35 -0.736121593216773
vertex 1.5334072492339 6.35 -0.410875234100251
endloop
endfacet
facet normal -0.0 1.0 -0.0
outer loop
vertex 1.5334072492339 6.35 -0.410875234100251
vertex 0.425 6.35 -0.736121593216773
vertex 0.601040764008565 6.35 -0.601040764008565
endloop
endfacet
facet normal -0.0 1.0 -0.0
outer loop
vertex 1.5334072492339 6.35 -0.410875234100251
vertex 0.601040764008565 6.35 -0.601040764008565
vertex 0.736121593216773 6.35 -0.425
endloop
endfacet
facet normal -0.0 1.0 -0.0
outer loop
vertex 1.5334072492339 6.35 -0.410875234100251
vertex 0.736121593216773 6.35 -0.425
vertex 0.821036952345708 6.35 -0.219996188337143
endloop
endfacet
facet normal -0.0 1.0 -0.0
outer loop
vertex 1.5334072492339 6.35 -0.410875234100251
vertex 0.821036952345708 6.35 -0.219996188337143
vertex 1.5875 6.35 1.94412679364642e-16
endloop
endfacet
facet normal -0.0 1.0 -0.0
outer loop
vertex 1.5875 6.35 1.94412679364642e-16
vertex 0.821036952345708 6.35 -0.219996188337143
vertex 0.85 6.35 -1.04094977927525e-16
endloop
endfacet
facet normal -0.0 1.0 -0.0
outer loop
vertex 1.5875 6.35 1.94412679364642e-16
vertex 0.85 6.35 -1.04094977927525e-16
vertex 0.821036952345708 6.35 0.219996188337142
endloop
endfacet
facet normal -0.0 1.0 -0.0
outer loop
vertex 1.5875 6.35 1.94412679364642e-16
vertex 0.821036952345708 6.35 0.219996188337142
vertex 1.5334072492339 6.35 0.410875234100252
endloop
endfacet
facet normal -0.0 1.0 -0.0
outer loop
vertex 1.5334072492339 6.35 0.410875234100252
vertex 0.821036952345708 6.35 0.219996188337142
vertex 0.736121593216773 6.35 0.425
endloop
endfacet
facet normal -0.0 1.0 -0.0
outer loop
vertex 1.5334072492339 6.35 0.410875234100252
vertex 0.736121593216773 6.35 0.425
vertex 1.3748153285078 6.35 0.793750000000001
endloop
endfacet
facet normal -0.0 1.0 -0.0
outer loop
vertex 1.3748153285078 6.35 0.793750000000001
vertex 0.736121593216773 6.35 0.425
vertex 0.601040764008566 6.35 0.601040764008565
endloop
endfacet
facet normal -0.0 1.0 -0.0
outer loop
vertex 1.3748153285078 6.35 0.793750000000001
vertex 0.601040764008566 6.35 0.601040764008565
vertex 1.12253201513364 6.35 1.12253201513364
endloop
endfacet
facet normal -0.793353340291235 0.0 0.608761429008721
outer loop
vertex -1.12253201513364 6.35 1.12253201513364
vertex -1.3748153285078 0.0 0.79375
vertex -1.12253201513364 0.0 1.12253201513364
endloop
endfacet
facet normal -0.866025403784439 0.0 0.5
outer loop
vertex -1.3748153285078 0.0 0.79375
vertex -1.12253201513364 6.35 1.12253201513364
vertex -1.3748153285078 6.35 0.79375
endloop
endfacet
facet normal 0.707106781186547 0.0 0.707106781186548
outer loop
vertex -0.601040764008565 0.0 0.601040764008566
vertex -1.12253201513364 6.35 1.12253201513364
vertex -1.12253201513364 0.0 1.12253201513364
endloop
endfacet
facet normal 0.707106781186547 0.0 0.707106781186548
outer loop
vertex -1.12253201513364 6.35 1.12253201513364
vertex -0.601040764008565 0.0 0.601040764008566
vertex -0.601040764008565 6.35 0.601040764008566
endloop
endfacet
facet normal 0.866025403784438 0.0 -0.5
outer loop
vertex -0.736121593216773 6.35 0.425
vertex -0.601040764008565 0.0 0.601040764008566
vertex -0.736121593216773 0.0 0.425
endloop
endfacet
facet normal 0.793353340291235 0.0 -0.608761429008721
outer loop
vertex -0.601040764008565 0.0 0.601040764008566
vertex -0.736121593216773 6.35 0.425
vertex -0.601040764008565 6.35 0.601040764008566
endloop
endfacet
facet normal 0.965925826289068 0.0 -0.258819045102521
outer loop
vertex -0.821036952345708 6.35 0.219996188337143
vertex -0.736121593216773 0.0 0.425
vertex -0.821036952345708 0.0 0.219996188337143
endloop
endfacet
facet normal 0.866025403784438 0.0 -0.5
outer loop
vertex -0.736121593216773 0.0 0.425
vertex -0.821036952345708 6.35 0.219996188337143
vertex -0.736121593216773 6.35 0.425
endloop
endfacet
facet normal 1.0 0.0 -1.96044417704232e-16
outer loop
vertex -0.85 6.35 0.0
vertex -0.821036952345708 0.0 0.219996188337143
vertex -0.85 0.0 0.0
endloop
endfacet
facet normal 0.965925826289068 0.0 -0.258819045102521
outer loop
vertex -0.821036952345708 0.0 0.219996188337143
vertex -0.85 6.35 0.0
vertex -0.821036952345708 6.35 0.219996188337143
endloop
endfacet
facet normal 0.965925826289068 0.0 0.258819045102521
outer loop
vertex -0.821036952345708 6.35 -0.219996188337143
vertex -0.85 0.0 0.0
vertex -0.821036952345708 0.0 -0.219996188337143
endloop
endfacet
facet normal 1.0 0.0 -1.96044417704232e-16
outer loop
vertex -0.85 0.0 0.0
vertex -0.821036952345708 6.35 -0.219996188337143
vertex -0.85 6.35 0.0
endloop
endfacet
facet normal 0.866025403784439 0.0 0.5
outer loop
vertex -0.736121593216773 6.35 -0.425
vertex -0.821036952345708 0.0 -0.219996188337143
vertex -0.736121593216773 0.0 -0.425
endloop
endfacet
facet normal 0.965925826289068 0.0 0.258819045102521
outer loop
vertex -0.821036952345708 0.0 -0.219996188337143
vertex -0.736121593216773 6.35 -0.425
vertex -0.821036952345708 6.35 -0.219996188337143
endloop
endfacet
facet normal 0.707106781186548 0.0 0.707106781186547
outer loop
vertex -0.601040764008565 6.35 -0.601040764008565
vertex -0.736121593216773 0.0 -0.425
vertex -0.601040764008565 0.0 -0.601040764008565
endloop
endfacet
facet normal 0.866025403784439 0.0 0.5
outer loop
vertex -0.736121593216773 0.0 -0.425
vertex -0.601040764008565 6.35 -0.601040764008565
vertex -0.736121593216773 6.35 -0.425
endloop
endfacet
facet normal 0.5 0.0 0.866025403784439
outer loop
vertex -0.425 0.0 -0.736121593216773
vertex -0.601040764008565 6.35 -0.601040764008565
vertex -0.601040764008565 0.0 -0.601040764008565
endloop
endfacet
facet normal 0.707106781186548 0.0 0.707106781186547
outer loop
vertex -0.601040764008565 6.35 -0.601040764008565
vertex -0.425 0.0 -0.736121593216773
vertex -0.425 6.35 -0.736121593216773
endloop
endfacet
facet normal 0.258819045102521 0.0 0.965925826289068
outer loop
vertex -0.219996188337143 0.0 -0.821036952345708
vertex -0.425 6.35 -0.736121593216773
vertex -0.425 0.0 -0.736121593216773
endloop
endfacet
facet normal 0.5 0.0 0.866025403784439
outer loop
vertex -0.425 6.35 -0.736121593216773
vertex -0.219996188337143 0.0 -0.821036952345708
vertex -0.219996188337143 6.35 -0.821036952345708
endloop
endfacet
facet normal 3.38622176034582e-16 0.0 1.0
outer loop
vertex -5.20474889637625e-17 0.0 -0.85
vertex -0.219996188337143 6.35 -0.821036952345708
vertex -0.219996188337143 0.0 -0.821036952345708
endloop
endfacet
facet normal 0.258819045102521 0.0 0.965925826289068
outer loop
vertex -0.219996188337143 6.35 -0.821036952345708
vertex -5.20474889637625e-17 0.0 -0.85
vertex -5.20474889637625e-17 6.35 -0.85
endloop
endfacet
facet normal -0.25881904510252 0.0 0.965925826289068
outer loop
vertex 0.219996188337143 0.0 -0.821036952345708
vertex -5.20474889637625e-17 6.35 -0.85
vertex -5.20474889637625e-17 0.0 -0.85
endloop
endfacet
facet normal 3.38622176034582e-16 0.0 1.0
outer loop
vertex -5.20474889637625e-17 6.35 -0.85
vertex 0.219996188337143 0.0 -0.821036952345708
vertex 0.219996188337143 6.35 -0.821036952345708
endloop
endfacet
facet normal -0.5 0.0 0.866025403784439
outer loop
vertex 0.425 0.0 -0.736121593216773
vertex 0.219996188337143 6.35 -0.821036952345708
vertex 0.219996188337143 0.0 -0.821036952345708
endloop
endfacet
facet normal -0.25881904510252 0.0 0.965925826289068
outer loop
vertex 0.219996188337143 6.35 -0.821036952345708
vertex 0.425 0.0 -0.736121593216773
vertex 0.425 6.35 -0.736121593216773
endloop
endfacet
facet normal -0.707106781186547 0.0 0.707106781186548
outer loop
vertex 0.601040764008565 0.0 -0.601040764008565
vertex 0.425 6.35 -0.736121593216773
vertex 0.425 0.0 -0.736121593216773
endloop
endfacet
facet normal -0.5 0.0 0.866025403784439
outer loop
vertex 0.425 6.35 -0.736121593216773
vertex 0.601040764008565 0.0 -0.601040764008565
vertex 0.601040764008565 6.35 -0.601040764008565
endloop
endfacet
facet normal -0.866025403784439 0.0 0.5
outer loop
vertex 0.736121593216773 6.35 -0.425
vertex 0.601040764008565 0.0 -0.601040764008565
vertex 0.736121593216773 0.0 -0.425
endloop
endfacet
facet normal -0.707106781186547 0.0 0.707106781186548
outer loop
vertex 0.601040764008565 0.0 -0.601040764008565
vertex 0.736121593216773 6.35 -0.425
vertex 0.601040764008565 6.35 -0.601040764008565
endloop
endfacet
facet normal -0.965925826289068 0.0 0.258819045102521
outer loop
vertex 0.821036952345708 6.35 -0.219996188337143
vertex 0.736121593216773 0.0 -0.425
vertex 0.821036952345708 0.0 -0.219996188337143
endloop
endfacet
facet normal -0.866025403784439 0.0 0.5
outer loop
vertex 0.736121593216773 0.0 -0.425
vertex 0.821036952345708 6.35 -0.219996188337143
vertex 0.736121593216773 6.35 -0.425
endloop
endfacet
facet normal -1.0 0.0 2.76244406765054e-16
outer loop
vertex 0.85 6.35 -1.04094977927525e-16
vertex 0.821036952345708 0.0 -0.219996188337143
vertex 0.85 0.0 -1.04094977927525e-16
endloop
endfacet
facet normal -0.965925826289068 0.0 0.258819045102521
outer loop
vertex 0.821036952345708 0.0 -0.219996188337143
vertex 0.85 6.35 -1.04094977927525e-16
vertex 0.821036952345708 6.35 -0.219996188337143
endloop
endfacet
facet normal -0.965925826289069 0.0 -0.25881904510252
outer loop
vertex 0.821036952345708 6.35 0.219996188337142
vertex 0.85 0.0 -1.04094977927525e-16
vertex 0.821036952345708 0.0 0.219996188337142
endloop
endfacet
facet normal -1.0 0.0 2.76244406765054e-16
outer loop
vertex 0.85 0.0 -1.04094977927525e-16
vertex 0.821036952345708 6.35 0.219996188337142
vertex 0.85 6.35 -1.04094977927525e-16
endloop
endfacet
facet normal -0.866025403784439 0.0 -0.5
outer loop
vertex 0.736121593216773 6.35 0.425
vertex 0.821036952345708 0.0 0.219996188337142
vertex 0.736121593216773 0.0 0.425
endloop
endfacet
facet normal -0.965925826289069 0.0 -0.25881904510252
outer loop
vertex 0.821036952345708 0.0 0.219996188337142
vertex 0.736121593216773 6.35 0.425
vertex 0.821036952345708 6.35 0.219996188337142
endloop
endfacet
facet normal -0.793353340291235 -0.0 -0.608761429008721
outer loop
vertex 0.601040764008566 6.35 0.601040764008565
vertex 0.736121593216773 0.0 0.425
vertex 0.601040764008566 0.0 0.601040764008565
endloop
endfacet
facet normal -0.866025403784439 0.0 -0.5
outer loop
vertex 0.736121593216773 0.0 0.425
vertex 0.601040764008566 6.35 0.601040764008565
vertex 0.736121593216773 6.35 0.425
endloop
endfacet
facet normal -0.707106781186548 0.0 0.707106781186547
outer loop
vertex 1.12253201513364 6.35 1.12253201513364
vertex 0.601040764008566 0.0 0.601040764008565
vertex 1.12253201513364 0.0 1.12253201513364
endloop
endfacet
facet normal -0.707106781186548 0.0 0.707106781186547
outer loop
vertex 0.601040764008566 0.0 0.601040764008565
vertex 1.12253201513364 6.35 1.12253201513364
vertex 0.601040764008566 6.35 0.601040764008565
endloop
endfacet
facet normal 0.866025403784438 0.0 0.5
outer loop
vertex 1.3748153285078 6.35 0.793750000000001
vertex 1.12253201513364 0.0 1.12253201513364
vertex 1.3748153285078 0.0 0.793750000000001
endloop
endfacet
facet normal 0.793353340291235 0.0 0.608761429008721
outer loop
vertex 1.12253201513364 0.0 1.12253201513364
vertex 1.3748153285078 6.35 0.793750000000001
vertex 1.12253201513364 6.35 1.12253201513364
endloop
endfacet
facet normal 0.965925826289068 0.0 0.258819045102521
outer loop
vertex 1.5334072492339 6.35 0.410875234100252
vertex 1.3748153285078 0.0 0.793750000000001
vertex 1.5334072492339 0.0 0.410875234100252
endloop
endfacet
facet normal 0.866025403784438 0.0 0.5
outer loop
vertex 1.3748153285078 0.0 0.793750000000001
vertex 1.5334072492339 6.35 0.410875234100252
vertex 1.3748153285078 6.35 0.793750000000001
endloop
endfacet
facet normal 1.0 0.0 3.11888846347642e-16
outer loop
vertex 1.5875 6.35 1.94412679364642e-16
vertex 1.5334072492339 0.0 0.410875234100252
vertex 1.5875 0.0 1.94412679364642e-16
endloop
endfacet
facet normal 0.965925826289068 0.0 0.258819045102521
outer loop
vertex 1.5334072492339 0.0 0.410875234100252
vertex 1.5875 6.35 1.94412679364642e-16
vertex 1.5334072492339 6.35 0.410875234100252
endloop
endfacet
facet normal 0.965925826289068 0.0 -0.25881904510252
outer loop
vertex 1.5334072492339 6.35 -0.410875234100251
vertex 1.5875 0.0 1.94412679364642e-16
vertex 1.5334072492339 0.0 -0.410875234100251
endloop
endfacet
facet normal 1.0 0.0 3.11888846347642e-16
outer loop
vertex 1.5875 0.0 1.94412679364642e-16
vertex 1.5334072492339 6.35 -0.410875234100251
vertex 1.5875 6.35 1.94412679364642e-16
endloop
endfacet
facet normal 0.866025403784439 0.0 -0.5
outer loop
vertex 1.3748153285078 6.35 -0.79375
vertex 1.5334072492339 0.0 -0.410875234100251
vertex 1.3748153285078 0.0 -0.79375
endloop
endfacet
facet normal 0.965925826289068 0.0 -0.25881904510252
outer loop
vertex 1.5334072492339 0.0 -0.410875234100251
vertex 1.3748153285078 6.35 -0.79375
vertex 1.5334072492339 6.35 -0.410875234100251
endloop
endfacet
facet normal 0.707106781186548 0.0 -0.707106781186547
outer loop
vertex 1.12253201513364 6.35 -1.12253201513364
vertex 1.3748153285078 0.0 -0.79375
vertex 1.12253201513364 0.0 -1.12253201513364
endloop
endfacet
facet normal 0.866025403784439 0.0 -0.5
outer loop
vertex 1.3748153285078 0.0 -0.79375
vertex 1.12253201513364 6.35 -1.12253201513364
vertex 1.3748153285078 6.35 -0.79375
endloop
endfacet
facet normal 0.707106781186548 0.0 -0.707106781186547
outer loop
vertex 1.12253201513364 6.35 -1.12253201513364
vertex 1.03379150954332 0.0 -1.190625
vertex 1.03379150954332 6.35 -1.190625
endloop
endfacet
facet normal 0.608761429008721 0.0 -0.793353340291235
outer loop
vertex 1.03379150954332 0.0 -1.190625
vertex 1.12253201513364 6.35 -1.12253201513364
vertex 1.12253201513364 0.0 -1.12253201513364
endloop
endfacet
facet normal -0.60876142900872 0.0 -0.793353340291236
outer loop
vertex -1.03379150954332 6.35 -1.190625
vertex -1.12253201513364 0.0 -1.12253201513364
vertex -1.12253201513364 6.35 -1.12253201513364
endloop
endfacet
facet normal -0.707106781186547 0.0 -0.707106781186548
outer loop
vertex -1.12253201513364 0.0 -1.12253201513364
vertex -1.03379150954332 6.35 -1.190625
vertex -1.03379150954332 0.0 -1.190625
endloop
endfacet
facet normal -0.866025403784438 0.0 -0.5
outer loop
vertex -1.3748153285078 6.35 -0.793750000000001
vertex -1.12253201513364 0.0 -1.12253201513364
vertex -1.3748153285078 0.0 -0.793750000000001
endloop
endfacet
facet normal -0.707106781186547 0.0 -0.707106781186548
outer loop
vertex -1.12253201513364 0.0 -1.12253201513364
vertex -1.3748153285078 6.35 -0.793750000000001
vertex -1.12253201513364 6.35 -1.12253201513364
endloop
endfacet
facet normal -0.965925826289068 0.0 -0.258819045102521
outer loop
vertex -1.5334072492339 6.35 -0.410875234100253
vertex -1.3748153285078 0.0 -0.793750000000001
vertex -1.5334072492339 0.0 -0.410875234100253
endloop
endfacet
facet normal -0.866025403784438 0.0 -0.5
outer loop
vertex -1.3748153285078 0.0 -0.793750000000001
vertex -1.5334072492339 6.35 -0.410875234100253
vertex -1.3748153285078 6.35 -0.793750000000001
endloop
endfacet
facet normal -1.0 0.0 -2.3168885728682e-16
outer loop
vertex -1.5875 6.35 0.0
vertex -1.5334072492339 0.0 -0.410875234100253
vertex -1.5875 0.0 0.0
endloop
endfacet
facet normal -0.965925826289068 0.0 -0.258819045102521
outer loop
vertex -1.5334072492339 0.0 -0.410875234100253
vertex -1.5875 6.35 0.0
vertex -1.5334072492339 6.35 -0.410875234100253
endloop
endfacet
facet normal -0.965925826289068 0.0 0.258819045102521
outer loop
vertex -1.5334072492339 6.35 0.410875234100252
vertex -1.5875 0.0 0.0
vertex -1.5334072492339 0.0 0.410875234100252
endloop
endfacet
facet normal -1.0 0.0 -2.3168885728682e-16
outer loop
vertex -1.5875 0.0 0.0
vertex -1.5334072492339 6.35 0.410875234100252
vertex -1.5875 6.35 0.0
endloop
endfacet
facet normal -0.866025403784439 0.0 0.5
outer loop
vertex -1.3748153285078 6.35 0.79375
vertex -1.5334072492339 0.0 0.410875234100252
vertex -1.3748153285078 0.0 0.79375
endloop
endfacet
facet normal -0.965925826289068 0.0 0.258819045102521
outer loop
vertex -1.5334072492339 0.0 0.410875234100252
vertex -1.3748153285078 6.35 0.79375
vertex -1.5334072492339 6.35 0.410875234100252
endloop
endfacet
facet normal -1.0 -0.0 -0.0
outer loop
vertex -2.62129150954332 7.9375 -1.190625
vertex -2.62129150954332 -1.5875 -1.984375
vertex -2.62129150954332 -1.5875 -1.190625
endloop
endfacet
facet normal -1.0 -0.0 -0.0
outer loop
vertex -2.62129150954332 -1.5875 -1.984375
vertex -2.62129150954332 7.9375 -1.190625
vertex -2.62129150954332 7.9375 -1.984375
endloop
endfacet
facet normal 0.0 0.0 -1.0
outer loop
vertex 2.62129150954332 7.9375 -1.984375
vertex -2.62129150954332 -1.5875 -1.984375
vertex -2.62129150954332 7.9375 -1.984375
endloop
endfacet
facet normal 0.0 0.0 -1.0
outer loop
vertex -2.62129150954332 -1.5875 -1.984375
vertex 2.62129150954332 7.9375 -1.984375
vertex 2.62129150954332 -1.5875 -1.984375
endloop
endfacet
facet normal 1.0 0.0 0.0
outer loop
vertex 2.62129150954332 7.9375 -1.984375
vertex 2.62129150954332 -1.5875 -1.190625
vertex 2.62129150954332 -1.5875 -1.984375
endloop
endfacet
facet normal 1.0 0.0 0.0
outer loop
vertex 2.62129150954332 -1.5875 -1.190625
vertex 2.62129150954332 7.9375 -1.984375
vertex 2.62129150954332 7.9375 -1.190625
endloop
endfacet
facet normal -0.0 -0.0 1.0
outer loop
vertex 2.62129150954332 -1.5875 -1.190625
vertex 1.03379150954332 0.0 -1.190625
vertex 1.03379150954332 -1.5875 -1.190625
endloop
endfacet
facet normal -0.0 -0.0 1.0
outer loop
vertex 1.03379150954332 0.0 -1.190625
vertex 2.62129150954332 -1.5875 -1.190625
vertex 1.03379150954332 6.35 -1.190625
endloop
endfacet
facet normal -0.0 -0.0 1.0
outer loop
vertex 1.03379150954332 6.35 -1.190625
vertex 2.62129150954332 -1.5875 -1.190625
vertex 1.03379150954332 7.9375 -1.190625
endloop
endfacet
facet normal -0.0 -0.0 1.0
outer loop
vertex 1.03379150954332 7.9375 -1.190625
vertex 2.62129150954332 -1.5875 -1.190625
vertex 2.62129150954332 7.9375 -1.190625
endloop
endfacet
facet normal -0.0 -0.0 1.0
outer loop
vertex -1.03379150954332 -1.5875 -1.190625
vertex -2.62129150954332 7.9375 -1.190625
vertex -2.62129150954332 -1.5875 -1.190625
endloop
endfacet
facet normal -0.0 -0.0 1.0
outer loop
vertex -2.62129150954332 7.9375 -1.190625
vertex -1.03379150954332 -1.5875 -1.190625
vertex -1.03379150954332 7.9375 -1.190625
endloop
endfacet
facet normal -0.0 -0.0 1.0
outer loop
vertex -1.03379150954332 7.9375 -1.190625
vertex -1.03379150954332 -1.5875 -1.190625
vertex -1.03379150954332 0.0 -1.190625
endloop
endfacet
facet normal -0.0 -0.0 1.0
outer loop
vertex -1.03379150954332 7.9375 -1.190625
vertex -1.03379150954332 0.0 -1.190625
vertex -1.03379150954332 6.35 -1.190625
endloop
endfacet
facet normal -0.0 -0.0 1.0
outer loop
vertex 1.03379150954332 0.0 -1.190625
vertex -1.03379150954332 6.35 -1.190625
vertex -1.03379150954332 0.0 -1.190625
endloop
endfacet
facet normal -0.0 -0.0 1.0
outer loop
vertex -1.03379150954332 6.35 -1.190625
vertex 1.03379150954332 0.0 -1.190625
vertex 1.03379150954332 6.35 -1.190625
endloop
endfacet
facet normal 0.0 -1.0 0.0
outer loop
vertex 2.62129150954332 -1.5875 -1.190625
vertex -2.62129150954332 -1.5875 -1.984375
vertex 2.62129150954332 -1.5875 -1.984375
endloop
endfacet
facet normal 0.0 -1.0 0.0
outer loop
vertex -2.62129150954332 -1.5875 -1.984375
vertex 2.62129150954332 -1.5875 -1.190625
vertex -2.62129150954332 -1.5875 -1.190625
endloop
endfacet
facet normal 0.0 -1.0 0.0
outer loop
vertex -2.62129150954332 -1.5875 -1.190625
vertex 2.62129150954332 -1.5875 -1.190625
vertex 1.03379150954332 -1.5875 -1.190625
endloop
endfacet
facet normal 0.0 -1.0 0.0
outer loop
vertex -2.62129150954332 -1.5875 -1.190625
vertex 1.03379150954332 -1.5875 -1.190625
vertex -1.03379150954332 -1.5875 -1.190625
endloop
endfacet
facet normal 0.0 0.0 1.0
outer loop
vertex 1.03379150954332 -1.5875 -1.190625
vertex -1.03379150954332 0.0 -1.190625
vertex -1.03379150954332 -1.5875 -1.190625
endloop
endfacet
facet normal 0.0 0.0 1.0
outer loop
vertex -1.03379150954332 0.0 -1.190625
vertex 1.03379150954332 -1.5875 -1.190625
vertex 1.03379150954332 0.0 -1.190625
endloop
endfacet
facet normal 0.0 1.0 0.0
outer loop
vertex -2.62129150954332 7.9375 -1.190625
vertex 2.62129150954332 7.9375 -1.984375
vertex -2.62129150954332 7.9375 -1.984375
endloop
endfacet
facet normal 0.0 1.0 0.0
outer loop
vertex 2.62129150954332 7.9375 -1.984375
vertex -2.62129150954332 7.9375 -1.190625
vertex 2.62129150954332 7.9375 -1.190625
endloop
endfacet
facet normal 0.0 1.0 0.0
outer loop
vertex 2.62129150954332 7.9375 -1.190625
vertex -2.62129150954332 7.9375 -1.190625
vertex -1.03379150954332 7.9375 -1.190625
endloop
endfacet
facet normal 0.0 1.0 0.0
outer loop
vertex 2.62129150954332 7.9375 -1.190625
vertex -1.03379150954332 7.9375 -1.190625
vertex 1.03379150954332 7.9375 -1.190625
endloop
endfacet
facet normal -0.0 0.0 1.0
outer loop
vertex 1.03379150954332 6.35 -1.190625
vertex -1.03379150954332 7.9375 -1.190625
vertex -1.03379150954332 6.35 -1.190625
endloop
endfacet
facet normal -0.0 0.0 1.0
outer loop
vertex -1.03379150954332 7.9375 -1.190625
vertex 1.03379150954332 6.35 -1.190625
vertex 1.03379150954332 7.9375 -1.190625
endloop
endfacet
endsolid wiresnap2
